<?xml version="1.0" encoding="UTF-8" standalone="no"?>
<svg
   xmlns:dc="http://purl.org/dc/elements/1.1/"
   xmlns:cc="http://creativecommons.org/ns#"
   xmlns:rdf="http://www.w3.org/1999/02/22-rdf-syntax-ns#"
   xmlns:svg="http://www.w3.org/2000/svg"
   xmlns="http://www.w3.org/2000/svg"
   viewBox="0 0 2000 2000"
   height="2000"
   width="2000"
   xml:space="preserve"
   id="svg2"
   version="1.1"><metadata
     id="metadata8"><rdf:RDF><cc:Work
         rdf:about=""><dc:format>image/svg+xml</dc:format><dc:type
           rdf:resource="http://purl.org/dc/dcmitype/StillImage" /></cc:Work></rdf:RDF></metadata><defs
     id="defs6"><clipPath
       id="clipPath18"
       clipPathUnits="userSpaceOnUse"><path
         id="path16"
         d="M 0,1500 H 1500 V 0 H 0 Z" /></clipPath><clipPath
       id="clipPath26"
       clipPathUnits="userSpaceOnUse"><path
         id="path24"
         d="M 151.448,1491.9 H 1365.1 V 7.66464 H 151.448 Z" /></clipPath><linearGradient
       id="linearGradient54"
       spreadMethod="pad"
       gradientTransform="matrix(697.30432,-1375.826,-1375.826,-697.30432,327.14407,1463.5094)"
       gradientUnits="userSpaceOnUse"
       y2="0"
       x2="1"
       y1="0"
       x1="0"><stop
         id="stop32"
         offset="0"
         style="stop-opacity:1;stop-color:#bcaf3c" /><stop
         id="stop34"
         offset="0.051388"
         style="stop-opacity:1;stop-color:#f17818" /><stop
         id="stop36"
         offset="0.255773"
         style="stop-opacity:1;stop-color:#f17818" /><stop
         id="stop38"
         offset="0.29676438"
         style="stop-opacity:1;stop-color:#f25b1c" /><stop
         id="stop40"
         offset="0.459799"
         style="stop-opacity:1;stop-color:#f25b1c" /><stop
         id="stop42"
         offset="0.49870873"
         style="stop-opacity:1;stop-color:#cf3d28" /><stop
         id="stop44"
         offset="0.653464"
         style="stop-opacity:1;stop-color:#cf3d28" /><stop
         id="stop46"
         offset="0.7843737"
         style="stop-opacity:1;stop-color:#cf3d28" /><stop
         id="stop48"
         offset="0.817288"
         style="stop-opacity:1;stop-color:#b61f29" /><stop
         id="stop50"
         offset="0.96329087"
         style="stop-opacity:1;stop-color:#b61f29" /><stop
         id="stop52"
         offset="1"
         style="stop-opacity:1;stop-color:#67222e" /></linearGradient><linearGradient
       id="linearGradient82"
       spreadMethod="pad"
       gradientTransform="matrix(697.30432,-1375.826,-1375.826,-697.30432,225.52838,1412.0079)"
       gradientUnits="userSpaceOnUse"
       y2="0"
       x2="1"
       y1="0"
       x1="0"><stop
         id="stop60"
         offset="0"
         style="stop-opacity:1;stop-color:#bcaf3c" /><stop
         id="stop62"
         offset="0.051388"
         style="stop-opacity:1;stop-color:#f17818" /><stop
         id="stop64"
         offset="0.255773"
         style="stop-opacity:1;stop-color:#f17818" /><stop
         id="stop66"
         offset="0.29676438"
         style="stop-opacity:1;stop-color:#f25b1c" /><stop
         id="stop68"
         offset="0.459799"
         style="stop-opacity:1;stop-color:#f25b1c" /><stop
         id="stop70"
         offset="0.49870873"
         style="stop-opacity:1;stop-color:#cf3d28" /><stop
         id="stop72"
         offset="0.653464"
         style="stop-opacity:1;stop-color:#cf3d28" /><stop
         id="stop74"
         offset="0.7843737"
         style="stop-opacity:1;stop-color:#cf3d28" /><stop
         id="stop76"
         offset="0.817288"
         style="stop-opacity:1;stop-color:#b61f29" /><stop
         id="stop78"
         offset="0.96329087"
         style="stop-opacity:1;stop-color:#b61f29" /><stop
         id="stop80"
         offset="1"
         style="stop-opacity:1;stop-color:#67222e" /></linearGradient><linearGradient
       id="linearGradient110"
       spreadMethod="pad"
       gradientTransform="matrix(308.00665,-607.7168,-607.7168,-308.00665,788.59198,1697.3832)"
       gradientUnits="userSpaceOnUse"
       y2="0"
       x2="1"
       y1="0"
       x1="0"><stop
         id="stop88"
         offset="0"
         style="stop-opacity:1;stop-color:#bcaf3c" /><stop
         id="stop90"
         offset="0.051388"
         style="stop-opacity:1;stop-color:#f17818" /><stop
         id="stop92"
         offset="0.255773"
         style="stop-opacity:1;stop-color:#f17818" /><stop
         id="stop94"
         offset="0.29676438"
         style="stop-opacity:1;stop-color:#f25b1c" /><stop
         id="stop96"
         offset="0.459799"
         style="stop-opacity:1;stop-color:#f25b1c" /><stop
         id="stop98"
         offset="0.49870873"
         style="stop-opacity:1;stop-color:#cf3d28" /><stop
         id="stop100"
         offset="0.653464"
         style="stop-opacity:1;stop-color:#cf3d28" /><stop
         id="stop102"
         offset="0.7843737"
         style="stop-opacity:1;stop-color:#cf3d28" /><stop
         id="stop104"
         offset="0.817288"
         style="stop-opacity:1;stop-color:#b61f29" /><stop
         id="stop106"
         offset="0.96329087"
         style="stop-opacity:1;stop-color:#b61f29" /><stop
         id="stop108"
         offset="1"
         style="stop-opacity:1;stop-color:#67222e" /></linearGradient><linearGradient
       id="linearGradient138"
       spreadMethod="pad"
       gradientTransform="matrix(697.30432,-1375.826,-1375.826,-697.30432,788.4837,1697.3282)"
       gradientUnits="userSpaceOnUse"
       y2="0"
       x2="1"
       y1="0"
       x1="0"><stop
         id="stop116"
         offset="0"
         style="stop-opacity:1;stop-color:#bcaf3c" /><stop
         id="stop118"
         offset="0.051388"
         style="stop-opacity:1;stop-color:#f17818" /><stop
         id="stop120"
         offset="0.255773"
         style="stop-opacity:1;stop-color:#f17818" /><stop
         id="stop122"
         offset="0.29676438"
         style="stop-opacity:1;stop-color:#f25b1c" /><stop
         id="stop124"
         offset="0.459799"
         style="stop-opacity:1;stop-color:#f25b1c" /><stop
         id="stop126"
         offset="0.49870873"
         style="stop-opacity:1;stop-color:#cf3d28" /><stop
         id="stop128"
         offset="0.653464"
         style="stop-opacity:1;stop-color:#cf3d28" /><stop
         id="stop130"
         offset="0.7843737"
         style="stop-opacity:1;stop-color:#cf3d28" /><stop
         id="stop132"
         offset="0.817288"
         style="stop-opacity:1;stop-color:#b61f29" /><stop
         id="stop134"
         offset="0.96329087"
         style="stop-opacity:1;stop-color:#b61f29" /><stop
         id="stop136"
         offset="1"
         style="stop-opacity:1;stop-color:#67222e" /></linearGradient><linearGradient
       id="linearGradient166"
       spreadMethod="pad"
       gradientTransform="matrix(697.30432,-1375.826,-1375.826,-697.30432,787.85937,1697.0118)"
       gradientUnits="userSpaceOnUse"
       y2="0"
       x2="1"
       y1="0"
       x1="0"><stop
         id="stop144"
         offset="0"
         style="stop-opacity:1;stop-color:#bcaf3c" /><stop
         id="stop146"
         offset="0.051388"
         style="stop-opacity:1;stop-color:#f17818" /><stop
         id="stop148"
         offset="0.255773"
         style="stop-opacity:1;stop-color:#f17818" /><stop
         id="stop150"
         offset="0.29676438"
         style="stop-opacity:1;stop-color:#f25b1c" /><stop
         id="stop152"
         offset="0.459799"
         style="stop-opacity:1;stop-color:#f25b1c" /><stop
         id="stop154"
         offset="0.49870873"
         style="stop-opacity:1;stop-color:#cf3d28" /><stop
         id="stop156"
         offset="0.653464"
         style="stop-opacity:1;stop-color:#cf3d28" /><stop
         id="stop158"
         offset="0.7843737"
         style="stop-opacity:1;stop-color:#cf3d28" /><stop
         id="stop160"
         offset="0.817288"
         style="stop-opacity:1;stop-color:#b61f29" /><stop
         id="stop162"
         offset="0.96329087"
         style="stop-opacity:1;stop-color:#b61f29" /><stop
         id="stop164"
         offset="1"
         style="stop-opacity:1;stop-color:#67222e" /></linearGradient><linearGradient
       id="linearGradient194"
       spreadMethod="pad"
       gradientTransform="matrix(697.30432,-1375.826,-1375.826,-697.30432,787.49506,1696.8271)"
       gradientUnits="userSpaceOnUse"
       y2="0"
       x2="1"
       y1="0"
       x1="0"><stop
         id="stop172"
         offset="0"
         style="stop-opacity:1;stop-color:#bcaf3c" /><stop
         id="stop174"
         offset="0.051388"
         style="stop-opacity:1;stop-color:#f17818" /><stop
         id="stop176"
         offset="0.255773"
         style="stop-opacity:1;stop-color:#f17818" /><stop
         id="stop178"
         offset="0.29676438"
         style="stop-opacity:1;stop-color:#f25b1c" /><stop
         id="stop180"
         offset="0.459799"
         style="stop-opacity:1;stop-color:#f25b1c" /><stop
         id="stop182"
         offset="0.49870873"
         style="stop-opacity:1;stop-color:#cf3d28" /><stop
         id="stop184"
         offset="0.653464"
         style="stop-opacity:1;stop-color:#cf3d28" /><stop
         id="stop186"
         offset="0.7843737"
         style="stop-opacity:1;stop-color:#cf3d28" /><stop
         id="stop188"
         offset="0.817288"
         style="stop-opacity:1;stop-color:#b61f29" /><stop
         id="stop190"
         offset="0.96329087"
         style="stop-opacity:1;stop-color:#b61f29" /><stop
         id="stop192"
         offset="1"
         style="stop-opacity:1;stop-color:#67222e" /></linearGradient><linearGradient
       id="linearGradient222"
       spreadMethod="pad"
       gradientTransform="matrix(697.30432,-1375.826,-1375.826,-697.30432,787.2804,1696.7184)"
       gradientUnits="userSpaceOnUse"
       y2="0"
       x2="1"
       y1="0"
       x1="0"><stop
         id="stop200"
         offset="0"
         style="stop-opacity:1;stop-color:#bcaf3c" /><stop
         id="stop202"
         offset="0.051388"
         style="stop-opacity:1;stop-color:#f17818" /><stop
         id="stop204"
         offset="0.255773"
         style="stop-opacity:1;stop-color:#f17818" /><stop
         id="stop206"
         offset="0.29676438"
         style="stop-opacity:1;stop-color:#f25b1c" /><stop
         id="stop208"
         offset="0.459799"
         style="stop-opacity:1;stop-color:#f25b1c" /><stop
         id="stop210"
         offset="0.49870873"
         style="stop-opacity:1;stop-color:#cf3d28" /><stop
         id="stop212"
         offset="0.653464"
         style="stop-opacity:1;stop-color:#cf3d28" /><stop
         id="stop214"
         offset="0.7843737"
         style="stop-opacity:1;stop-color:#cf3d28" /><stop
         id="stop216"
         offset="0.817288"
         style="stop-opacity:1;stop-color:#b61f29" /><stop
         id="stop218"
         offset="0.96329087"
         style="stop-opacity:1;stop-color:#b61f29" /><stop
         id="stop220"
         offset="1"
         style="stop-opacity:1;stop-color:#67222e" /></linearGradient><linearGradient
       id="linearGradient250"
       spreadMethod="pad"
       gradientTransform="matrix(697.30432,-1375.826,-1375.826,-697.30432,619.44238,1611.6537)"
       gradientUnits="userSpaceOnUse"
       y2="0"
       x2="1"
       y1="0"
       x1="0"><stop
         id="stop228"
         offset="0"
         style="stop-opacity:1;stop-color:#bcaf3c" /><stop
         id="stop230"
         offset="0.051388"
         style="stop-opacity:1;stop-color:#f17818" /><stop
         id="stop232"
         offset="0.255773"
         style="stop-opacity:1;stop-color:#f17818" /><stop
         id="stop234"
         offset="0.29676438"
         style="stop-opacity:1;stop-color:#f25b1c" /><stop
         id="stop236"
         offset="0.459799"
         style="stop-opacity:1;stop-color:#f25b1c" /><stop
         id="stop238"
         offset="0.49870873"
         style="stop-opacity:1;stop-color:#cf3d28" /><stop
         id="stop240"
         offset="0.653464"
         style="stop-opacity:1;stop-color:#cf3d28" /><stop
         id="stop242"
         offset="0.7843737"
         style="stop-opacity:1;stop-color:#cf3d28" /><stop
         id="stop244"
         offset="0.817288"
         style="stop-opacity:1;stop-color:#b61f29" /><stop
         id="stop246"
         offset="0.96329087"
         style="stop-opacity:1;stop-color:#b61f29" /><stop
         id="stop248"
         offset="1"
         style="stop-opacity:1;stop-color:#67222e" /></linearGradient><linearGradient
       id="linearGradient278"
       spreadMethod="pad"
       gradientTransform="matrix(697.30432,-1375.826,-1375.826,-697.30432,238.08615,1418.3724)"
       gradientUnits="userSpaceOnUse"
       y2="0"
       x2="1"
       y1="0"
       x1="0"><stop
         id="stop256"
         offset="0"
         style="stop-opacity:1;stop-color:#bcaf3c" /><stop
         id="stop258"
         offset="0.051388"
         style="stop-opacity:1;stop-color:#f17818" /><stop
         id="stop260"
         offset="0.255773"
         style="stop-opacity:1;stop-color:#f17818" /><stop
         id="stop262"
         offset="0.29676438"
         style="stop-opacity:1;stop-color:#f25b1c" /><stop
         id="stop264"
         offset="0.459799"
         style="stop-opacity:1;stop-color:#f25b1c" /><stop
         id="stop266"
         offset="0.49870873"
         style="stop-opacity:1;stop-color:#cf3d28" /><stop
         id="stop268"
         offset="0.653464"
         style="stop-opacity:1;stop-color:#cf3d28" /><stop
         id="stop270"
         offset="0.7843737"
         style="stop-opacity:1;stop-color:#cf3d28" /><stop
         id="stop272"
         offset="0.817288"
         style="stop-opacity:1;stop-color:#b61f29" /><stop
         id="stop274"
         offset="0.96329087"
         style="stop-opacity:1;stop-color:#b61f29" /><stop
         id="stop276"
         offset="1"
         style="stop-opacity:1;stop-color:#67222e" /></linearGradient><linearGradient
       id="linearGradient306"
       spreadMethod="pad"
       gradientTransform="matrix(697.30432,-1375.826,-1375.826,-697.30432,450.98395,1526.2747)"
       gradientUnits="userSpaceOnUse"
       y2="0"
       x2="1"
       y1="0"
       x1="0"><stop
         id="stop284"
         offset="0"
         style="stop-opacity:1;stop-color:#bcaf3c" /><stop
         id="stop286"
         offset="0.051388"
         style="stop-opacity:1;stop-color:#f17818" /><stop
         id="stop288"
         offset="0.255773"
         style="stop-opacity:1;stop-color:#f17818" /><stop
         id="stop290"
         offset="0.29676438"
         style="stop-opacity:1;stop-color:#f25b1c" /><stop
         id="stop292"
         offset="0.459799"
         style="stop-opacity:1;stop-color:#f25b1c" /><stop
         id="stop294"
         offset="0.49870873"
         style="stop-opacity:1;stop-color:#cf3d28" /><stop
         id="stop296"
         offset="0.653464"
         style="stop-opacity:1;stop-color:#cf3d28" /><stop
         id="stop298"
         offset="0.7843737"
         style="stop-opacity:1;stop-color:#cf3d28" /><stop
         id="stop300"
         offset="0.817288"
         style="stop-opacity:1;stop-color:#b61f29" /><stop
         id="stop302"
         offset="0.96329087"
         style="stop-opacity:1;stop-color:#b61f29" /><stop
         id="stop304"
         offset="1"
         style="stop-opacity:1;stop-color:#67222e" /></linearGradient><linearGradient
       id="linearGradient334"
       spreadMethod="pad"
       gradientTransform="matrix(697.30432,-1375.826,-1375.826,-697.30432,123.38104,1360.2369)"
       gradientUnits="userSpaceOnUse"
       y2="0"
       x2="1"
       y1="0"
       x1="0"><stop
         id="stop312"
         offset="0"
         style="stop-opacity:1;stop-color:#bcaf3c" /><stop
         id="stop314"
         offset="0.051388"
         style="stop-opacity:1;stop-color:#f17818" /><stop
         id="stop316"
         offset="0.255773"
         style="stop-opacity:1;stop-color:#f17818" /><stop
         id="stop318"
         offset="0.29676438"
         style="stop-opacity:1;stop-color:#f25b1c" /><stop
         id="stop320"
         offset="0.459799"
         style="stop-opacity:1;stop-color:#f25b1c" /><stop
         id="stop322"
         offset="0.49870873"
         style="stop-opacity:1;stop-color:#cf3d28" /><stop
         id="stop324"
         offset="0.653464"
         style="stop-opacity:1;stop-color:#cf3d28" /><stop
         id="stop326"
         offset="0.7843737"
         style="stop-opacity:1;stop-color:#cf3d28" /><stop
         id="stop328"
         offset="0.817288"
         style="stop-opacity:1;stop-color:#b61f29" /><stop
         id="stop330"
         offset="0.96329087"
         style="stop-opacity:1;stop-color:#b61f29" /><stop
         id="stop332"
         offset="1"
         style="stop-opacity:1;stop-color:#67222e" /></linearGradient><linearGradient
       id="linearGradient362"
       spreadMethod="pad"
       gradientTransform="matrix(290.77585,-573.71936,-573.71936,-290.77585,373.84427,1487.1782)"
       gradientUnits="userSpaceOnUse"
       y2="0"
       x2="1"
       y1="0"
       x1="0"><stop
         id="stop340"
         offset="0"
         style="stop-opacity:1;stop-color:#bcaf3c" /><stop
         id="stop342"
         offset="0.051388"
         style="stop-opacity:1;stop-color:#f17818" /><stop
         id="stop344"
         offset="0.255773"
         style="stop-opacity:1;stop-color:#f17818" /><stop
         id="stop346"
         offset="0.29676438"
         style="stop-opacity:1;stop-color:#f25b1c" /><stop
         id="stop348"
         offset="0.459799"
         style="stop-opacity:1;stop-color:#f25b1c" /><stop
         id="stop350"
         offset="0.49870873"
         style="stop-opacity:1;stop-color:#cf3d28" /><stop
         id="stop352"
         offset="0.653464"
         style="stop-opacity:1;stop-color:#cf3d28" /><stop
         id="stop354"
         offset="0.7843737"
         style="stop-opacity:1;stop-color:#cf3d28" /><stop
         id="stop356"
         offset="0.817288"
         style="stop-opacity:1;stop-color:#b61f29" /><stop
         id="stop358"
         offset="0.96329087"
         style="stop-opacity:1;stop-color:#b61f29" /><stop
         id="stop360"
         offset="1"
         style="stop-opacity:1;stop-color:#67222e" /></linearGradient><linearGradient
       id="linearGradient390"
       spreadMethod="pad"
       gradientTransform="matrix(697.30432,-1375.826,-1375.826,-697.30432,468.63812,1535.2222)"
       gradientUnits="userSpaceOnUse"
       y2="0"
       x2="1"
       y1="0"
       x1="0"><stop
         id="stop368"
         offset="0"
         style="stop-opacity:1;stop-color:#bcaf3c" /><stop
         id="stop370"
         offset="0.051388"
         style="stop-opacity:1;stop-color:#f17818" /><stop
         id="stop372"
         offset="0.255773"
         style="stop-opacity:1;stop-color:#f17818" /><stop
         id="stop374"
         offset="0.29676438"
         style="stop-opacity:1;stop-color:#f25b1c" /><stop
         id="stop376"
         offset="0.459799"
         style="stop-opacity:1;stop-color:#f25b1c" /><stop
         id="stop378"
         offset="0.49870873"
         style="stop-opacity:1;stop-color:#cf3d28" /><stop
         id="stop380"
         offset="0.653464"
         style="stop-opacity:1;stop-color:#cf3d28" /><stop
         id="stop382"
         offset="0.7843737"
         style="stop-opacity:1;stop-color:#cf3d28" /><stop
         id="stop384"
         offset="0.817288"
         style="stop-opacity:1;stop-color:#b61f29" /><stop
         id="stop386"
         offset="0.96329087"
         style="stop-opacity:1;stop-color:#b61f29" /><stop
         id="stop388"
         offset="1"
         style="stop-opacity:1;stop-color:#67222e" /></linearGradient></defs><g
     transform="matrix(1.3333333,0,0,-1.3333333,0,2000)"
     id="g10"><g
       id="g12"><g
         clip-path="url(#clipPath18)"
         id="g14"><g
           id="g20"><g
             id="g22" /><g
             id="g524"><g
               id="g522"
               clip-path="url(#clipPath26)"><g
                 id="g400"><g
                   id="g398"><g
                     id="g396"><g
                       id="g394"><path
                         id="path392"
                         style="fill:url(#linearGradient54);stroke:none"
                         d="m 1360.453,303.211 c 15.24,-6.12 -9.47,-2.32 -37.97,-2.47 -14.32,-0.08 -28.84,-0.2 -46.57,-0.26 -31.34,-0.11 -58.73,-2.91 -85.04,-4.7 -14.01,-0.95 -40.42,1.43 -53.42,7.43 -14,6 -32.41,17.35 -41.34,24.69 -5.64,4.63 -15.76,16.62 -24.46,26.22 -5.8,6.4 -10.77,13.41 -20.7,16.08 l -87.06,13.35 c -5.83,0.32 -10.07,-0.48 -14.2,-3.51 -58.37,-42.88 -33.13,-141.73 -34.56,-142.33 -54.69,96.59 -14.28,135.8 -7.06,141.75 1.41,1.15 2.65,2.52 3.58,4.09 2.4,4.05 1.98,7.7 0.77,10.51 -1.45,3.36 -4.43,5.84 -7.95,6.85 -35.48,10.17 -76.06,13 -113.65,10.31 -18.18,-1.31 -37.24,-5.37 -53.34,-9.79 -51.98,-14.25 -89.61,-41.47 -89.61,-41.47 19.91,26.74 90.56,52.4 116.03,60.81 5.63,1.86 11.4,3.22 17.27,4.05 17.44,2.46 58.47,6.67 114.13,2.15 75.05,-6.11 147.13,-31.83 147.13,-31.83 11.04,-3.01 22.26,-4.15 30.94,-4.52 9.78,-0.42 19.56,1.04 28.76,4.38 38.94,14.13 42.06,28.54 39.52,41.18 -0.62,3.12 -3.21,5.47 -6.39,5.71 -53.16,3.97 -91.55,12.01 -146.76,33.04 -19.5,7.43 -65.79,9.8 -74.94,10.21 -20.84,0.94 -24.66,5.07 -24.66,5.2 16.46,7.55 74.52,2.34 97.85,0.16 5.65,-0.53 11.2,-1.77 16.55,-3.68 51.37,-18.37 147.08,-30.22 163.3,-24.69 5.72,1.95 11.57,3.46 16.52,6.94 21.23,14.99 82.2,61.16 59.92,82.46 -26.8,25.63 -23.48,36.65 -23.48,36.65 0,0 0.4,4.01 14.61,-3.91 19.02,-10.6 77.23,13.18 48.52,31.57 -41.8,26.76 -81.34,140.63 -82.17,148.43 -0.87,8.17 -3.46,90.67 -3.91,114 -0.09,4.12 -3.58,8.96 -5.61,12.72 -87.73,162.56 -195.7,225.94 -228.47,233.87 -0.37,0.09 -0.73,0.19 -1.08,0.3 -65.05,20.31 -107.95,8.73 -107.95,8.73 -5.02,-0.98 -7.88,-8.71 -6.54,-19.04 0.17,-1.29 -2.01,-1.38 -2.45,-0.15 -0.57,1.72 -1.48,3.41 -2.45,5.08 -0.97,1.67 -2,3.31 -2.85,4.91 -17.42,33.23 -36.05,61.97 -62.6,92.25 -12.41,14.15 -19.41,23.28 -32.48,35.22 -9.75,8.91 -24.41,19.83 -33.85,26.41 -10.54,7.36 -24.2,7.28 -31.79,6.49 -3.98,-0.41 -7.73,-2.07 -10.66,-4.79 -27.39,-25.37 -62.28,-112.78 -72.98,-155.67 -3.53,-14.12 -5.87,-23.97 -5.87,-23.97 -1.94,-9.54 0.11,0.68 -4.7,-27 -1.32,-7.61 0,0 -2.74,-15.36 -1.53,-8.59 -0.72,-47.48 -0.72,-47.48 0.79,-29.93 11.16,-86.87 11.16,-86.87 5.7,-27.65 18.58,-49.11 18.58,-49.11 -9.78,0.2 -47.54,73.57 -53.02,84.72 -4.64,9.45 -13.72,9.76 -16.67,9.55 -0.67,-0.05 -1.35,-0.07 -2.03,-0.09 -50.83,-0.87 -125.3,-81.55 -126.46,-82.82 26.21,64.17 95.07,96.84 113.99,111.9 18.91,15.07 15.72,69.99 -15.78,57.86 -12.61,-4.86 -47.1,-28 -81.01,-58.25 -14.33,-12.78 -32,-26.43 -45.39,-39.52 -34.05,-33.28 -57.91,-62.61 -57.91,-62.61 -43.43,-55.95 -49.44,-66.54 -80.61,-136.95 -32.8,-74.12 -43.43,-126.79 -43.43,-126.79 0,0 -12.85,-56.38 -10.96,-170.21 1.46,-88.03 30,-199.44 30,-199.44 6.52,-29.87 21.65,-65.48 21.65,-65.48 l 30.92,-68.87 c 17.6,-39.52 49.3,-91.17 49.3,-91.17 -13.3,12.91 -20.74,23.09 -44.61,54 -23.87,30.91 -10.96,15.26 -33.65,49.3 -22.7,34.05 -34.83,65.35 -34.83,65.35 l -25.82,69.26 c 0,0 -10.96,22.31 -19.18,76.31 -8.21,54 -1.73,3.06 -10.23,83.35 -7.5,80.21 -0.24,121.26 0.06,128.73 0.3,7.45 3.5,47.8 12.13,86.48 8.34,37.42 18.26,67.54 35.22,116.61 12.56,38 33.41,77.89 42.45,92.71 2.22,3.62 4.3,7.32 6.27,11.08 7.16,13.69 31.64,52.78 65.93,90.69 30.32,33.51 52.43,50.48 96.26,88.83 43.83,38.34 116.49,72.77 116.49,72.77 9.81,6.1 14.81,17.1 18.81,27.1 16.38,47.2 38.67,91.11 62.64,134.5 1.53,2.77 3.35,5.35 5.3,7.84 11.65,14.91 5.94,35.84 4.06,53.66 -3,39 -24,74 -54,100 -1,1 -2.5,1.93 -3.5,2.93 -22,19 -47.5,31.07 -73.1,43.76 2.28,-1.02 2.45,-0.53 0,0 31.6,-6.69 60.6,-18.69 89.6,-37.69 5,-4 36.49,-29.42 43,-36 20.44,-20.68 32,-46 43,-72 3,-5 5,-11 11,-13 25,-7 45,-23 65,-39 14,-13 25.16,-26.68 38.16,-40.68 1,-1 1.84,-2.32 2.84,-3.32 13,-14 20.86,-29.49 29.86,-45.49 3,-5 6.26,-10.91 8.51,-15.75 4.54,-9.77 7.21,-19.22 13.21,-29.22 3,-5 7.82,-3.95 12.82,-3.95 12,0 22.65,0.87 33.65,5.87 4.81,1.98 9.43,4.01 12.32,5.29 1.44,0.63 26.13,10.72 30.13,12.32 2.49,0.99 4.95,2.06 7.36,3.22 33.8,16.28 47.74,23.04 80.59,42.37 24,15 46.5,28.44 67.5,47.44 5.58,5.59 8.76,12.05 11.31,19.45 2.43,7.04 3.84,14.39 4.29,21.82 0.99,16.29 3.13,32.85 1.62,49.32 -0.34,3.68 -3.4,22.39 -5.58,56.64 -0.42,6.66 -4.04,23.49 -7.43,31.5 -7.39,17.44 -18.92,36.14 -19.18,39.13 0.11,0 16.61,-19.64 29.45,-45.88 3.92,-8.02 7.04,-12.84 9.78,-21.23 5.02,-15.35 9.44,-35.65 11.35,-45.19 1.45,-7.25 3.22,-19.08 3.23,-26.61 0.01,-15.89 -0.11,-30.45 -0.79,-46.05 0,-4 3,-8 4,-12 5,-10 9.48,-18.8 10.48,-29.8 3,-34 5.52,-67.2 1.52,-101.2 -4,-28 -9,-53 -27,-77 -4,-6 -6.01,-13.21 -2.01,-19.21 1,-1 1.84,-2.13 2.84,-3.13 0.83,-0.83 5.77,-4.87 6.71,-5.62 0.01,-0.01 0.02,-0.01 0.02,-0.01 0.03,-0.03 0.05,-0.04 0.07,-0.06 0.01,-0.01 0.03,-0.02 0.04,-0.03 l 0.01,-0.01 c 1.82,-1.53 4.2,-3.52 7.06,-5.91 19,-15 28.37,-30.74 45.37,-47.74 1,-1 2.89,-3.28 3.89,-4.28 11.57,-12.54 18.96,-27.17 28.46,-41.63 0.53,-0.81 1.46,-2.09 2.04,-2.87 3.53,-4.74 6.75,-10 9.5,-15.5 10.97,-19.2 23.61,-36.72 30.28,-57.15 1.14,-3.48 1.73,-7.14 1.71,-10.81 -0.24,-34.18 -2.66,-66.75 4.01,-102.04 8,-38 23.57,-70.58 47,-102 3.32,-4.45 7,-9 11,-13 13,-13 25,-22 41,-32 8,-6 10,-16 6,-25 -11,-24 -24,-46 -44,-63 -10,-8 -21,-10 -31,-18 -5,-4 -8,-9 -11,-14 -13.29,-21.84 -27.65,-40.95 -47.82,-56.62 -2.18,-1.7 -4.67,-3.5 -7.24,-4.5 -0.77,-0.3 -1.92,-0.81 -3.01,-1.29 -1.08,-0.48 -2.11,-0.93 -2.62,-1.11 -8.67,-3.07 -14.41,-6.32 -19.94,-12.77 -8,-10 -14.56,-22.77 -22.56,-32.77 -7,-8 -14.65,-14.41 -24.65,-17.41 -8,-3 -21.2,-10.55 -18.2,-20.55 3,-12 17.04,-17.98 27.04,-23.98 15,-9 32,-13 49,-15 56,-5 112,5 166,-13" /></g></g></g></g><g
                 id="g410"><g
                   id="g408"><g
                     id="g406"><g
                       id="g404"><path
                         id="path402"
                         style="fill:url(#linearGradient82);stroke:none"
                         d="m 1248.003,222.221 c 0,0 114.23,-11.48 114.23,-35.48 0,0 -166.41,33.39 -306.23,-52.18 -139.83,-85.56 -330.26,-117.39 -330.26,-117.39 0,0 -105.92,-21.39 -188.87,0 -82.96,21.39 -147.66,80.87 -147.66,80.87 0,0 -25.04,26.61 -49.56,69.39 0,0 107.48,-111.13 196.7,-112.69 89.21,-1.57 89.21,-9.39 199.3,16.17 110.09,25.57 331.83,122.24 331.83,122.24 0,0 50.08,31.67 180.52,29.07" /></g></g></g></g><g
                 id="g420"><g
                   id="g418"><g
                     id="g416"><g
                       id="g414"><path
                         id="path412"
                         style="fill:url(#linearGradient110);stroke:none"
                         d="m 1113.033,1057.231 c 0.02,-0.02 0.04,-0.03 0.05,-0.05 -0.02,0.02 -0.04,0.03 -0.07,0.06 0.01,0 0.01,-0.01 0.02,-0.01" /></g></g></g></g><g
                 id="g430"><g
                   id="g428"><g
                     id="g426"><g
                       id="g424"><path
                         id="path422"
                         style="fill:url(#linearGradient138);stroke:none"
                         d="m 1112.603,1057.591 c 0.13,-0.11 0.27,-0.22 0.41,-0.35 0,0 -0.01,0 -0.02,0.01 -0.14,0.12 -0.27,0.23 -0.39,0.34" /></g></g></g></g><g
                 id="g440"><g
                   id="g438"><g
                     id="g436"><g
                       id="g434"><path
                         id="path432"
                         style="fill:url(#linearGradient166);stroke:none"
                         d="m 1110.843,1059.061 c 0.35,-0.28 0.75,-0.62 1.2,-1 -0.45,0.37 -0.85,0.71 -1.2,1" /></g></g></g></g><g
                 id="g450"><g
                   id="g448"><g
                     id="g446"><g
                       id="g444"><path
                         id="path442"
                         style="fill:url(#linearGradient194);stroke:none"
                         d="m 1110.473,1059.381 c 0.11,-0.09 0.22,-0.19 0.34,-0.29 -0.12,0.1 -0.23,0.19 -0.34,0.29" /></g></g></g></g><g
                 id="g460"><g
                   id="g458"><g
                     id="g456"><g
                       id="g454"><path
                         id="path452"
                         style="fill:url(#linearGradient222);stroke:none"
                         d="m 1110.293,1059.531 c -0.09,0.07 -0.17,0.14 -0.24,0.2 0.08,-0.06 0.16,-0.13 0.24,-0.2" /></g></g></g></g><g
                 id="g470"><g
                   id="g468"><g
                     id="g466"><g
                       id="g464"><path
                         id="path462"
                         style="fill:url(#linearGradient250);stroke:none"
                         d="m 1105.323,765.351 c 0.23,-0.39 -0.13,-0.85 -0.56,-0.72 l -13.63,4.08 c -3.2,0.95 -6.5,1.49 -9.83,1.59 -5.54,0.16 -13.98,0.27 -17.15,-0.45 -1.88,-0.43 -8.41,-4.31 -11.67,-5.58 -3.27,-1.27 -16.31,-1.01 -22.83,0.55 -6.52,1.57 -71.22,65.61 -71.22,65.61 0,0 99.99,-0.41 102.26,-0.58 2.33,-0.18 10.31,-5.69 10.57,-8.22 0.2,-1.95 2.14,-8.52 2.61,-9.85 0.46,-1.32 1.61,-7.55 2.28,-9.52 0.53,-1.57 3.51,-6.46 4.3,-7.63 0.79,-1.18 4.76,-5.81 6.59,-8.28 1.82,-2.47 4.43,-4.57 3.01,-3.26 0.87,-0.78 7.8,-7.03 9.19,-8.42 1.22,-1.22 4.66,-6.92 6.08,-9.32" /></g></g></g></g><g
                 id="g480"><g
                   id="g478"><g
                     id="g476"><g
                       id="g474"><path
                         id="path472"
                         style="fill:url(#linearGradient278);stroke:none"
                         d="m 751.003,380.041 c 0,0 45.95,-182.35 169.21,-170.22 0,0 -156.91,-35.6 -209.34,151.44 0,0 5.71,14.67 40.13,18.78" /></g></g></g></g><g
                 id="g490"><g
                   id="g488"><g
                     id="g486"><g
                       id="g484"><path
                         id="path482"
                         style="fill:url(#linearGradient306);stroke:none"
                         d="m 752.353,1114.911 c 17.4,-6.74 13.74,-50.74 12.24,-64.36 -0.25,-2.31 -1.77,-4.3 -3.95,-5.09 -36.71,-13.19 -92.49,-134.7 -92.84,-138.25 -0.7,2.84 -51.5,151.65 24.37,281.25 0.82,1.4 2.75,2.24 4.08,1.32 6.57,-4.54 26.95,-12.94 26.55,-16.96 -7.6,-76.88 3.63,-47.88 29.55,-57.91" /></g></g></g></g><g
                 id="g500"><g
                   id="g498"><g
                     id="g496"><g
                       id="g494"><path
                         id="path492"
                         style="fill:url(#linearGradient334);stroke:none"
                         d="m 565.683,478.681 c 32.54,46.7 114.41,94.65 117.8,88.41 -151.39,-126.92 -184.11,-298.69 -151.31,-259.31 47.37,56.85 134.29,94.73 137.15,95.97 -69.91,-32.43 -176.8,-191.97 -176.8,-191.97 -3.13,118.44 39.13,218.61 39.13,218.61 0.26,40.17 4.17,69.65 4.17,69.65 18.64,145.98 133.06,199.64 134.85,200.47 -69.01,-62.24 -99.18,-144.19 -116.73,-198.49 -1.64,-5.06 -2.61,-10.32 -2.74,-15.64 -0.31,-13.13 4.38,-14.61 8.51,-12.76 2.42,1.09 4.45,2.89 5.97,5.06" /></g></g></g></g><g
                 id="g510"><g
                   id="g508"><g
                     id="g506"><g
                       id="g504"><path
                         id="path502"
                         style="fill:url(#linearGradient362);stroke:none"
                         d="m 667.803,907.211 c 0.01,-0.04 0.02,-0.07 0.02,-0.08 -0.02,0 -0.03,0.03 -0.02,0.08" /></g></g></g></g><g
                 id="g520"><g
                   id="g518"><g
                     id="g516"><g
                       id="g514"><path
                         id="path512"
                         style="fill:url(#linearGradient390);stroke:none"
                         d="m 489.853,1491.901 c 2.45,-0.53 2.28,-1.02 0,0" /></g></g></g></g></g></g></g><g
           transform="translate(1362.2327,186.7413)"
           id="g526"><path
             id="path528"
             style="fill:none;stroke:#231f20;stroke-width:0.5;stroke-linecap:round;stroke-linejoin:round;stroke-miterlimit:4;stroke-dasharray:none;stroke-opacity:1"
             d="m 0,0 c 0,0 -166.41,33.39 -306.23,-52.18 -139.83,-85.56 -330.26,-117.39 -330.26,-117.39 0,0 -105.92,-21.39 -188.87,0 -82.96,21.39 -147.66,80.87 -147.66,80.87 0,0 -25.04,26.61 -49.56,69.39 0,0 107.48,-111.13 196.7,-112.69 89.21,-1.57 89.21,-9.39 199.3,16.17 110.09,25.57 331.83,122.24 331.83,122.24 0,0 50.08,31.67 180.52,29.07 C -114.23,35.48 0,24 0,0 Z" /></g><g
           transform="translate(751.0026,380.0413)"
           id="g530"><path
             id="path532"
             style="fill:none;stroke:#231f20;stroke-width:0.5;stroke-linecap:round;stroke-linejoin:round;stroke-miterlimit:4;stroke-dasharray:none;stroke-opacity:1"
             d="m 0,0 c 0,0 45.95,-182.35 169.21,-170.22 0,0 -156.91,-35.6 -209.34,151.44 0,0 5.71,14.67 40.13,18.78 z" /></g><g
           transform="translate(1112.6027,1057.5913)"
           id="g534"><path
             id="path536"
             style="fill:none;stroke:#231f20;stroke-width:0.5;stroke-linecap:round;stroke-linejoin:round;stroke-miterlimit:4;stroke-dasharray:none;stroke-opacity:1"
             d="M 0,0 C 0.12,-0.11 0.25,-0.22 0.39,-0.34" /></g><g
           transform="translate(1110.8427,1059.0613)"
           id="g538"><path
             id="path540"
             style="fill:none;stroke:#231f20;stroke-width:0.5;stroke-linecap:round;stroke-linejoin:round;stroke-miterlimit:4;stroke-dasharray:none;stroke-opacity:1"
             d="M 0,0 C 0.35,-0.29 0.75,-0.63 1.2,-1" /></g><g
           transform="translate(1110.4727,1059.3813)"
           id="g542"><path
             id="path544"
             style="fill:none;stroke:#231f20;stroke-width:0.5;stroke-linecap:round;stroke-linejoin:round;stroke-miterlimit:4;stroke-dasharray:none;stroke-opacity:1"
             d="M 0,0 C 0.11,-0.1 0.22,-0.19 0.34,-0.29" /></g><g
           transform="translate(1108.8727,1060.7213)"
           id="g546"><path
             id="path548"
             style="fill:none;stroke:#231f20;stroke-width:0.5;stroke-linecap:round;stroke-linejoin:round;stroke-miterlimit:4;stroke-dasharray:none;stroke-opacity:1"
             d="m 0,0 0.01,-0.01 h 0.01 c 0.01,-0.01 0.02,-0.02 0.03,-0.03 0,0 0.01,-0.01 0.02,-0.01 0.01,-0.01 0.02,-0.03 0.04,-0.04 0.01,-0.01 0.02,-0.02 0.04,-0.03 L 0.19,-0.16 C 0.21,-0.18 0.23,-0.2 0.26,-0.21 0.27,-0.22 0.28,-0.23 0.3,-0.25 0.33,-0.28 0.36,-0.3 0.4,-0.33 l 0.03,-0.03 c 0.04,-0.04 0.09,-0.08 0.14,-0.12 0.06,-0.05 0.12,-0.1 0.19,-0.16 0,0 0.01,-0.01 0.02,-0.01 C 0.83,-0.7 0.89,-0.74 0.95,-0.8 0.98,-0.82 1,-0.84 1.02,-0.85 1.07,-0.89 1.13,-0.94 1.18,-0.99 1.25,-1.05 1.33,-1.12 1.42,-1.19" /></g><g
           transform="translate(1110.2926,1059.5313)"
           id="g550"><path
             id="path552"
             style="fill:none;stroke:#231f20;stroke-width:0.5;stroke-linecap:round;stroke-linejoin:round;stroke-miterlimit:4;stroke-dasharray:none;stroke-opacity:1"
             d="M 0,0 C -0.08,0.07 -0.16,0.14 -0.24,0.2" /></g><g
           transform="translate(1110.2926,1059.5313)"
           id="g554"><path
             id="path556"
             style="fill:none;stroke:#231f20;stroke-width:0.5;stroke-linecap:round;stroke-linejoin:round;stroke-miterlimit:4;stroke-dasharray:none;stroke-opacity:1"
             d="M 0,0 C 0.06,-0.05 0.12,-0.1 0.18,-0.15" /></g><g
           transform="translate(1112.0426,1058.0613)"
           id="g558"><path
             id="path560"
             style="fill:none;stroke:#231f20;stroke-width:0.5;stroke-linecap:round;stroke-linejoin:round;stroke-miterlimit:4;stroke-dasharray:none;stroke-opacity:1"
             d="m 0,0 c -0.45,0.38 -0.85,0.72 -1.2,1 -0.01,0.02 -0.02,0.03 -0.03,0.03 -0.12,0.1 -0.23,0.2 -0.34,0.29" /></g><g
           transform="translate(1112.0426,1058.0613)"
           id="g562"><path
             id="path564"
             style="fill:none;stroke:#231f20;stroke-width:0.5;stroke-linecap:round;stroke-linejoin:round;stroke-miterlimit:4;stroke-dasharray:none;stroke-opacity:1"
             d="M 0,0 C 0.05,-0.04 0.11,-0.09 0.16,-0.14 0.26,-0.23 0.37,-0.31 0.48,-0.4 0.5,-0.42 0.53,-0.44 0.56,-0.47" /></g><g
           transform="translate(1113.0127,1057.2413)"
           id="g566"><path
             id="path568"
             style="fill:none;stroke:#231f20;stroke-width:0.5;stroke-linecap:round;stroke-linejoin:round;stroke-miterlimit:4;stroke-dasharray:none;stroke-opacity:1"
             d="M 0,0 C -0.14,0.13 -0.28,0.24 -0.41,0.35" /></g><g
           transform="translate(1113.0127,1057.2413)"
           id="g570"><path
             id="path572"
             style="fill:none;stroke:#231f20;stroke-width:0.5;stroke-linecap:round;stroke-linejoin:round;stroke-miterlimit:4;stroke-dasharray:none;stroke-opacity:1"
             d="M 0,0 C 0.01,0 0.01,-0.01 0.02,-0.01 0.04,-0.03 0.06,-0.04 0.07,-0.06" /></g><g
           transform="translate(489.8526,1491.9012)"
           id="g574"><path
             id="path576"
             style="fill:none;stroke:#231f20;stroke-width:0.5;stroke-linecap:round;stroke-linejoin:round;stroke-miterlimit:4;stroke-dasharray:none;stroke-opacity:1"
             d="m 0,0 c 31.6,-6.69 60.6,-18.69 89.6,-37.69 5,-4 36.49,-29.42 43,-36 20.44,-20.68 32,-46 43,-72 3,-5 5,-11 11,-13 25,-7 45,-23 65,-39 14,-13 25.16,-26.68 38.16,-40.68 1,-1 1.84,-2.32 2.84,-3.32 13,-14 20.86,-29.49 29.86,-45.49 3,-5 6.26,-10.91 8.51,-15.75 4.54,-9.77 7.21,-19.22 13.21,-29.22 3,-5 7.82,-3.95 12.82,-3.95 12,0 22.65,0.87 33.65,5.87 4.81,1.98 9.43,4.01 12.32,5.29 1.44,0.63 26.13,10.72 30.13,12.32 2.49,0.99 4.95,2.06 7.36,3.22 33.8,16.28 47.74,23.04 80.59,42.37 24,15 46.5,28.44 67.5,47.44 5.58,5.59 8.76,12.05 11.31,19.45 2.43,7.04 3.84,14.39 4.29,21.82 0.99,16.29 3.13,32.85 1.62,49.32 -0.34,3.68 -3.4,22.39 -5.58,56.64 -0.42,6.66 -4.04,23.49 -7.43,31.5 -7.39,17.44 -18.92,36.14 -19.18,39.13 0.11,0 16.61,-19.64 29.45,-45.88 3.92,-8.02 7.04,-12.84 9.78,-21.23 5.02,-15.35 9.44,-35.65 11.35,-45.19 1.45,-7.25 3.22,-19.08 3.23,-26.61 0.01,-15.89 -0.11,-30.45 -0.79,-46.05 0,-4 3,-8 4,-12 5,-10 9.48,-18.8 10.48,-29.8 3,-34 5.52,-67.2 1.52,-101.2 -4,-28 -9,-53 -27,-77 -4,-6 -6.01,-13.21 -2.01,-19.21 1,-1 1.84,-2.13 2.84,-3.13 0.83,-0.83 5.77,-4.87 6.71,-5.62 0.01,-0.01 0.02,-0.01 0.02,-0.01 0.03,-0.03 0.05,-0.04 0.07,-0.06" /></g><g
           transform="translate(489.8526,1491.9012)"
           id="g578"><path
             id="path580"
             style="fill:none;stroke:#231f20;stroke-width:0.5;stroke-linecap:round;stroke-linejoin:round;stroke-miterlimit:4;stroke-dasharray:none;stroke-opacity:1"
             d="M 0,0 C 2.45,-0.53 2.28,-1.02 0,0 Z" /></g><g
           transform="translate(412.3826,886.1713)"
           id="g582"><path
             id="path584"
             style="fill:none;stroke:#231f20;stroke-width:0.5;stroke-linecap:round;stroke-linejoin:round;stroke-miterlimit:4;stroke-dasharray:none;stroke-opacity:1"
             d="m 0,0 c 26.21,64.17 95.07,96.84 113.99,111.9 18.91,15.07 15.72,69.99 -15.78,57.86 C 85.6,164.9 51.11,141.76 17.2,111.51 2.87,98.73 -14.8,85.08 -28.19,71.99 -62.24,38.71 -86.1,9.38 -86.1,9.38 c -43.43,-55.95 -49.44,-66.54 -80.61,-136.95 -32.8,-74.12 -43.43,-126.79 -43.43,-126.79 0,0 -12.85,-56.38 -10.96,-170.21 1.46,-88.03 30,-199.44 30,-199.44 6.52,-29.87 21.65,-65.48 21.65,-65.48 l 30.92,-68.87 c 17.6,-39.52 49.3,-91.17 49.3,-91.17 -13.3,12.91 -20.74,23.09 -44.61,54 -23.87,30.91 -10.96,15.26 -33.65,49.3 -22.7,34.05 -34.83,65.35 -34.83,65.35 l -25.82,69.26 c 0,0 -10.96,22.31 -19.18,76.31 -8.21,54 -1.73,3.06 -10.23,83.35 -7.5,80.21 -0.24,121.26 0.06,128.73 0.3,7.45 3.5,47.8 12.13,86.48 8.34,37.42 18.26,67.54 35.22,116.61 12.56,38 33.41,77.89 42.45,92.71 2.22,3.62 4.3,7.32 6.27,11.08 7.16,13.69 31.64,52.78 65.93,90.69 30.32,33.51 52.43,50.48 96.26,88.83 43.83,38.34 116.49,72.77 116.49,72.77 9.81,6.1 14.81,17.1 18.81,27.1 16.38,47.2 38.67,91.11 62.64,134.5 1.53,2.77 3.35,5.35 5.3,7.84 11.65,14.91 5.94,35.84 4.06,53.66 -3,39 -24,74 -54,100 -1,1 -2.5,1.93 -3.5,2.93 -22,19 -47.5,31.07 -73.1,43.76" /></g><g
           transform="translate(1113.0826,1057.1813)"
           id="g586"><path
             id="path588"
             style="fill:none;stroke:#231f20;stroke-width:0.5;stroke-linecap:round;stroke-linejoin:round;stroke-miterlimit:4;stroke-dasharray:none;stroke-opacity:1"
             d="m 0,0 c 0.01,-0.01 0.03,-0.02 0.04,-0.03 l 0.01,-0.01 c 1.82,-1.53 4.2,-3.52 7.06,-5.91 19,-15 28.37,-30.74 45.37,-47.74 1,-1 2.89,-3.28 3.89,-4.28 11.57,-12.54 18.96,-27.17 28.46,-41.63 0.53,-0.81 1.46,-2.09 2.04,-2.87 3.53,-4.74 6.75,-10 9.5,-15.5 10.97,-19.2 23.61,-36.72 30.28,-57.15 1.14,-3.48 1.73,-7.14 1.71,-10.81 -0.24,-34.18 -2.66,-66.75 4.01,-102.04 8,-38 23.57,-70.58 47,-102 3.32,-4.45 7,-9 11,-13 13,-13 25,-22 41,-32 8,-6 10,-16 6,-25 -11,-24 -24,-46 -44,-63 -10,-8 -21,-10 -31,-18 -5,-4 -8,-9 -11,-14 -13.29,-21.84 -27.65,-40.95 -47.82,-56.62 -2.18,-1.7 -4.67,-3.5 -7.24,-4.5 -0.77,-0.3 -1.92,-0.81 -3.01,-1.29 -1.08,-0.48 -2.11,-0.93 -2.62,-1.11 -8.67,-3.07 -14.41,-6.32 -19.94,-12.77 -8,-10 -14.56,-22.77 -22.56,-32.77 -7,-8 -14.65,-14.41 -24.65,-17.41 -8,-3 -21.2,-10.55 -18.2,-20.55 3,-12 17.04,-17.98 27.04,-23.98 15,-9 32,-13 49,-15 56,-5 112,5 166,-13 15.24,-6.12 -9.47,-2.32 -37.97,-2.47 -14.32,-0.08 -28.84,-0.2 -46.57,-0.26 -31.34,-0.11 -58.73,-2.91 -85.04,-4.7 -14.01,-0.95 -40.42,1.43 -53.42,7.43 -14,6 -32.41,17.35 -41.34,24.69 -5.64,4.63 -15.76,16.62 -24.46,26.22 -5.8,6.4 -10.77,13.41 -20.7,16.08 l -87.06,13.35 c -5.83,0.32 -10.07,-0.48 -14.2,-3.51 -58.37,-42.88 -33.13,-141.73 -34.56,-142.33 -54.69,96.59 -14.28,135.8 -7.06,141.75 1.41,1.15 2.65,2.52 3.58,4.09 2.4,4.05 1.98,7.7 0.77,10.51 -1.45,3.36 -4.43,5.84 -7.95,6.85 -35.48,10.17 -76.06,13 -113.65,10.31 -18.18,-1.31 -37.24,-5.37 -53.34,-9.79 -51.98,-14.25 -89.61,-41.47 -89.61,-41.47 19.91,26.74 90.56,52.4 116.03,60.81 5.63,1.86 11.4,3.22 17.27,4.05 17.44,2.46 58.47,6.67 114.13,2.15 75.05,-6.11 147.13,-31.83 147.13,-31.83 11.04,-3.01 22.26,-4.15 30.94,-4.52 9.78,-0.42 19.56,1.04 28.76,4.38 38.94,14.13 42.06,28.54 39.52,41.18 -0.62,3.12 -3.21,5.47 -6.39,5.71 -53.16,3.97 -91.55,12.01 -146.76,33.04 -19.5,7.43 -65.79,9.8 -74.94,10.21 -20.84,0.94 -24.66,5.07 -24.66,5.2 16.46,7.55 74.52,2.34 97.85,0.16 5.65,-0.53 11.2,-1.77 16.55,-3.68 51.37,-18.37 147.08,-30.22 163.3,-24.69 5.72,1.95 11.57,3.46 16.52,6.94 21.23,14.99 82.2,61.16 59.92,82.46 -26.8,25.63 -23.48,36.65 -23.48,36.65 0,0 0.4,4.01 14.61,-3.91 19.02,-10.6 77.23,13.18 48.52,31.57 -41.8,26.76 -81.34,140.63 -82.17,148.43 -0.87,8.17 -3.46,90.67 -3.91,114 -0.09,4.12 -3.58,8.96 -5.61,12.72 -87.73,162.56 -195.7,225.94 -228.47,233.87 -0.37,0.09 -0.73,0.19 -1.08,0.3 -65.05,20.31 -107.95,8.73 -107.95,8.73 -5.02,-0.98 -7.88,-8.71 -6.54,-19.04 0.17,-1.29 -2.01,-1.38 -2.45,-0.15 -0.57,1.72 -1.48,3.41 -2.45,5.08 -0.97,1.67 -2,3.31 -2.85,4.91 -17.42,33.23 -36.05,61.97 -62.6,92.25 -12.41,14.15 -19.41,23.28 -32.48,35.22 -9.75,8.91 -24.41,19.83 -33.85,26.41 -10.54,7.36 -24.2,7.28 -31.79,6.49 -3.98,-0.41 -7.73,-2.07 -10.66,-4.79 -27.39,-25.37 -62.28,-112.78 -72.98,-155.67 -3.53,-14.12 -5.87,-23.97 -5.87,-23.97 -1.94,-9.54 0.11,0.68 -4.7,-27 -1.32,-7.61 0,0 -2.74,-15.36 -1.53,-8.59 -0.72,-47.48 -0.72,-47.48 0.79,-29.93 11.16,-86.87 11.16,-86.87 5.7,-27.65 18.58,-49.11 18.58,-49.11 -9.78,0.2 -47.54,73.57 -53.02,84.72 -4.64,9.45 -13.72,9.76 -16.67,9.55 -0.67,-0.05 -1.35,-0.07 -2.03,-0.09 -50.83,-0.87 -125.3,-81.55 -126.46,-82.82 -0.01,0 -0.01,-0.01 -0.01,-0.01" /></g><g
           transform="translate(1089.9626,783.1713)"
           id="g590"><path
             id="path592"
             style="fill:none;stroke:#231f20;stroke-width:0.5;stroke-linecap:round;stroke-linejoin:round;stroke-miterlimit:4;stroke-dasharray:none;stroke-opacity:1"
             d="M 0,0 C 0,0 0.03,-0.02 0.08,-0.08 H 0.09" /></g><g
           transform="translate(1090.0526,783.0913)"
           id="g594"><path
             id="path596"
             style="fill:none;stroke:#231f20;stroke-width:0.5;stroke-linecap:round;stroke-linejoin:round;stroke-miterlimit:4;stroke-dasharray:none;stroke-opacity:1"
             d="m 0,0 c 0.87,-0.78 7.8,-7.03 9.19,-8.42 1.22,-1.22 4.66,-6.92 6.08,-9.32 0.23,-0.39 -0.13,-0.85 -0.56,-0.72 l -13.63,4.08 c -3.2,0.95 -6.5,1.49 -9.83,1.59 -5.54,0.16 -13.98,0.27 -17.15,-0.45 -1.88,-0.43 -8.41,-4.31 -11.67,-5.58 -3.27,-1.27 -16.31,-1.01 -22.83,0.55 -6.52,1.57 -71.22,65.61 -71.22,65.61 0,0 99.99,-0.41 102.26,-0.58 2.33,-0.18 10.31,-5.69 10.57,-8.22 0.2,-1.95 2.14,-8.52 2.61,-9.85 0.46,-1.32 1.61,-7.55 2.28,-9.52 0.53,-1.57 3.51,-6.46 4.3,-7.63 0.79,-1.18 4.76,-5.81 6.59,-8.28 C -1.19,0.79 1.42,-1.31 0,0 Z" /></g><g
           transform="translate(667.8026,907.2113)"
           id="g598"><path
             id="path600"
             style="fill:none;stroke:#231f20;stroke-width:0.5;stroke-linecap:round;stroke-linejoin:round;stroke-miterlimit:4;stroke-dasharray:none;stroke-opacity:1"
             d="M 0,0 C -0.01,-0.05 0,-0.08 0.02,-0.08 0.02,-0.07 0.01,-0.04 0,0 Z" /></g><g
           transform="translate(667.8026,907.2113)"
           id="g602"><path
             id="path604"
             style="fill:none;stroke:#231f20;stroke-width:0.5;stroke-linecap:round;stroke-linejoin:round;stroke-miterlimit:4;stroke-dasharray:none;stroke-opacity:1"
             d="m 0,0 c -0.7,2.84 -51.5,151.65 24.37,281.25 0.82,1.4 2.75,2.24 4.08,1.32 6.57,-4.54 26.95,-12.94 26.55,-16.96 -7.6,-76.88 3.63,-47.88 29.55,-57.91 17.4,-6.74 13.74,-50.74 12.24,-64.36 -0.25,-2.31 -1.77,-4.3 -3.95,-5.09 C 56.13,125.06 0.35,3.55 0,0 Z" /></g><g
           transform="translate(669.3226,403.7513)"
           id="g606"><path
             id="path608"
             style="fill:none;stroke:#231f20;stroke-width:0.5;stroke-linecap:round;stroke-linejoin:round;stroke-miterlimit:4;stroke-dasharray:none;stroke-opacity:1"
             d="m 0,0 c -2.86,-1.24 -89.78,-39.12 -137.15,-95.97 -32.8,-39.38 -0.08,132.39 151.31,259.31" /></g><g
           transform="translate(670.6926,700.5213)"
           id="g610"><path
             id="path612"
             style="fill:none;stroke:#231f20;stroke-width:0.5;stroke-linecap:round;stroke-linejoin:round;stroke-miterlimit:4;stroke-dasharray:none;stroke-opacity:1"
             d="m 0,0 c -0.01,-0.01 -0.01,-0.01 -0.02,-0.01 -1.79,-0.83 -116.21,-54.49 -134.85,-200.47 0,0 -3.91,-29.48 -4.17,-69.65 0,0 -42.26,-100.17 -39.13,-218.61 0,0 106.89,159.54 176.8,191.97 0.05,0.02 0.07,0.03 0.07,0.03" /></g><g
           transform="translate(683.4827,567.0913)"
           id="g614"><path
             id="path616"
             style="fill:none;stroke:#231f20;stroke-width:0.5;stroke-linecap:round;stroke-linejoin:round;stroke-miterlimit:4;stroke-dasharray:none;stroke-opacity:1"
             d="m 0,0 c -3.39,6.24 -85.26,-41.71 -117.8,-88.41 -1.52,-2.17 -3.55,-3.97 -5.97,-5.06 -4.13,-1.85 -8.82,-0.37 -8.51,12.76 0.13,5.32 1.1,10.58 2.74,15.64 17.55,54.3 47.72,136.25 116.73,198.49" /></g></g></g></g></svg>