<?xml version="1.0" standalone="no"?>
<!DOCTYPE svg PUBLIC "-//W3C//DTD SVG 20010904//EN"
 "http://www.w3.org/TR/2001/REC-SVG-20010904/DTD/svg10.dtd">
<svg version="1.0" xmlns="http://www.w3.org/2000/svg"
 width="896.000000pt" height="533.000000pt" viewBox="0 0 896.000000 533.000000"
 preserveAspectRatio="xMidYMid meet">

<g transform="translate(0.000000,533.000000) scale(0.100000,-0.100000)"
fill="#fff" stroke="none">
<path d="M5054 4595 c-117 -70 -88 -229 47 -265 53 -14 111 2 156 44 31 28 37
40 40 87 4 45 1 60 -19 89 -48 71 -147 91 -224 45z"/>
<path d="M1473 4540 c-221 -40 -392 -184 -471 -399 -33 -89 -42 -273 -18 -375
52 -222 222 -386 448 -431 266 -53 488 30 619 231 l43 67 -23 18 c-34 28 -47
24 -79 -23 -44 -64 -136 -146 -188 -170 -65 -28 -184 -35 -256 -14 -107 31
-193 135 -234 287 -24 88 -25 354 -1 452 32 129 103 233 186 270 28 12 66 19
110 19 149 1 250 -86 332 -287 35 -84 40 -90 68 -93 l31 -3 0 215 0 216 -37 0
c-24 0 -45 -8 -60 -22 -22 -20 -27 -21 -56 -9 -128 52 -295 72 -414 51z"/>
<path d="M2495 4174 c-86 -21 -116 -30 -156 -50 -26 -13 -61 -37 -78 -54 -26
-27 -31 -39 -31 -82 0 -41 5 -54 28 -78 50 -50 165 -49 219 2 18 17 23 32 23
69 0 26 -5 60 -11 76 -15 40 16 63 85 63 90 0 121 -40 132 -167 5 -61 3 -81
-7 -90 -8 -6 -81 -32 -163 -57 -233 -72 -289 -103 -327 -178 -17 -33 -20 -55
-17 -112 4 -85 26 -122 96 -163 42 -25 56 -28 142 -28 107 0 158 17 233 79
l42 35 22 -38 c42 -73 162 -99 307 -67 68 16 76 20 76 41 0 24 -22 35 -71 35
-14 0 -35 10 -47 23 -21 23 -22 30 -22 284 0 289 -5 322 -62 380 -53 54 -124
75 -268 79 -69 2 -134 1 -145 -2z m207 -529 c-4 -140 -9 -152 -64 -181 -15 -8
-46 -14 -68 -14 -33 0 -48 6 -71 29 -25 26 -29 37 -29 88 0 91 46 147 155 192
81 33 80 34 77 -114z"/>
<path d="M3330 4170 c-63 -4 -125 -8 -137 -9 -18 -1 -23 -7 -23 -28 0 -24 6
-30 47 -43 28 -9 55 -26 67 -43 20 -27 21 -41 21 -307 0 -271 -1 -280 -21
-300 -12 -12 -40 -24 -63 -27 -37 -5 -41 -8 -41 -34 l0 -29 245 0 245 0 0 28
c0 22 -7 30 -40 44 -25 10 -44 26 -50 43 -6 15 -10 126 -10 255 l0 228 26 32
c37 44 94 70 152 70 40 0 53 -5 74 -27 14 -16 31 -46 37 -68 14 -50 15 -474 1
-509 -7 -20 -19 -27 -50 -32 -36 -6 -40 -9 -40 -35 l0 -29 235 0 235 0 0 28
c0 25 -6 30 -40 41 -22 6 -45 22 -52 34 -9 15 -14 90 -16 250 l-4 229 26 38
c45 69 168 104 225 64 46 -33 51 -65 51 -338 0 -252 0 -255 -22 -270 -12 -9
-35 -16 -50 -16 -24 0 -28 -4 -28 -30 l0 -30 245 0 245 0 0 28 c0 25 -5 30
-47 43 -32 9 -52 22 -60 39 -9 18 -13 95 -13 272 0 225 -2 252 -21 302 -23 64
-77 116 -138 134 -99 30 -238 4 -317 -59 -97 -76 -96 -76 -108 -55 -26 44 -50
68 -94 94 -43 25 -56 27 -147 27 -115 0 -157 -15 -240 -84 -27 -22 -53 -41
-57 -41 -5 0 -8 29 -8 65 l0 65 -62 -2 c-35 -1 -115 -5 -178 -8z"/>
<path d="M5050 4170 c-63 -4 -128 -8 -143 -9 -25 -1 -28 -5 -25 -28 2 -22 11
-28 50 -40 28 -8 56 -25 72 -44 l26 -31 0 -274 c0 -161 -4 -283 -10 -294 -10
-20 -59 -40 -96 -40 -20 0 -24 -5 -24 -30 l0 -30 260 0 260 0 0 28 c0 25 -6
31 -38 40 -82 25 -76 -3 -82 399 l-5 358 -65 1 c-36 1 -117 -2 -180 -6z"/>
<path d="M5840 4164 c-137 -36 -230 -109 -283 -222 -31 -64 -32 -73 -32 -187
1 -156 21 -213 109 -300 93 -92 204 -135 357 -135 275 0 461 157 477 404 14
225 -102 384 -323 441 -74 19 -232 19 -305 -1z m229 -60 c30 -18 61 -62 81
-114 18 -50 26 -344 10 -423 -23 -117 -69 -176 -144 -184 -61 -7 -88 1 -125
39 -41 42 -67 127 -76 253 -14 208 26 381 99 426 38 23 117 25 155 3z"/>
<path d="M6735 4170 c-60 -4 -123 -8 -138 -9 -25 -1 -28 -5 -25 -28 2 -22 10
-29 39 -36 20 -5 50 -22 65 -38 l29 -30 3 -262 c2 -144 0 -277 -3 -295 -5 -26
-14 -37 -40 -48 -19 -8 -46 -14 -60 -14 -21 0 -25 -5 -25 -30 l0 -30 250 0
250 0 0 28 c0 25 -6 30 -40 41 -22 6 -44 20 -50 31 -6 11 -10 117 -10 264 l0
244 29 30 c42 41 91 62 148 62 58 0 90 -19 109 -66 17 -41 20 -513 4 -545 -7
-11 -26 -21 -50 -25 -36 -6 -40 -10 -40 -35 l0 -29 245 0 245 0 0 28 c0 23 -7
30 -52 47 -39 15 -54 27 -59 45 -4 14 -7 133 -8 265 -1 132 -6 257 -11 277
-15 52 -67 117 -115 142 -33 17 -58 21 -140 21 -115 0 -163 -17 -245 -85 -26
-22 -50 -40 -53 -40 -4 0 -7 28 -9 63 l-3 62 -65 1 c-36 1 -114 -2 -175 -6z"/>
<path d="M964 2465 c-11 -29 5 -43 63 -56 38 -9 68 -22 86 -41 l28 -27 -3
-456 -3 -457 -23 -19 c-13 -10 -40 -21 -60 -24 -72 -11 -87 -19 -87 -45 l0
-25 547 -3 c514 -2 547 -1 552 15 3 10 8 93 12 186 l7 167 -25 0 c-21 0 -31
-11 -57 -62 -41 -80 -109 -176 -141 -199 -34 -25 -166 -42 -273 -36 -96 6
-132 21 -147 63 -6 14 -10 120 -10 235 l0 209 78 0 c146 0 206 -37 239 -148
17 -58 20 -62 48 -62 l30 0 0 245 0 246 -29 -3 c-24 -3 -31 -9 -41 -44 -37
-127 -89 -164 -233 -164 l-92 0 0 225 0 225 143 0 c78 0 160 -5 181 -11 49
-14 122 -87 162 -163 24 -47 33 -56 57 -56 l27 0 0 150 0 150 -515 0 c-449 0
-516 -2 -521 -15z"/>
<path d="M3400 2140 c-63 -4 -148 -8 -187 -9 l-73 -1 0 -29 c0 -25 5 -30 45
-41 27 -8 55 -25 70 -42 l25 -30 0 -463 c0 -531 5 -501 -87 -512 -50 -5 -53
-7 -53 -34 l0 -29 295 0 295 0 0 29 c0 27 -2 29 -61 35 -49 6 -68 13 -90 36
-29 28 -29 29 -29 154 0 69 4 126 9 126 5 0 30 -9 56 -21 96 -42 248 -34 354
20 60 31 127 105 167 185 29 59 37 88 41 152 11 154 -34 301 -116 383 -125
125 -329 130 -465 11 -18 -17 -36 -30 -39 -30 -3 0 -7 26 -9 57 -3 67 9 62
-148 53z m387 -151 c133 -82 137 -484 6 -599 -28 -25 -42 -30 -84 -30 -63 0
-97 19 -132 75 l-27 42 0 234 c0 129 4 239 8 244 47 65 154 80 229 34z"/>
<path d="M4480 2138 c-96 -5 -181 -11 -187 -13 -7 -2 -13 -15 -13 -27 0 -18
11 -27 52 -43 87 -34 89 -41 86 -363 -3 -270 -3 -274 -26 -292 -12 -10 -40
-21 -63 -25 -36 -6 -40 -10 -37 -33 l3 -27 273 -3 272 -2 0 28 c0 27 -4 30
-57 41 -97 19 -93 6 -93 298 0 237 1 254 19 272 29 29 65 51 100 61 l32 9 -6
-43 c-15 -95 46 -153 151 -144 32 3 62 12 73 22 54 49 68 158 29 216 -40 58
-72 75 -141 75 -75 0 -134 -27 -207 -92 l-50 -45 0 52 c0 50 -13 92 -28 88 -4
0 -86 -5 -182 -10z"/>
<path d="M5565 2143 c-96 -13 -189 -60 -256 -130 -92 -96 -124 -185 -117 -327
9 -169 80 -281 221 -351 200 -98 434 -62 584 91 35 36 63 70 61 75 -2 6 -16
18 -30 27 -27 16 -27 16 -68 -30 -58 -66 -127 -98 -212 -98 -82 0 -129 18
-181 68 -45 44 -75 119 -83 212 l-7 70 283 0 283 0 -6 81 c-9 136 -66 222
-182 275 -74 34 -196 50 -290 37z m113 -69 c42 -29 65 -92 66 -179 l1 -80
-134 -3 -134 -3 6 63 c10 96 26 139 67 180 42 42 88 50 128 22z"/>
<path d="M6438 2140 c-59 -10 -143 -49 -185 -84 -17 -14 -41 -47 -54 -72 -18
-38 -21 -57 -17 -116 10 -130 79 -192 291 -259 106 -33 138 -48 165 -75 32
-32 34 -38 29 -80 -3 -34 -13 -55 -36 -78 -30 -29 -35 -31 -109 -31 -65 0 -84
4 -122 27 -60 34 -132 112 -164 177 -22 43 -31 51 -54 51 l-27 0 3 -137 c1
-76 5 -144 7 -150 2 -7 18 -13 34 -13 25 0 32 5 37 26 8 30 13 29 117 -10 202
-77 453 -16 530 128 16 31 22 58 22 116 0 142 -62 203 -275 270 -151 48 -191
72 -204 122 -18 72 42 138 125 138 89 0 195 -75 240 -170 20 -41 28 -50 50
-50 l27 0 -5 128 c-2 70 -6 133 -8 140 -3 6 -16 12 -30 12 -18 0 -28 -7 -35
-25 -5 -14 -11 -25 -12 -25 -2 0 -31 9 -64 20 -73 22 -209 32 -276 20z"/>
<path d="M7309 2140 c-110 -19 -195 -75 -233 -152 -57 -114 -19 -238 93 -309
25 -17 104 -48 176 -70 184 -58 226 -106 179 -204 -23 -48 -72 -69 -150 -62
-104 8 -194 77 -264 201 -25 44 -37 56 -56 56 -24 0 -24 0 -24 -112 0 -62 3
-130 6 -150 6 -33 10 -38 34 -38 19 0 30 7 39 26 13 29 9 29 114 -10 126 -48
278 -44 397 10 102 47 150 115 157 224 4 57 1 72 -24 120 -39 75 -95 110 -252
160 -152 48 -192 72 -205 122 -13 54 7 96 58 119 78 35 153 18 231 -53 29 -26
63 -70 76 -98 20 -42 28 -50 52 -50 l27 0 -6 128 c-3 70 -7 133 -10 140 -2 6
-15 12 -29 12 -18 0 -28 -7 -35 -25 -5 -14 -11 -25 -12 -25 -2 0 -31 9 -64 20
-72 22 -209 32 -275 20z"/>
<path d="M2147 2124 c-4 -4 -7 -18 -7 -30 0 -18 7 -24 34 -29 62 -12 92 -42
215 -210 l121 -166 -112 -120 c-121 -128 -171 -169 -231 -189 -33 -10 -38 -16
-35 -38 l3 -27 163 -3 162 -2 0 28 c0 25 -5 30 -37 38 -51 12 -55 41 -12 97
86 110 132 157 144 147 30 -25 147 -210 142 -224 -3 -8 -25 -18 -49 -23 -37
-7 -43 -12 -43 -33 l0 -25 258 -3 257 -2 0 27 c0 25 -6 31 -50 46 -42 15 -58
29 -108 95 -88 116 -212 292 -212 301 0 16 256 258 285 268 17 6 38 14 48 17
13 4 17 14 15 33 l-3 28 -162 3 -163 2 0 -29 c0 -25 5 -30 34 -35 49 -9 61
-28 42 -63 -12 -24 -134 -173 -141 -173 -7 0 -135 201 -135 213 0 17 21 27 56
27 22 0 25 4 22 28 l-3 27 -246 3 c-135 1 -248 -1 -252 -4z"/>
</g>
</svg>
