<svg xmlns="http://www.w3.org/2000/svg" width="47.27586196123772" height="41.51724152672729" style=""><rect id="backgroundrect" width="100%" height="100%" x="0" y="0" fill="none" stroke="none" style="" class=""/><g class="currentLayer" style=""><title>Layer 1</title><path d="M41.5587047979274,10.00409900701688 a2.284825075662016,2.0690175292795785 0 0 0 -1.254593328119023,-1.6481652663098858 l-18.31523106743099,-8.292655427974262 a2.289403883428874,2.0731638569935655 0 0 0 -2.0490164756688425,0 l-18.31523106743099,8.292655427974262 a2.293982691195732,2.0773101847075526 0 0 0 -1.2523039242355938,1.6481652663098858 c-0.025183442717717743,0.22182853269831235 -2.2001171319751482,22.321755248249715 19.66368995477059,31.12648214890138 a2.259641632944298,2.0462127268526484 0 0 0 1.8589959533442462,0 c21.863807086745744,-8.804726900651671 19.68887339748831,-30.90258045234609 19.66368995477059,-31.12648214890138 zM20.9655168664847,36.94900965636224 C5.468541979554646,30.16561751627931 4.735932736857409,15.688714302893237 4.861849950445994,11.52787444190715 L20.9655168664847,4.236557156860781 l16.09221989662155,7.287170957332383 c0.08470794368686872,4.123522911560202 -0.750924473764671,18.695791662367974 -16.09221989662155,25.425281542169085 z" id="svg_1" class="" fill-opacity="1" fill="#252b42"/><path d="m19.78892405190813,23.273483135804717 l-4.581750136831201,-4.3194130459862095 l-2.8253792819360313,2.663606649378325 L19.78892405190813,28.600696434561378 l11.40342260396671,-10.75049727581478 l-2.8253792819360313,-2.663606649378325 z" id="svg_2" class="" fill="#252b42" fill-opacity="1"/></g></svg>