<svg xmlns="http://www.w3.org/2000/svg" width="47" height="41" fill="none" style=""><rect id="backgroundrect" width="100%" height="100%" x="0" y="0" fill="none" stroke="none" style="" class=""/>

<g class="currentLayer" style=""><title>Layer 1</title><path d="M43.15491788112784,11.60138053561722 L40.26893898090982,16.337106041789404 C41.66074118330145,19.365617499828684 42.342130808063985,22.7235238842014 42.25202970065737,26.109943172288286 C42.16192859325075,29.496362460375178 41.30308021688128,32.805592119622574 39.75273471972609,35.740845903635375 H7.231808508030414 C5.216662586609364,31.926890589690554 4.381653461574554,27.506130275154458 4.85055464136982,23.13373162603413 C5.319470260445118,18.7613329769138 7.067359547733306,14.670203883493292 9.8350663052001,11.466802780683388 C12.602787501946924,8.263385924888002 16.242987755414486,6.1182703864530215 20.216100049325465,5.34941442425524 C24.18921234323645,4.580574215042938 28.283614589425564,5.228951344309199 31.892279455300805,7.198421094670642 L36.23316021165514,4.049793122365821 C31.813585379120347,0.958031852336038 26.571404763099196,-0.4273943861504909 21.34510735511446,0.11512094787892165 C16.118665554329397,0.6576350216694963 11.209974549952983,3.0967375009802467 7.404256829465867,7.042293255603659 C3.598539108978748,10.987849010227073 1.1156399305250642,16.211869807243694 0.3527261306955812,21.878691273045888 C-0.4101862252058988,27.545670268702853 0.5909612558898926,33.32796111805474 3.1960297387757297,38.300706043720595 C3.6054988419547076,39.074492690372814 4.193451885622978,39.71784461727177 4.901453103486538,40.1669622332338 C5.609454321350097,40.61607984919583 6.4128558623924246,40.855210168743476 7.231808508030414,40.860566183805815 H39.72919869327212 C40.55613626076841,40.864189370465624 41.36921211943293,40.629312356996884 42.08612237307691,40.17972215147053 C42.803177019521236,39.730289475798955 43.39850853528643,39.08205412340199 43.81190512263441,38.300706043720595 C45.973754129191875,34.2150117302898 47.05872163087987,29.556853924608575 46.946961603423595,24.840882662225116 C46.835201575967304,20.12475386998688 45.53104580337667,15.534144866032946 43.178453907581805,11.575781934216367 L43.15491788112784,11.60138053561722 zM20.183900454851628,29.11088690574204 C20.619677926250937,29.58678459701573 21.137181722637653,29.964383658910144 21.706955712744236,30.22210250132118 C22.276585310050486,30.47982134373223 22.887222462650776,30.61230395159756 23.50392411286497,30.61230395159756 C24.120625763079165,30.61230395159756 24.731262915679455,30.47982134373223 25.301036905786038,30.22210250132118 C25.870666503092288,29.964383658910144 26.38831469227934,29.58678459701573 26.82409216367865,29.11088690574204 L40.104619974133016,7.377611304476608 L20.183900454851628,21.866403944373477 C19.747545412250997,22.341829046082843 19.401435869857313,22.906573575449336 19.165209248515605,23.528028852534643 C18.92912701997423,24.149641659474717 18.807548282095432,24.815835415315973 18.807548282095432,25.488645425057758 C18.807548282095432,26.16145543479954 18.92912701997423,26.827649190640802 19.165209248515605,27.4491044677261 C19.401435869857313,28.070717274666176 19.747545412250997,28.6353042741779 20.183900454851628,29.11088690574204 z" fill="#252b42" id="svg_1" class="" fill-opacity="1"/></g></svg>