<svg xmlns="http://www.w3.org/2000/svg" xmlns:xlink="http://www.w3.org/1999/xlink" version="1.1" style="" xml:space="preserve" width="66" height="41"><rect id="backgroundrect" width="100%" height="100%" x="0" y="0" fill="none" stroke="none" style="" class=""/>
















<g class="currentLayer" style=""><title>Layer 1</title><path d="M64.18247857316672,30.222515624608462 H64.11213721929873 v-6.313067943192635 c0,-1.5400931138297729 -0.5779245633795123,-2.9880726016096317 -1.6274175630901144,-4.077086310535703 l-0.7343637343819519,-0.7621636158583166 l-2.624154547399716,-9.984036808925074 C58.60187692269486,7.0911929372249105 56.84376512411802,5.697810115281284 54.850853886329766,5.697810115281284 H47.23021229097806 v-3.576519553443544 c0,-1.2476943927870185 -0.9781668668884486,-2.262696044015304 -2.1805819699080873,-2.262696044015304 h-42.76754315174572 C1.0796720663046206,-0.1414054821775742 0.10150519941616801,0.87359616905073 0.10150519941616801,2.1212905618377507 v28.028234867802478 c0,1.2476943927870185 0.9781668668884486,2.262696044015304 2.1805819699080873,2.262696044015304 h3.9567011550751596 c-0.18429434713416826,0.41400038585983406 -0.3227261315463978,0.854131261518295 -0.4082612178498899,1.313823509428242 H3.40754883121231 c-0.5828484581502728,0 -1.0551203080200435,0.49005616901673604 -1.0551203080200435,1.0948529245235348 s0.4722718498697733,1.0948529245235348 1.0551203080200435,1.0948529245235348 h2.422978275337226 c0.49449971769206047,2.6575729987934595 2.7518944460240062,4.671372477967077 5.4552533578790925,4.671372477967077 s4.960753640187033,-2.0137994791736205 5.4552533578790925,-4.671372477967077 h16.2724874384083 c0.37238712737720925,0.6955965580472886 1.087195965383853,1.16784311949177 1.9069541033615562,1.16784311949177 h9.00369329510436 c0.8197581379777059,0 1.5345669759843492,-0.4722465614444854 1.9069541033615562,-1.16784311949177 h2.7669474957517597 c0.49449971769206047,2.6575729987934595 2.7518944460240062,4.671372477967077 5.4552533578790925,4.671372477967077 s4.960753640187033,-2.0137994791736205 5.4552533578790925,-4.671372477967077 H64.18247857316672 c0.5828484581502728,0 1.0551203080200435,-0.49005616901673604 1.0551203080200435,-1.0948529245235348 v-3.503529358475308 C65.23759888118677,30.71257179362517 64.76532703131699,30.222515624608462 64.18247857316672,30.222515624608462 zM59.42473008024278,18.54393844930081 L51.802400292398254,18.544084429690738 c-0.03868774462740173,0 -0.0703413538680031,-0.032845587735706255 -0.0703413538680031,-0.07299019496823604 V11.391045322803656 h5.697649663308229 c0.038265696504193716,0 0.07596866217744325,-0.002335686238983555 0.11324957972748477,-0.006569117547141252 L59.42473008024278,18.54393844930081 zM54.850853886329766,7.887515964328368 c0.8817992120892882,0 1.6742649047662037,0.5220258744128227 2.065222149564563,1.313823509428242 H50.67693863051021 c-0.5828484581502728,0 -1.0551203080200435,0.49005616901673604 -1.0551203080200435,1.0948529245235348 v8.174901836442386 c0,1.2476943927870185 0.9781668668884486,2.262696044015304 2.1805819699080873,2.262696044015304 l8.566592122168592,-0.00014598038993647236 l0.6233650779782431,0.6471310685883799 c0.6510795714022365,0.6754512642360544 1.0095391107135767,1.5733766427352873 1.0095391107135767,2.528672314479555 V26.718986266133136 h-1.1958030157560482 c-0.5828484581502728,0 -1.0551203080200435,0.49005616901673604 -1.0551203080200435,1.0948529245235348 s0.4722718498697733,1.0948529245235348 1.0551203080200435,1.0948529245235348 h1.1958030157560482 v1.313823509428242 h-4.5721880014201846 c-0.008863010587368424,0 -0.017585338467000795,0.001167843119491774 -0.0264483490543692,0.0014598038993647255 c-0.9321636214587746,-0.7332594986508945 -2.092655277573085,-1.1693029233911365 -3.3499366366097676,-1.1693029233911365 s-2.4177730151509946,0.4360434247402413 -3.3499366366097676,1.1693029233911365 c-0.008863010587368424,-0.0002919607798729439 -0.017585338467000795,-0.0014598038993647255 -0.0264483490543692,-0.0014598038993647255 H47.23021229097806 V7.887515964328368 H54.850853886329766 zM48.59807025829525,33.72604498308376 H46.10475062909002 v-1.2408333144600046 c0,-0.024670685899263828 -0.002813654154720133,-0.04861146984884517 -0.0035170676934001667,-0.07299019496823604 h0.07385842156140315 h2.8312394931871143 C48.82203712901099,32.82622185951538 48.683605344598725,33.26635273517378 48.59807025829525,33.72604498308376 zM2.2117458154562564,30.149525429640217 V23.069476517721384 h35.78869606908568 l-1.5750835958123193,1.6343964457287323 c-0.41205965095876246,0.42772254251386216 -0.41205965095876246,1.1208374339322262 0,1.548413996056151 c0.20610016683324928,0.2137152908669944 0.47621096568638116,0.3205729363004915 0.7461810818317746,0.3205729363004915 s0.5400809149985282,-0.10685764543349749 0.7461810818317746,-0.3205729363004915 l3.3763849856641364,-3.503529358475308 c0.003939115816608168,-0.004087450918221198 0.00731550080227232,-0.008612843006251826 0.01111393391114451,-0.01284627431440955 c0.0202583099139849,-0.021605097710597845 0.04009457170476181,-0.04379411698094165 0.058524006418178696,-0.06715097937077709 c0.010832568495672506,-0.01372215665402837 0.0202583099139849,-0.028028234867802652 0.030387464870977335,-0.042188332691640414 c0.010410520372464493,-0.014598038993647169 0.021383771575872908,-0.02875813681748503 0.031090878409657425,-0.0439400973708781 c0.010410520372464493,-0.016203823282948355 0.019554896375304904,-0.03299156812564278 0.029121320501353302,-0.049633332578400566 c0.008018914340952353,-0.01401411743390128 0.016600559512848754,-0.027736274087929697 0.02405674302285711,-0.042188332691640414 c0.008722327879632417,-0.016787744842694307 0.016037828681904735,-0.03415941124513445 0.02377537760738513,-0.05123911686770167 c0.006893452679064314,-0.015181960553393067 0.014208953481336621,-0.030217940716849682 0.02053967532945694,-0.04583784244005242 c0.006752769971328293,-0.016787744842694307 0.012098712865296533,-0.03386745046526149 0.01800738659020885,-0.05094715608782867 c0.005767991017176277,-0.016641764452757828 0.01195803015756053,-0.03313754851557922 0.01688192492832079,-0.050071273748209924 c0.00506457747849624,-0.017225686012503707 0.008722327879632417,-0.03474333280488039 0.012942809111712595,-0.05226097959725694 c0.00407979852434418,-0.017225686012503707 0.008863010587368424,-0.03415941124513445 0.012098712865296533,-0.05153107764757469 c0.003939115816608168,-0.020583234981042513 0.00633072184812029,-0.04131245035202157 0.009144376002840408,-0.06204166572300083 c0.001969557908304087,-0.014598038993647169 0.004642529355288208,-0.029050097597357948 0.006049356432648282,-0.04379411698094165 c0.006893452679064314,-0.07211431262861709 0.006893452679064314,-0.14466656642704356 0,-0.21678087905566037 c-0.0014068270773600696,-0.01488999977352012 -0.00407979852434418,-0.029196077987294376 -0.006049356432648282,-0.04379411698094165 c-0.002813654154720133,-0.02072921537097898 -0.00520526018623223,-0.04145843074195812 -0.009144376002840408,-0.06204166572300083 c-0.003376384985664165,-0.017517646792376575 -0.008018914340952353,-0.03445137202500734 -0.012098712865296533,-0.05153107764757469 c-0.004220481232080187,-0.017517646792376575 -0.007878231633216368,-0.03503529358475315 -0.012942809111712595,-0.05226097959725694 c-0.00506457747849624,-0.01707970562256725 -0.01111393391114451,-0.03357548968538863 -0.01688192492832079,-0.05021725413814637 c-0.005908673724912268,-0.016933725232630786 -0.01125461661888051,-0.03415941124513445 -0.017866703882472714,-0.050801175697892303 c-0.006190039140384281,-0.015619901723202446 -0.01364622265039266,-0.030655881886659048 -0.02053967532945694,-0.045983822829988745 c-0.007737548925480348,-0.01707970562256725 -0.015053049727752633,-0.03430539163507082 -0.02377537760738513,-0.0510931364777652 c-0.007456183510008334,-0.014452058603710715 -0.016037828681904735,-0.02817421525773913 -0.02405674302285711,-0.042188332691640414 c-0.009566424126048436,-0.016641764452757828 -0.018570117421152853,-0.03342950929545216 -0.029121320501353302,-0.049633332578400566 c-0.009707106833784451,-0.015181960553393067 -0.020680358037192925,-0.02934205837723081 -0.031090878409657425,-0.0439400973708781 c-0.010129154956992455,-0.01401411743390128 -0.019554896375304904,-0.028466176037612055 -0.030387464870977335,-0.042188332691640414 c-0.018429434713416765,-0.02335686238983552 -0.038265696504193716,-0.04554588166017919 -0.058524006418178696,-0.06715097937077709 c-0.003939115816608168,-0.004233431308157689 -0.007174818094536314,-0.008758823396188315 -0.01111393391114451,-0.01284627431440955 l-3.3763849856641364,-3.503529358475308 c-0.4122003336664981,-0.4274305817339887 -1.0801618299970523,-0.4274305817339887 -1.4922214809558132,0 c-0.41205965095876246,0.42772254251386216 -0.41205965095876246,1.1208374339322262 0,1.548413996056151 L38.00044188454193,20.87977066867431 H2.2117458154562564 V2.1212905618377507 c0,-0.04014460723252985 0.031653609240601455,-0.07299019496823604 0.0703413538680031,-0.07299019496823604 h42.76754315174572 c0.03868774462740173,0 0.0703413538680031,0.032845587735706255 0.0703413538680031,0.07299019496823604 V30.222515624608462 H14.661743401969552 c-0.008863010587368424,0 -0.017303973051528847,0.001167843119491774 -0.026166983638897193,0.0013138235094282457 C13.703553479579615,29.49071592985691 12.542921140757567,29.054672505116685 11.285780464428619,29.054672505116685 c-1.2571406763289488,0 -2.4177730151509946,0.4360434247402413 -3.3499366366097676,1.1693029233911365 c-0.009003693295104398,-0.0002919607798729439 -0.017726021174736775,-0.0014598038993647255 -0.026729714469841244,-0.0014598038993647255 H2.2820871693242624 C2.243399424696864,30.222515624608462 2.2117458154562564,30.189670036872755 2.2117458154562564,30.149525429640217 zM32.73989339416948,32.48521166862375 v1.2408333144600046 H16.74103382230771 c-0.08553508630349188,-0.45969224790994967 -0.22396687071572172,-0.8998231235684103 -0.4082612178498899,-1.313823509428242 h16.410637857405064 C32.7427070483242,32.43660019877492 32.73989339416948,32.46054098272449 32.73989339416948,32.48521166862375 zM11.285780464428619,38.39741746105082 C9.385157082915185,38.39741746105082 7.8390541248964825,36.79309297564901 7.8390541248964825,34.8208979076073 S9.385157082915185,31.24437835416375 11.285780464428619,31.24437835416375 s3.4467263395321392,1.6043244854018197 3.4467263395321392,3.576519553443544 S13.186403845942053,38.39741746105082 11.285780464428619,38.39741746105082 zM43.924168659181916,34.89388810257555 h-9.00369329510436 c-0.03868774462740173,0 -0.0703413538680031,-0.032845587735706255 -0.0703413538680031,-0.07299019496823604 v-2.3356862389835387 c0,-0.04014460723252985 0.031653609240601455,-0.07299019496823604 0.0703413538680031,-0.07299019496823604 h9.00369329510436 c0.03868774462740173,0 0.0703413538680031,0.032845587735706255 0.0703413538680031,0.07299019496823604 v2.3299930037760177 c0,0.0018977450691741373 -0.00028136541547201367,0.0037954901383482845 -0.00028136541547201367,0.005693235207522408 c0,0.0004379411698094174 0,0.0007299019496823608 0,0.001167843119491774 C43.99366591680354,34.8616264363996 43.962575038393865,34.89388810257555 43.924168659181916,34.89388810257555 zM54.053323616174325,38.39741746105082 c-1.9006233815134366,0 -3.4467263395321392,-1.6043244854018197 -3.4467263395321392,-3.576519553443544 s1.5461029580187025,-3.576519553443544 3.4467263395321392,-3.576519553443544 s3.4467263395321392,1.6043244854018197 3.4467263395321392,3.576519553443544 S55.95394699768778,38.39741746105082 54.053323616174325,38.39741746105082 zM63.12735826514672,33.72604498308376 h-3.6187812910932733 c-0.08553508630349188,-0.45969224790994967 -0.22396687071572172,-0.8998231235684103 -0.4082612178498899,-1.313823509428242 H63.12735826514672 V33.72604498308376 z" id="svg_1" class="" fill-opacity="1" fill="#252b42"/><g id="svg_2">
</g><g id="svg_3">
</g><g id="svg_4">
</g><g id="svg_5">
</g><g id="svg_6">
</g><g id="svg_7">
</g><g id="svg_8">
</g><g id="svg_9">
</g><g id="svg_10">
</g><g id="svg_11">
</g><g id="svg_12">
</g><g id="svg_13">
</g><g id="svg_14">
</g><g id="svg_15">
</g><g id="svg_16">
</g><path fill="#252b42" fill-opacity="1" stroke="#252b42" stroke-opacity="1" stroke-width="1" stroke-dasharray="none" stroke-linejoin="miter" stroke-linecap="butt" stroke-dashoffset="" fill-rule="nonzero" opacity="1" marker-start="" marker-mid="" marker-end="" d="M2.142857142857139,2.7020413145727016L45.24489795918367,2.7836739676339253" id="svg_17" class=""/><path fill="#252b42" fill-opacity="1" stroke="#252b42" stroke-opacity="1" stroke-width="1" stroke-dasharray="none" stroke-linejoin="miter" stroke-linecap="butt" stroke-dashoffset="" fill-rule="nonzero" opacity="1" marker-start="" marker-mid="" marker-end="" d="M1.9795918367346916,1.9673474370216812L45.489795918367335,1.9673474370216812" id="svg_19"/><path fill="#252b42" fill-opacity="1" stroke="#252b42" stroke-opacity="1" stroke-width="1" stroke-dasharray="none" stroke-linejoin="miter" stroke-linecap="butt" stroke-dashoffset="" fill-rule="nonzero" opacity="1" marker-start="" marker-mid="" marker-end="" d="M3.2857142857142776,3.191837232940051L3.367346938775505,30.783673967633923" id="svg_18"/><path fill="#252b42" fill-opacity="1" stroke="#252b42" stroke-opacity="1" stroke-width="1" stroke-dasharray="none" stroke-linejoin="miter" stroke-linecap="butt" stroke-dashoffset="" fill-rule="nonzero" opacity="1" marker-start="" marker-mid="" marker-end="" d="M2.306122448979586,2.7836739676339253L2.4693877551020336,30.29387804926658" id="svg_21"/><path fill="#252b42" fill-opacity="1" stroke="#252b42" stroke-opacity="1" stroke-width="1" stroke-dasharray="none" stroke-linejoin="miter" stroke-linecap="butt" stroke-dashoffset="" fill-rule="nonzero" opacity="1" marker-start="" marker-mid="" marker-end="" d="M3.857142857142854,29.640816824776785L11.040816326530603,29.640816824776785" id="svg_23"/><path fill="#252b42" fill-opacity="1" stroke="#252b42" stroke-opacity="1" stroke-width="1" stroke-dasharray="none" stroke-linejoin="miter" stroke-linecap="butt" stroke-dashoffset="" fill-rule="nonzero" opacity="1" marker-start="" marker-mid="" marker-end="" d="M3.5306122448979522,30.048980090082907L8.020408163265301,30.212245396205354" id="svg_25"/><path fill="#252b42" fill-opacity="1" stroke="#252b42" stroke-opacity="1" stroke-width="1" stroke-dasharray="none" stroke-linejoin="miter" stroke-linecap="butt" stroke-dashoffset="" fill-rule="nonzero" opacity="1" marker-start="" marker-mid="" marker-end="" d="M9.816326530612237,29.88571478396046L45.734693877551024,29.96734743702168" id="svg_20"/><path fill="#252b42" fill-opacity="1" stroke="#252b42" stroke-opacity="1" stroke-width="1" stroke-dasharray="none" stroke-linejoin="miter" stroke-linecap="butt" stroke-dashoffset="" fill-rule="nonzero" opacity="1" marker-start="" marker-mid="" marker-end="" d="M44.020408163265294,3.191837232940051L44.020408163265294,30.29387804926658" id="svg_22"/><path fill="#252b42" fill-opacity="1" stroke="#252b42" stroke-opacity="1" stroke-width="1" stroke-dasharray="none" stroke-linejoin="miter" stroke-linecap="butt" stroke-dashoffset="" fill-rule="nonzero" opacity="1" marker-start="" marker-mid="" marker-end="" d="M44.75510204081632,2.048980090082905L44.75510204081632,30.29387804926658" id="svg_26"/><path fill="#252b42" fill-opacity="1" stroke="#252b42" stroke-opacity="1" stroke-width="1" stroke-dasharray="none" stroke-linejoin="miter" stroke-linecap="butt" stroke-dashoffset="" fill-rule="nonzero" opacity="1" marker-start="" marker-mid="" marker-end="" d="M2.7959183673469354,7.0285719268176L2.7959183673469354,14.130612743144129" id="svg_28"/><path fill="#252b42" fill-opacity="1" stroke="#252b42" stroke-opacity="1" stroke-width="1" stroke-dasharray="none" stroke-linejoin="miter" stroke-linecap="butt" stroke-dashoffset="" fill-rule="nonzero" opacity="1" marker-start="" marker-mid="" marker-end="" d="M3.857142857142854,20.82449029416454L38.46938775510203,20.82449029416454" id="svg_24"/><path fill="#252b42" fill-opacity="1" stroke="#252b42" stroke-opacity="1" stroke-width="1" stroke-dasharray="none" stroke-linejoin="miter" stroke-linecap="butt" stroke-dashoffset="" fill-rule="nonzero" opacity="1" marker-start="" marker-mid="" marker-end="" d="M5.2448979591836675,20.987755600286988L2.551020408163261,20.661224988042093" id="svg_27"/><path fill="#252b42" fill-opacity="1" stroke="#252b42" stroke-opacity="1" stroke-width="1" stroke-dasharray="none" stroke-linejoin="miter" stroke-linecap="butt" stroke-dashoffset="" fill-rule="nonzero" opacity="1" marker-start="" marker-mid="" marker-end="" d="M3.857142857142854,22.865306620695154L38.63265306122448,22.865306620695154" id="svg_30"/><path fill="#252b42" fill-opacity="1" stroke="#252b42" stroke-opacity="1" stroke-width="1" stroke-dasharray="none" stroke-linejoin="miter" stroke-linecap="butt" stroke-dashoffset="" fill-rule="nonzero" opacity="1" marker-start="" marker-mid="" marker-end="" d="M4.102040816326522,22.702041314572703L3.040816326530603,23.27346988600127" id="svg_32"/><path fill="none" fill-opacity="1" stroke="#252b42" stroke-opacity="1" stroke-width="1" stroke-dasharray="none" stroke-linejoin="miter" stroke-linecap="butt" stroke-dashoffset="" fill-rule="nonzero" opacity="1" marker-start="" marker-mid="" marker-end="" d="M47.06503942435289,29.86016203934333L62.59349446810754,30.104064474585552" id="svg_29"/><path fill="none" fill-opacity="1" stroke="#252b42" stroke-opacity="1" stroke-width="1" stroke-dasharray="none" stroke-linejoin="miter" stroke-linecap="butt" stroke-dashoffset="" fill-rule="nonzero" opacity="1" marker-start="" marker-mid="" marker-end="" d="M16.902438266065047,33.84390181496626L33.48780386253598,33.76260100321885" id="svg_33"/><path fill="none" fill-opacity="1" stroke="#252b42" stroke-opacity="1" stroke-width="1" stroke-dasharray="none" stroke-linejoin="miter" stroke-linecap="butt" stroke-dashoffset="" fill-rule="nonzero" opacity="1" marker-start="" marker-mid="" marker-end="" d="M17.227641513054678,33.84390181496626L15.926828525096168,33.84390181496626" id="svg_31"/><path fill="none" fill-opacity="1" stroke="#252b42" stroke-opacity="1" stroke-width="1" stroke-dasharray="none" stroke-linejoin="miter" stroke-linecap="butt" stroke-dashoffset="" fill-rule="nonzero" opacity="1" marker-start="" marker-mid="" marker-end="" d="M34.8699176622419,32.29918639176553L34.8699176622419,35.226015614672164" id="svg_35"/><path fill="none" fill-opacity="1" stroke="#252b42" stroke-opacity="1" stroke-width="1" stroke-dasharray="none" stroke-linejoin="miter" stroke-linecap="butt" stroke-dashoffset="" fill-rule="nonzero" opacity="1" marker-start="" marker-mid="" marker-end="" d="M35.11382009748412,34.738210744187725L44.78861669542551,34.738210744187725" id="svg_37"/><path fill="none" fill-opacity="1" stroke="#252b42" stroke-opacity="1" stroke-width="1" stroke-dasharray="none" stroke-linejoin="miter" stroke-linecap="butt" stroke-dashoffset="" fill-rule="nonzero" opacity="1" marker-start="" marker-mid="" marker-end="" d="M43.731706142709214,32.13658476827071L43.731706142709214,34.656909932440314" id="svg_34"/><path fill="none" fill-opacity="1" stroke="#252b42" stroke-opacity="1" stroke-width="1" stroke-dasharray="none" stroke-linejoin="miter" stroke-linecap="butt" stroke-dashoffset="" fill-rule="nonzero" opacity="1" marker-start="" marker-mid="" marker-end="" d="M46.08942968338401,33.681300191471436L49.66666540026989,33.681300191471436" id="svg_38"/><path fill="none" fill-opacity="1" stroke="#252b42" stroke-opacity="1" stroke-width="1" stroke-dasharray="none" stroke-linejoin="miter" stroke-linecap="butt" stroke-dashoffset="" fill-rule="nonzero" opacity="1" marker-start="" marker-mid="" marker-end="" d="M59.42276280995868,33.59999937972404L63.89430745606604,33.59999937972404" id="svg_40"/><path fill="none" fill-opacity="1" stroke="#252b42" stroke-opacity="1" stroke-width="1" stroke-dasharray="none" stroke-linejoin="miter" stroke-linecap="butt" stroke-dashoffset="" fill-rule="nonzero" opacity="1" marker-start="" marker-mid="" marker-end="" d="M59.6666652452009,33.51869856797663L58.691055504232025,34.08780425020848" id="svg_36"/></g></svg>