<?xml version="1.0" encoding="utf-8"?>
<!-- Generator: Adobe Illustrator 26.0.0, SVG Export Plug-In . SVG Version: 6.00 Build 0)  -->
<svg version="1.1" xmlns="http://www.w3.org/2000/svg" xmlns:xlink="http://www.w3.org/1999/xlink" x="0px" y="0px"
	 viewBox="0 0 708.66 708.66" style="enable-background:new 0 0 708.66 708.66;" xml:space="preserve">
<style type="text/css">
	.st0{clip-path:url(#SVGID_00000179624897053914500600000008021583722726833566_);}
	.st1{clip-path:url(#SVGID_00000106863461103844478220000006499354366495781512_);}
	.st2{clip-path:url(#SVGID_00000157269054816797154590000017198074726459409052_);}
	.st3{clip-path:url(#SVGID_00000097471559325809668780000010093664918431911871_);}
	
		.st4{clip-path:url(#SVGID_00000143575674385585154550000013821367658619688634_);fill:url(#SVGID_00000084504368266788257890000008820987511905647496_);}
	
		.st5{clip-path:url(#SVGID_00000102531567882785523390000003008201756316952484_);fill:url(#SVGID_00000038409328936095127060000014149479817597155717_);}
	
		.st6{clip-path:url(#SVGID_00000071526593049919271240000009939760121979067285_);fill:url(#SVGID_00000147221137885760127730000005547594259255228046_);}
	
		.st7{clip-path:url(#SVGID_00000054974647005909752400000007813997722133050526_);fill:url(#SVGID_00000008106669830040212320000000439201449584068773_);}
	
		.st8{clip-path:url(#SVGID_00000005946635185691772250000000524016751620398010_);fill:url(#SVGID_00000078760670344807110860000012125132124413674412_);}
	
		.st9{clip-path:url(#SVGID_00000014609501978490981910000010201031089292094092_);fill:url(#SVGID_00000080197483433069690180000011189443656364696199_);}
	
		.st10{clip-path:url(#SVGID_00000021103211859936593460000015700886757123620227_);fill:url(#SVGID_00000102542668984238454560000000787029334865403059_);}
	
		.st11{clip-path:url(#SVGID_00000146492103225761252800000008086397958579852165_);fill:url(#SVGID_00000049902416891974451330000010101534256693045909_);}
	
		.st12{clip-path:url(#SVGID_00000065057355670378291520000002048907715569795473_);fill:url(#SVGID_00000119805386220558523000000015644053057232836492_);}
	
		.st13{clip-path:url(#SVGID_00000065054069677321156870000004147098761908362135_);fill:url(#SVGID_00000148645701996388167610000003079763555497605511_);}
	
		.st14{clip-path:url(#SVGID_00000178919658489530506430000009434048338793462196_);fill:url(#SVGID_00000119111558677306656040000005947646956833008541_);}
	
		.st15{clip-path:url(#SVGID_00000047045169108486200330000006967633435405898663_);fill:url(#SVGID_00000054247787251668946670000007798499466319976364_);}
	
		.st16{clip-path:url(#SVGID_00000174592115927624542660000018206147543446540681_);fill:url(#SVGID_00000169542964650592160710000011758835638890419858_);}
	.st17{display:none;}
	.st18{display:inline;}
	.st19{fill:#252B42;}
	.st20{font-family:'Georgia-Bold';}
	.st21{font-size:120.5872px;}
</style>
<g id="Слой_1">
	<g>
		<g>
			<defs>
				<rect id="SVGID_1_" y="0" width="708.66" height="708.66"/>
			</defs>
			<clipPath id="SVGID_00000051351265573635298980000017015875417577932163_">
				<use xlink:href="#SVGID_1_"  style="overflow:visible;"/>
			</clipPath>
			<g style="clip-path:url(#SVGID_00000051351265573635298980000017015875417577932163_);">
				<defs>
					<rect id="SVGID_00000079471122728537883520000009044584519626424981_" y="0" width="708.66" height="708.66"/>
				</defs>
				<clipPath id="SVGID_00000122697544660136658340000015814712460519786382_">
					<use xlink:href="#SVGID_00000079471122728537883520000009044584519626424981_"  style="overflow:visible;"/>
				</clipPath>
				<g style="clip-path:url(#SVGID_00000122697544660136658340000015814712460519786382_);">
					<defs>
						<rect id="SVGID_00000134956507568881666060000003294132666689246086_" x="71.55" y="3.83" width="573.38" height="701.21"/>
					</defs>
					<clipPath id="SVGID_00000011711206381530661730000011795764520948595876_">
						<use xlink:href="#SVGID_00000134956507568881666060000003294132666689246086_"  style="overflow:visible;"/>
					</clipPath>
					<g style="clip-path:url(#SVGID_00000011711206381530661730000011795764520948595876_);">
						<defs>
							<rect id="SVGID_00000069384830792571091990000015427521729618186424_" x="71.55" y="3.83" width="573.38" height="701.21"/>
						</defs>
						<clipPath id="SVGID_00000059989449656647076020000005751546999828976549_">
							<use xlink:href="#SVGID_00000069384830792571091990000015427521729618186424_"  style="overflow:visible;"/>
						</clipPath>
						<g style="clip-path:url(#SVGID_00000059989449656647076020000005751546999828976549_);">
							<defs>
								<path id="SVGID_00000166665714070775404280000013201069400129428661_" d="M642.73,565.41c7.2,2.89-4.47,1.1-17.94,1.17
									c-6.77,0.04-13.63,0.09-22,0.12c-14.81,0.05-27.75,1.37-40.18,2.22c-6.62,0.45-19.1-0.68-25.24-3.51
									c-6.61-2.83-15.31-8.2-19.53-11.66c-2.66-2.19-7.45-7.85-11.56-12.39c-2.74-3.02-5.09-6.34-9.78-7.6l-41.13-6.31
									c-2.75-0.15-4.76,0.23-6.71,1.66c-27.58,20.26-15.65,66.96-16.33,67.24c-25.84-45.63-6.75-64.16-3.34-66.97
									c0.67-0.54,1.25-1.19,1.69-1.93c1.13-1.91,0.94-3.64,0.36-4.97c-0.69-1.59-2.09-2.76-3.76-3.24
									c-16.76-4.8-35.93-6.14-53.69-4.87c-8.59,0.62-17.59,2.54-25.2,4.63c-24.56,6.73-42.34,19.59-42.34,19.59
									c9.41-12.63,42.78-24.76,54.82-28.73c2.66-0.88,5.39-1.52,8.16-1.91c8.24-1.16,27.62-3.15,53.92-1.02
									c35.46,2.89,69.51,15.04,69.51,15.04c5.22,1.42,10.52,1.96,14.62,2.14c4.62,0.2,9.24-0.49,13.59-2.07
									c18.4-6.68,19.87-13.48,18.67-19.46c-0.29-1.47-1.52-2.58-3.02-2.7c-25.11-1.88-43.25-5.67-69.34-15.61
									c-9.21-3.51-31.08-4.63-35.4-4.82c-9.85-0.44-11.65-2.4-11.65-2.46c7.78-3.57,35.21-1.11,46.23-0.08
									c2.67,0.25,5.29,0.84,7.82,1.74c24.27,8.68,69.49,14.28,77.15,11.66c2.7-0.92,5.47-1.63,7.8-3.28
									c10.03-7.08,38.83-28.89,28.31-38.96c-12.66-12.11-11.09-17.31-11.09-17.31s0.19-1.89,6.9,1.85
									c8.99,5.01,36.49-6.23,22.92-14.91c-19.75-12.64-38.43-66.44-38.82-70.12c-0.41-3.86-1.63-42.84-1.85-53.86
									c-0.04-1.95-1.69-4.23-2.65-6.01c-41.45-76.8-92.46-106.74-107.94-110.49c-0.17-0.04-0.34-0.09-0.51-0.14
									c-30.73-9.6-51-4.12-51-4.12c-2.37,0.46-3.72,4.11-3.09,9c0.08,0.61-0.95,0.65-1.16,0.07c-0.27-0.81-0.7-1.61-1.16-2.4
									c-0.46-0.79-0.94-1.56-1.35-2.32c-8.23-15.7-17.03-29.28-29.57-43.58c-5.86-6.68-9.17-11-15.34-16.64
									c-4.61-4.21-11.53-9.37-15.99-12.48c-4.98-3.48-11.43-3.44-15.02-3.07c-1.88,0.19-3.65,0.98-5.04,2.26
									c-12.94,11.99-29.42,53.28-34.48,73.54c-1.67,6.67-2.77,11.32-2.77,11.32c-0.92,4.51,0.05-0.32-2.22,12.76
									c-0.62,3.6,0,0-1.29,7.26c-0.72,4.06-0.34,22.43-0.34,22.43c0.37,14.14,5.27,41.04,5.27,41.04
									c2.69,13.06,8.78,23.2,8.78,23.2c-4.62-0.09-22.46-34.76-25.05-40.03c-2.19-4.46-6.48-4.61-7.88-4.51
									c-0.32,0.02-0.64,0.03-0.96,0.04c-24.01,0.41-59.2,38.53-59.74,39.13c12.38-30.32,44.91-45.75,53.85-52.87
									c8.93-7.12,7.43-33.07-7.46-27.34c-5.96,2.3-22.25,13.23-38.27,27.52c-6.77,6.04-15.12,12.49-21.44,18.67
									c-16.09,15.72-27.36,29.58-27.36,29.58c-20.52,26.43-23.36,31.44-38.08,64.7c-15.5,35.02-20.52,59.9-20.52,59.9
									s-6.07,26.64-5.18,80.41c0.69,41.59,14.17,94.22,14.17,94.22c3.08,14.11,10.23,30.94,10.23,30.94l14.61,32.54
									c8.31,18.67,23.29,43.07,23.29,43.07c-6.28-6.1-9.8-10.91-21.08-25.51c-11.28-14.6-5.18-7.21-15.9-23.29
									c-10.72-16.09-16.46-30.87-16.46-30.87l-12.2-32.72c0,0-5.18-10.54-9.06-36.05c-3.88-25.51-0.82-1.45-4.83-39.38
									c-3.54-37.89-0.11-57.29,0.03-60.82c0.14-3.52,1.65-22.58,5.73-40.86c3.94-17.68,8.63-31.91,16.64-55.09
									c5.93-17.95,15.78-36.8,20.06-43.8c1.05-1.71,2.03-3.46,2.96-5.23c3.38-6.47,14.95-24.94,31.15-42.85
									c14.32-15.83,24.77-23.85,45.48-41.97c20.71-18.11,55.03-34.38,55.03-34.38c4.63-2.88,7-8.08,8.89-12.8
									c7.74-22.3,18.27-43.04,29.59-63.54c0.72-1.31,1.58-2.53,2.5-3.7c5.5-7.04,2.81-16.93,1.92-25.35
									c-1.42-18.43-11.34-34.96-25.51-47.24c-0.47-0.47-1.18-0.91-1.65-1.38c-10.39-8.98-22.44-14.68-34.54-20.67
									c1.08,0.48,1.16,0.25,0,0c14.93,3.16,28.63,8.83,42.33,17.81c2.36,1.89,17.24,13.9,20.31,17.01
									c9.66,9.77,15.12,21.73,20.31,34.02c1.42,2.36,2.36,5.2,5.2,6.14c11.81,3.31,21.26,10.87,30.71,18.43
									c6.61,6.14,11.89,12.6,18.03,19.22c0.47,0.47,0.87,1.1,1.34,1.57c6.14,6.61,9.86,13.93,14.11,21.49
									c1.42,2.36,2.96,5.15,4.02,7.44c2.14,4.62,3.41,9.08,6.24,13.8c1.42,2.36,3.69,1.87,6.06,1.87c5.67,0,10.7-0.41,15.9-2.77
									c2.27-0.94,4.46-1.89,5.82-2.5c0.68-0.3,12.34-5.06,14.23-5.82c1.18-0.47,2.34-0.97,3.48-1.52
									c15.97-7.69,22.55-10.89,38.07-20.02c11.34-7.09,21.97-13.44,31.89-22.41c2.64-2.64,4.14-5.69,5.34-9.19
									c1.15-3.33,1.81-6.8,2.03-10.31c0.47-7.7,1.48-15.52,0.77-23.3c-0.16-1.74-1.61-10.58-2.64-26.76
									c-0.2-3.15-1.91-11.1-3.51-14.88c-3.49-8.24-8.94-17.07-9.06-18.49c0.05,0,7.85,9.28,13.91,21.68
									c1.85,3.79,3.33,6.07,4.62,10.03c2.37,7.25,4.46,16.84,5.36,21.35c0.69,3.43,1.52,9.01,1.53,12.57
									c0,7.51-0.05,14.39-0.37,21.76c0,1.89,1.42,3.78,1.89,5.67c2.36,4.72,4.48,8.88,4.95,14.08
									c1.42,16.06,2.61,31.75,0.72,47.81c-1.89,13.23-4.25,25.04-12.76,36.38c-1.89,2.83-2.84,6.24-0.95,9.08
									c0.47,0.47,0.87,1.01,1.34,1.48c0.39,0.39,2.73,2.3,3.17,2.66c0,0,0.01,0,0.01,0c0.01,0.01,0.02,0.02,0.03,0.03
									c0,0,0.01,0.01,0.02,0.01l0,0c0.86,0.72,1.98,1.66,3.34,2.79c8.98,7.09,13.4,14.52,21.43,22.55
									c0.47,0.47,1.37,1.55,1.84,2.02c5.47,5.92,8.96,12.84,13.45,19.67c0.25,0.38,0.69,0.99,0.96,1.36
									c1.67,2.24,3.19,4.72,4.49,7.32c5.18,9.07,11.15,17.35,14.31,27c0.54,1.64,0.82,3.37,0.81,5.11
									c-0.11,16.15-1.26,31.54,1.89,48.21c3.78,17.95,11.14,33.34,22.2,48.19c1.57,2.1,3.31,4.25,5.2,6.14
									c6.14,6.14,11.81,10.39,19.37,15.12c3.78,2.83,4.72,7.56,2.83,11.81c-5.2,11.34-11.34,21.73-20.79,29.76
									c-4.72,3.78-9.92,4.72-14.65,8.5c-2.36,1.89-3.78,4.25-5.2,6.61c-6.28,10.32-13.06,19.35-22.59,26.75
									c-1.03,0.8-2.21,1.65-3.42,2.13c-0.36,0.14-0.91,0.38-1.42,0.61c-0.51,0.23-1,0.44-1.24,0.52c-4.1,1.45-6.81,2.99-9.42,6.03
									c-3.78,4.72-6.88,10.76-10.66,15.48c-3.31,3.78-6.92,6.81-11.65,8.23c-3.78,1.42-10.02,4.98-8.6,9.71
									c1.42,5.67,8.05,8.49,12.77,11.33c7.09,4.25,15.12,6.14,23.15,7.09C590.77,561.63,617.22,556.91,642.73,565.41"/>
							</defs>
							<clipPath id="SVGID_00000086652024776251641810000016529279141856464031_">
								<use xlink:href="#SVGID_00000166665714070775404280000013201069400129428661_"  style="overflow:visible;"/>
							</clipPath>
							
								<linearGradient id="SVGID_00000083790767611546236350000006404998885022817694_" gradientUnits="userSpaceOnUse" x1="0.8057" y1="-0.512" x2="1.2782" y2="-0.512" gradientTransform="matrix(697.3043 1375.826 1375.826 -697.3043 327.1441 -1463.5094)">
								<stop  offset="0" style="stop-color:#CBB447"/>
								<stop  offset="4.883834e-03" style="stop-color:#CEB041"/>
								<stop  offset="0.0269" style="stop-color:#DAA02B"/>
								<stop  offset="0.053" style="stop-color:#E3931A"/>
								<stop  offset="0.0852" style="stop-color:#E98A0F"/>
								<stop  offset="0.1303" style="stop-color:#ED8508"/>
								<stop  offset="0.2558" style="stop-color:#EE8406"/>
								<stop  offset="0.2709" style="stop-color:#ED7A09"/>
								<stop  offset="0.3008" style="stop-color:#ED6F0C"/>
								<stop  offset="0.3429" style="stop-color:#EC680E"/>
								<stop  offset="0.4598" style="stop-color:#EC660F"/>
								<stop  offset="0.4797" style="stop-color:#E05716"/>
								<stop  offset="0.5072" style="stop-color:#D54C1C"/>
								<stop  offset="0.5459" style="stop-color:#D0451F"/>
								<stop  offset="0.6535" style="stop-color:#CE4320"/>
								<stop  offset="0.7439" style="stop-color:#CD4120"/>
								<stop  offset="0.7765" style="stop-color:#C83A20"/>
								<stop  offset="0.7997" style="stop-color:#C12F1F"/>
								<stop  offset="0.8173" style="stop-color:#B71F1F"/>
								<stop  offset="0.9063" style="stop-color:#B51F20"/>
								<stop  offset="0.9384" style="stop-color:#AE2121"/>
								<stop  offset="0.9613" style="stop-color:#A32325"/>
								<stop  offset="0.9798" style="stop-color:#922729"/>
								<stop  offset="0.9954" style="stop-color:#7C2B2F"/>
								<stop  offset="1" style="stop-color:#742D31"/>
							</linearGradient>
							
								<polygon style="clip-path:url(#SVGID_00000086652024776251641810000016529279141856464031_);fill:url(#SVGID_00000083790767611546236350000006404998885022817694_);" points="
								531.33,-230.19 927.17,550.84 188.21,925.36 -207.63,144.34 							"/>
						</g>
						<g style="clip-path:url(#SVGID_00000059989449656647076020000005751546999828976549_);">
							<defs>
								<path id="SVGID_00000037667384783674774200000017105267412535183517_" d="M589.61,603.68c0,0,53.97,5.42,53.97,16.76
									c0,0-78.62-15.77-144.68,24.65c-66.06,40.42-156.03,55.46-156.03,55.46s-50.04,10.11-89.23,0
									c-39.19-10.11-69.76-38.21-69.76-38.21s-11.83-12.57-23.41-32.78c0,0,50.78,52.5,92.93,53.24
									c42.15,0.74,42.15,4.44,94.16-7.64c52.01-12.08,156.77-57.75,156.77-57.75S527.98,602.45,589.61,603.68"/>
							</defs>
							<clipPath id="SVGID_00000161617400224491841280000016062356392684189845_">
								<use xlink:href="#SVGID_00000037667384783674774200000017105267412535183517_"  style="overflow:visible;"/>
							</clipPath>
							
								<linearGradient id="SVGID_00000136409557130232599000000015191784797177335736_" gradientUnits="userSpaceOnUse" x1="0.8057" y1="-0.5042" x2="1.2782" y2="-0.5042" gradientTransform="matrix(697.3043 1375.826 1375.826 -697.3043 225.5284 -1412.0079)">
								<stop  offset="0" style="stop-color:#CBB447"/>
								<stop  offset="4.883834e-03" style="stop-color:#CEB041"/>
								<stop  offset="0.0269" style="stop-color:#DAA02B"/>
								<stop  offset="0.053" style="stop-color:#E3931A"/>
								<stop  offset="0.0852" style="stop-color:#E98A0F"/>
								<stop  offset="0.1303" style="stop-color:#ED8508"/>
								<stop  offset="0.2558" style="stop-color:#EE8406"/>
								<stop  offset="0.2709" style="stop-color:#ED7A09"/>
								<stop  offset="0.3008" style="stop-color:#ED6F0C"/>
								<stop  offset="0.3429" style="stop-color:#EC680E"/>
								<stop  offset="0.4598" style="stop-color:#EC660F"/>
								<stop  offset="0.4797" style="stop-color:#E05716"/>
								<stop  offset="0.5072" style="stop-color:#D54C1C"/>
								<stop  offset="0.5459" style="stop-color:#D0451F"/>
								<stop  offset="0.6535" style="stop-color:#CE4320"/>
								<stop  offset="0.7439" style="stop-color:#CD4120"/>
								<stop  offset="0.7765" style="stop-color:#C83A20"/>
								<stop  offset="0.7997" style="stop-color:#C12F1F"/>
								<stop  offset="0.8173" style="stop-color:#B71F1F"/>
								<stop  offset="0.9063" style="stop-color:#B51F20"/>
								<stop  offset="0.9384" style="stop-color:#AE2121"/>
								<stop  offset="0.9613" style="stop-color:#A32325"/>
								<stop  offset="0.9798" style="stop-color:#922729"/>
								<stop  offset="0.9954" style="stop-color:#7C2B2F"/>
								<stop  offset="1" style="stop-color:#742D31"/>
							</linearGradient>
							
								<polygon style="clip-path:url(#SVGID_00000161617400224491841280000016062356392684189845_);fill:url(#SVGID_00000136409557130232599000000015191784797177335736_);" points="
								544.84,407.64 687.21,688.54 259.2,905.47 116.83,624.56 							"/>
						</g>
						<g style="clip-path:url(#SVGID_00000059989449656647076020000005751546999828976549_);">
							<defs>
								<path id="SVGID_00000120545588811671552390000003462563725415957169_" d="M525.84,209.18c0.01,0.01,0.02,0.01,0.02,0.02
									C525.86,209.2,525.85,209.19,525.84,209.18C525.84,209.18,525.84,209.18,525.84,209.18"/>
							</defs>
							<clipPath id="SVGID_00000023271854663229391160000000184819904805923224_">
								<use xlink:href="#SVGID_00000120545588811671552390000003462563725415957169_"  style="overflow:visible;"/>
							</clipPath>
							
								<linearGradient id="SVGID_00000182512178640777090460000016235501299553270162_" gradientUnits="userSpaceOnUse" x1="1.8241" y1="-1.6091" x2="2.2965" y2="-1.6091" gradientTransform="matrix(308.0067 607.7168 607.7168 -308.0067 788.592 -1697.3832)">
								<stop  offset="0" style="stop-color:#CBB447"/>
								<stop  offset="4.883834e-03" style="stop-color:#CEB041"/>
								<stop  offset="0.0269" style="stop-color:#DAA02B"/>
								<stop  offset="0.053" style="stop-color:#E3931A"/>
								<stop  offset="0.0852" style="stop-color:#E98A0F"/>
								<stop  offset="0.1303" style="stop-color:#ED8508"/>
								<stop  offset="0.2558" style="stop-color:#EE8406"/>
								<stop  offset="0.2709" style="stop-color:#ED7A09"/>
								<stop  offset="0.3008" style="stop-color:#ED6F0C"/>
								<stop  offset="0.3429" style="stop-color:#EC680E"/>
								<stop  offset="0.4598" style="stop-color:#EC660F"/>
								<stop  offset="0.4797" style="stop-color:#E05716"/>
								<stop  offset="0.5072" style="stop-color:#D54C1C"/>
								<stop  offset="0.5459" style="stop-color:#D0451F"/>
								<stop  offset="0.6535" style="stop-color:#CE4320"/>
								<stop  offset="0.7439" style="stop-color:#CD4120"/>
								<stop  offset="0.7765" style="stop-color:#C83A20"/>
								<stop  offset="0.7997" style="stop-color:#C12F1F"/>
								<stop  offset="0.8173" style="stop-color:#B71F1F"/>
								<stop  offset="0.9063" style="stop-color:#B51F20"/>
								<stop  offset="0.9384" style="stop-color:#AE2121"/>
								<stop  offset="0.9613" style="stop-color:#A32325"/>
								<stop  offset="0.9798" style="stop-color:#922729"/>
								<stop  offset="0.9954" style="stop-color:#7C2B2F"/>
								<stop  offset="1" style="stop-color:#742D31"/>
							</linearGradient>
							
								<polygon style="clip-path:url(#SVGID_00000023271854663229391160000000184819904805923224_);fill:url(#SVGID_00000182512178640777090460000016235501299553270162_);" points="
								525.86,209.16 525.88,209.2 525.84,209.22 525.82,209.18 							"/>
						</g>
						<g style="clip-path:url(#SVGID_00000059989449656647076020000005751546999828976549_);">
							<defs>
								<path id="SVGID_00000066500610425175044640000007721459889859834292_" d="M525.64,209.01c0.06,0.05,0.13,0.1,0.19,0.17
									c0,0,0,0-0.01,0C525.76,209.12,525.7,209.06,525.64,209.01"/>
							</defs>
							<clipPath id="SVGID_00000138556091861940427910000002273220561700427195_">
								<use xlink:href="#SVGID_00000066500610425175044640000007721459889859834292_"  style="overflow:visible;"/>
							</clipPath>
							
								<linearGradient id="SVGID_00000124130728213206254860000001655429693510434750_" gradientUnits="userSpaceOnUse" x1="0.8057" y1="-0.7107" x2="1.2782" y2="-0.7107" gradientTransform="matrix(697.3043 1375.826 1375.826 -697.3043 788.4837 -1697.3282)">
								<stop  offset="0" style="stop-color:#CBB447"/>
								<stop  offset="4.883834e-03" style="stop-color:#CEB041"/>
								<stop  offset="0.0269" style="stop-color:#DAA02B"/>
								<stop  offset="0.053" style="stop-color:#E3931A"/>
								<stop  offset="0.0852" style="stop-color:#E98A0F"/>
								<stop  offset="0.1303" style="stop-color:#ED8508"/>
								<stop  offset="0.2558" style="stop-color:#EE8406"/>
								<stop  offset="0.2709" style="stop-color:#ED7A09"/>
								<stop  offset="0.3008" style="stop-color:#ED6F0C"/>
								<stop  offset="0.3429" style="stop-color:#EC680E"/>
								<stop  offset="0.4598" style="stop-color:#EC660F"/>
								<stop  offset="0.4797" style="stop-color:#E05716"/>
								<stop  offset="0.5072" style="stop-color:#D54C1C"/>
								<stop  offset="0.5459" style="stop-color:#D0451F"/>
								<stop  offset="0.6535" style="stop-color:#CE4320"/>
								<stop  offset="0.7439" style="stop-color:#CD4120"/>
								<stop  offset="0.7765" style="stop-color:#C83A20"/>
								<stop  offset="0.7997" style="stop-color:#C12F1F"/>
								<stop  offset="0.8173" style="stop-color:#B71F1F"/>
								<stop  offset="0.9063" style="stop-color:#B51F20"/>
								<stop  offset="0.9384" style="stop-color:#AE2121"/>
								<stop  offset="0.9613" style="stop-color:#A32325"/>
								<stop  offset="0.9798" style="stop-color:#922729"/>
								<stop  offset="0.9954" style="stop-color:#7C2B2F"/>
								<stop  offset="1" style="stop-color:#742D31"/>
							</linearGradient>
							
								<polygon style="clip-path:url(#SVGID_00000138556091861940427910000002273220561700427195_);fill:url(#SVGID_00000124130728213206254860000001655429693510434750_);" points="
								525.79,208.93 525.9,209.14 525.68,209.26 525.57,209.05 							"/>
						</g>
						<g style="clip-path:url(#SVGID_00000059989449656647076020000005751546999828976549_);">
							<defs>
								<path id="SVGID_00000035491636982482930410000006158544686094221956_" d="M524.81,208.32c0.17,0.13,0.35,0.29,0.57,0.47
									C525.16,208.62,524.97,208.45,524.81,208.32"/>
							</defs>
							<clipPath id="SVGID_00000101092872593314426610000006588592557012354491_">
								<use xlink:href="#SVGID_00000035491636982482930410000006158544686094221956_"  style="overflow:visible;"/>
							</clipPath>
							
								<linearGradient id="SVGID_00000155843751222838078050000002143652791957619628_" gradientUnits="userSpaceOnUse" x1="0.8057" y1="-0.7105" x2="1.2782" y2="-0.7105" gradientTransform="matrix(697.3043 1375.826 1375.826 -697.3043 787.8594 -1697.0118)">
								<stop  offset="0" style="stop-color:#CBB447"/>
								<stop  offset="4.883834e-03" style="stop-color:#CEB041"/>
								<stop  offset="0.0269" style="stop-color:#DAA02B"/>
								<stop  offset="0.053" style="stop-color:#E3931A"/>
								<stop  offset="0.0852" style="stop-color:#E98A0F"/>
								<stop  offset="0.1303" style="stop-color:#ED8508"/>
								<stop  offset="0.2558" style="stop-color:#EE8406"/>
								<stop  offset="0.2709" style="stop-color:#ED7A09"/>
								<stop  offset="0.3008" style="stop-color:#ED6F0C"/>
								<stop  offset="0.3429" style="stop-color:#EC680E"/>
								<stop  offset="0.4598" style="stop-color:#EC660F"/>
								<stop  offset="0.4797" style="stop-color:#E05716"/>
								<stop  offset="0.5072" style="stop-color:#D54C1C"/>
								<stop  offset="0.5459" style="stop-color:#D0451F"/>
								<stop  offset="0.6535" style="stop-color:#CE4320"/>
								<stop  offset="0.7439" style="stop-color:#CD4120"/>
								<stop  offset="0.7765" style="stop-color:#C83A20"/>
								<stop  offset="0.7997" style="stop-color:#C12F1F"/>
								<stop  offset="0.8173" style="stop-color:#B71F1F"/>
								<stop  offset="0.9063" style="stop-color:#B51F20"/>
								<stop  offset="0.9384" style="stop-color:#AE2121"/>
								<stop  offset="0.9613" style="stop-color:#A32325"/>
								<stop  offset="0.9798" style="stop-color:#922729"/>
								<stop  offset="0.9954" style="stop-color:#7C2B2F"/>
								<stop  offset="1" style="stop-color:#742D31"/>
							</linearGradient>
							
								<polygon style="clip-path:url(#SVGID_00000101092872593314426610000006588592557012354491_);fill:url(#SVGID_00000155843751222838078050000002143652791957619628_);" points="
								525.26,208.09 525.57,208.69 524.92,209.02 524.62,208.41 							"/>
						</g>
						<g style="clip-path:url(#SVGID_00000059989449656647076020000005751546999828976549_);">
							<defs>
								<path id="SVGID_00000061459436642549931190000006310467623184942223_" d="M524.63,208.17c0.05,0.04,0.1,0.09,0.16,0.14
									C524.74,208.26,524.68,208.21,524.63,208.17"/>
							</defs>
							<clipPath id="SVGID_00000091009858590869741870000016625574193280010673_">
								<use xlink:href="#SVGID_00000061459436642549931190000006310467623184942223_"  style="overflow:visible;"/>
							</clipPath>
							
								<linearGradient id="SVGID_00000176011935015867129740000007430163941199424185_" gradientUnits="userSpaceOnUse" x1="0.8057" y1="-0.7103" x2="1.2782" y2="-0.7103" gradientTransform="matrix(697.3043 1375.826 1375.826 -697.3043 787.4951 -1696.8271)">
								<stop  offset="0" style="stop-color:#CBB447"/>
								<stop  offset="4.883834e-03" style="stop-color:#CEB041"/>
								<stop  offset="0.0269" style="stop-color:#DAA02B"/>
								<stop  offset="0.053" style="stop-color:#E3931A"/>
								<stop  offset="0.0852" style="stop-color:#E98A0F"/>
								<stop  offset="0.1303" style="stop-color:#ED8508"/>
								<stop  offset="0.2558" style="stop-color:#EE8406"/>
								<stop  offset="0.2709" style="stop-color:#ED7A09"/>
								<stop  offset="0.3008" style="stop-color:#ED6F0C"/>
								<stop  offset="0.3429" style="stop-color:#EC680E"/>
								<stop  offset="0.4598" style="stop-color:#EC660F"/>
								<stop  offset="0.4797" style="stop-color:#E05716"/>
								<stop  offset="0.5072" style="stop-color:#D54C1C"/>
								<stop  offset="0.5459" style="stop-color:#D0451F"/>
								<stop  offset="0.6535" style="stop-color:#CE4320"/>
								<stop  offset="0.7439" style="stop-color:#CD4120"/>
								<stop  offset="0.7765" style="stop-color:#C83A20"/>
								<stop  offset="0.7997" style="stop-color:#C12F1F"/>
								<stop  offset="0.8173" style="stop-color:#B71F1F"/>
								<stop  offset="0.9063" style="stop-color:#B51F20"/>
								<stop  offset="0.9384" style="stop-color:#AE2121"/>
								<stop  offset="0.9613" style="stop-color:#A32325"/>
								<stop  offset="0.9798" style="stop-color:#922729"/>
								<stop  offset="0.9954" style="stop-color:#7C2B2F"/>
								<stop  offset="1" style="stop-color:#742D31"/>
							</linearGradient>
							
								<polygon style="clip-path:url(#SVGID_00000091009858590869741870000016625574193280010673_);fill:url(#SVGID_00000176011935015867129740000007430163941199424185_);" points="
								524.76,208.1 524.85,208.28 524.67,208.37 524.58,208.19 							"/>
						</g>
						<g style="clip-path:url(#SVGID_00000059989449656647076020000005751546999828976549_);">
							<defs>
								<path id="SVGID_00000070097884046833347780000004171247507457143439_" d="M524.55,208.1c-0.04-0.03-0.08-0.07-0.11-0.09
									C524.47,208.03,524.51,208.06,524.55,208.1"/>
							</defs>
							<clipPath id="SVGID_00000080175578421732625130000009023603565980297879_">
								<use xlink:href="#SVGID_00000070097884046833347780000004171247507457143439_"  style="overflow:visible;"/>
							</clipPath>
							
								<linearGradient id="SVGID_00000042013090094039946520000011946053523433575332_" gradientUnits="userSpaceOnUse" x1="0.8057" y1="-0.7102" x2="1.2782" y2="-0.7102" gradientTransform="matrix(697.3043 1375.826 1375.826 -697.3043 787.2804 -1696.7184)">
								<stop  offset="0" style="stop-color:#CBB447"/>
								<stop  offset="4.883834e-03" style="stop-color:#CEB041"/>
								<stop  offset="0.0269" style="stop-color:#DAA02B"/>
								<stop  offset="0.053" style="stop-color:#E3931A"/>
								<stop  offset="0.0852" style="stop-color:#E98A0F"/>
								<stop  offset="0.1303" style="stop-color:#ED8508"/>
								<stop  offset="0.2558" style="stop-color:#EE8406"/>
								<stop  offset="0.2709" style="stop-color:#ED7A09"/>
								<stop  offset="0.3008" style="stop-color:#ED6F0C"/>
								<stop  offset="0.3429" style="stop-color:#EC680E"/>
								<stop  offset="0.4598" style="stop-color:#EC660F"/>
								<stop  offset="0.4797" style="stop-color:#E05716"/>
								<stop  offset="0.5072" style="stop-color:#D54C1C"/>
								<stop  offset="0.5459" style="stop-color:#D0451F"/>
								<stop  offset="0.6535" style="stop-color:#CE4320"/>
								<stop  offset="0.7439" style="stop-color:#CD4120"/>
								<stop  offset="0.7765" style="stop-color:#C83A20"/>
								<stop  offset="0.7997" style="stop-color:#C12F1F"/>
								<stop  offset="0.8173" style="stop-color:#B71F1F"/>
								<stop  offset="0.9063" style="stop-color:#B51F20"/>
								<stop  offset="0.9384" style="stop-color:#AE2121"/>
								<stop  offset="0.9613" style="stop-color:#A32325"/>
								<stop  offset="0.9798" style="stop-color:#922729"/>
								<stop  offset="0.9954" style="stop-color:#7C2B2F"/>
								<stop  offset="1" style="stop-color:#742D31"/>
							</linearGradient>
							
								<polygon style="clip-path:url(#SVGID_00000080175578421732625130000009023603565980297879_);fill:url(#SVGID_00000042013090094039946520000011946053523433575332_);" points="
								524.52,207.96 524.59,208.08 524.46,208.14 524.4,208.02 							"/>
						</g>
						<g style="clip-path:url(#SVGID_00000059989449656647076020000005751546999828976549_);">
							<defs>
								<path id="SVGID_00000024707232528519826250000018151815575110606488_" d="M522.2,347.08c0.11,0.18-0.06,0.4-0.26,0.34
									l-6.44-1.93c-1.51-0.45-3.07-0.7-4.64-0.75c-2.62-0.08-6.6-0.13-8.1,0.21c-0.89,0.2-3.97,2.04-5.51,2.64
									c-1.54,0.6-7.71,0.48-10.79-0.26c-3.08-0.74-33.65-31-33.65-31s47.24,0.19,48.31,0.27c1.1,0.09,4.87,2.69,4.99,3.88
									c0.09,0.92,1.01,4.03,1.23,4.65c0.22,0.62,0.76,3.57,1.08,4.5c0.25,0.74,1.66,3.05,2.03,3.6c0.37,0.56,2.25,2.74,3.11,3.91
									c0.86,1.17,2.09,2.16,1.42,1.54c0.41,0.37,3.69,3.32,4.34,3.98C519.9,343.25,521.53,345.94,522.2,347.08"/>
							</defs>
							<clipPath id="SVGID_00000018231225732506563590000006855101301483447426_">
								<use xlink:href="#SVGID_00000024707232528519826250000018151815575110606488_"  style="overflow:visible;"/>
							</clipPath>
							
								<linearGradient id="SVGID_00000098214238965023352360000013381364413291250088_" gradientUnits="userSpaceOnUse" x1="0.8057" y1="-0.646" x2="1.2782" y2="-0.646" gradientTransform="matrix(697.3043 1375.826 1375.826 -697.3043 619.4424 -1611.6537)">
								<stop  offset="0" style="stop-color:#CBB447"/>
								<stop  offset="4.883834e-03" style="stop-color:#CEB041"/>
								<stop  offset="0.0269" style="stop-color:#DAA02B"/>
								<stop  offset="0.053" style="stop-color:#E3931A"/>
								<stop  offset="0.0852" style="stop-color:#E98A0F"/>
								<stop  offset="0.1303" style="stop-color:#ED8508"/>
								<stop  offset="0.2558" style="stop-color:#EE8406"/>
								<stop  offset="0.2709" style="stop-color:#ED7A09"/>
								<stop  offset="0.3008" style="stop-color:#ED6F0C"/>
								<stop  offset="0.3429" style="stop-color:#EC680E"/>
								<stop  offset="0.4598" style="stop-color:#EC660F"/>
								<stop  offset="0.4797" style="stop-color:#E05716"/>
								<stop  offset="0.5072" style="stop-color:#D54C1C"/>
								<stop  offset="0.5459" style="stop-color:#D0451F"/>
								<stop  offset="0.6535" style="stop-color:#CE4320"/>
								<stop  offset="0.7439" style="stop-color:#CD4120"/>
								<stop  offset="0.7765" style="stop-color:#C83A20"/>
								<stop  offset="0.7997" style="stop-color:#C12F1F"/>
								<stop  offset="0.8173" style="stop-color:#B71F1F"/>
								<stop  offset="0.9063" style="stop-color:#B51F20"/>
								<stop  offset="0.9384" style="stop-color:#AE2121"/>
								<stop  offset="0.9613" style="stop-color:#A32325"/>
								<stop  offset="0.9798" style="stop-color:#922729"/>
								<stop  offset="0.9954" style="stop-color:#7C2B2F"/>
								<stop  offset="1" style="stop-color:#742D31"/>
							</linearGradient>
							
								<polygon style="clip-path:url(#SVGID_00000018231225732506563590000006855101301483447426_);fill:url(#SVGID_00000098214238965023352360000013381364413291250088_);" points="
								508.1,288.3 535.15,341.68 467.01,376.22 439.96,322.84 							"/>
						</g>
						<g style="clip-path:url(#SVGID_00000059989449656647076020000005751546999828976549_);">
							<defs>
								<path id="SVGID_00000016765463684602104560000016642347198280698548_" d="M354.8,529.11c0,0,21.71,86.15,79.94,80.42
									c0,0-74.13,16.82-98.9-71.55C335.85,537.99,338.54,531.06,354.8,529.11"/>
							</defs>
							<clipPath id="SVGID_00000105390098544308094130000001711691102138238854_">
								<use xlink:href="#SVGID_00000016765463684602104560000016642347198280698548_"  style="overflow:visible;"/>
							</clipPath>
							
								<linearGradient id="SVGID_00000109747138826706161610000002288370791250891908_" gradientUnits="userSpaceOnUse" x1="0.8057" y1="-0.4999" x2="1.2782" y2="-0.4999" gradientTransform="matrix(697.3043 1375.826 1375.826 -697.3043 238.0862 -1418.3724)">
								<stop  offset="0" style="stop-color:#CBB447"/>
								<stop  offset="4.883834e-03" style="stop-color:#CEB041"/>
								<stop  offset="0.0269" style="stop-color:#DAA02B"/>
								<stop  offset="0.053" style="stop-color:#E3931A"/>
								<stop  offset="0.0852" style="stop-color:#E98A0F"/>
								<stop  offset="0.1303" style="stop-color:#ED8508"/>
								<stop  offset="0.2558" style="stop-color:#EE8406"/>
								<stop  offset="0.2709" style="stop-color:#ED7A09"/>
								<stop  offset="0.3008" style="stop-color:#ED6F0C"/>
								<stop  offset="0.3429" style="stop-color:#EC680E"/>
								<stop  offset="0.4598" style="stop-color:#EC660F"/>
								<stop  offset="0.4797" style="stop-color:#E05716"/>
								<stop  offset="0.5072" style="stop-color:#D54C1C"/>
								<stop  offset="0.5459" style="stop-color:#D0451F"/>
								<stop  offset="0.6535" style="stop-color:#CE4320"/>
								<stop  offset="0.7439" style="stop-color:#CD4120"/>
								<stop  offset="0.7765" style="stop-color:#C83A20"/>
								<stop  offset="0.7997" style="stop-color:#C12F1F"/>
								<stop  offset="0.8173" style="stop-color:#B71F1F"/>
								<stop  offset="0.9063" style="stop-color:#B51F20"/>
								<stop  offset="0.9384" style="stop-color:#AE2121"/>
								<stop  offset="0.9613" style="stop-color:#A32325"/>
								<stop  offset="0.9798" style="stop-color:#922729"/>
								<stop  offset="0.9954" style="stop-color:#7C2B2F"/>
								<stop  offset="1" style="stop-color:#742D31"/>
							</linearGradient>
							
								<polygon style="clip-path:url(#SVGID_00000105390098544308094130000001711691102138238854_);fill:url(#SVGID_00000109747138826706161610000002288370791250891908_);" points="
								414.53,489.23 473.96,606.48 356.06,666.23 296.63,548.99 							"/>
						</g>
						<g style="clip-path:url(#SVGID_00000059989449656647076020000005751546999828976549_);">
							<defs>
								<path id="SVGID_00000016777905388167324530000017015914405457293440_" d="M355.44,181.93c8.22,3.18,6.49,23.97,5.78,30.41
									c-0.12,1.09-0.84,2.03-1.87,2.4c-17.34,6.23-43.7,63.64-43.86,65.31c-0.33-1.34-24.33-71.65,11.51-132.87
									c0.39-0.66,1.3-1.06,1.93-0.62c3.1,2.14,12.73,6.11,12.54,8.01C337.89,190.89,343.2,177.19,355.44,181.93"/>
							</defs>
							<clipPath id="SVGID_00000101817504382151289280000011757205245296377505_">
								<use xlink:href="#SVGID_00000016777905388167324530000017015914405457293440_"  style="overflow:visible;"/>
							</clipPath>
							
								<linearGradient id="SVGID_00000161610041723302818260000013538492321153209019_" gradientUnits="userSpaceOnUse" x1="0.8057" y1="-0.5813" x2="1.2782" y2="-0.5813" gradientTransform="matrix(697.3043 1375.826 1375.826 -697.3043 450.9839 -1526.2747)">
								<stop  offset="0" style="stop-color:#CBB447"/>
								<stop  offset="4.883834e-03" style="stop-color:#CEB041"/>
								<stop  offset="0.0269" style="stop-color:#DAA02B"/>
								<stop  offset="0.053" style="stop-color:#E3931A"/>
								<stop  offset="0.0852" style="stop-color:#E98A0F"/>
								<stop  offset="0.1303" style="stop-color:#ED8508"/>
								<stop  offset="0.2558" style="stop-color:#EE8406"/>
								<stop  offset="0.2709" style="stop-color:#ED7A09"/>
								<stop  offset="0.3008" style="stop-color:#ED6F0C"/>
								<stop  offset="0.3429" style="stop-color:#EC680E"/>
								<stop  offset="0.4598" style="stop-color:#EC660F"/>
								<stop  offset="0.4797" style="stop-color:#E05716"/>
								<stop  offset="0.5072" style="stop-color:#D54C1C"/>
								<stop  offset="0.5459" style="stop-color:#D0451F"/>
								<stop  offset="0.6535" style="stop-color:#CE4320"/>
								<stop  offset="0.7439" style="stop-color:#CD4120"/>
								<stop  offset="0.7765" style="stop-color:#C83A20"/>
								<stop  offset="0.7997" style="stop-color:#C12F1F"/>
								<stop  offset="0.8173" style="stop-color:#B71F1F"/>
								<stop  offset="0.9063" style="stop-color:#B51F20"/>
								<stop  offset="0.9384" style="stop-color:#AE2121"/>
								<stop  offset="0.9613" style="stop-color:#A32325"/>
								<stop  offset="0.9798" style="stop-color:#922729"/>
								<stop  offset="0.9954" style="stop-color:#7C2B2F"/>
								<stop  offset="1" style="stop-color:#742D31"/>
							</linearGradient>
							
								<polygon style="clip-path:url(#SVGID_00000101817504382151289280000011757205245296377505_);fill:url(#SVGID_00000161610041723302818260000013538492321153209019_);" points="
								348.85,116.89 417.67,252.69 305.98,309.29 237.16,173.5 							"/>
						</g>
						<g style="clip-path:url(#SVGID_00000059989449656647076020000005751546999828976549_);">
							<defs>
								<path id="SVGID_00000157988695039967932130000002453690199557131450_" d="M267.25,482.51
									c15.37-22.06,54.05-44.72,55.65-41.77c-71.52,59.96-86.98,141.11-71.49,122.51c22.38-26.86,63.44-44.75,64.8-45.34
									c-33.03,15.32-83.53,90.69-83.53,90.69c-1.48-55.96,18.49-103.28,18.49-103.28c0.12-18.98,1.97-32.91,1.97-32.91
									c8.81-68.97,62.86-94.32,63.71-94.71c-32.6,29.4-46.86,68.12-55.15,93.77c-0.77,2.39-1.23,4.88-1.29,7.39
									c-0.15,6.2,2.07,6.9,4.02,6.03C265.57,484.39,266.53,483.54,267.25,482.51"/>
							</defs>
							<clipPath id="SVGID_00000180346813917461357040000014511799791493275049_">
								<use xlink:href="#SVGID_00000157988695039967932130000002453690199557131450_"  style="overflow:visible;"/>
							</clipPath>
							
								<linearGradient id="SVGID_00000166641244857545940270000011003188325574551941_" gradientUnits="userSpaceOnUse" x1="0.8057" y1="-0.4543" x2="1.2782" y2="-0.4543" gradientTransform="matrix(697.3043 1375.826 1375.826 -697.3043 123.381 -1360.2369)">
								<stop  offset="0" style="stop-color:#CBB447"/>
								<stop  offset="4.883834e-03" style="stop-color:#CEB041"/>
								<stop  offset="0.0269" style="stop-color:#DAA02B"/>
								<stop  offset="0.053" style="stop-color:#E3931A"/>
								<stop  offset="0.0852" style="stop-color:#E98A0F"/>
								<stop  offset="0.1303" style="stop-color:#ED8508"/>
								<stop  offset="0.2558" style="stop-color:#EE8406"/>
								<stop  offset="0.2709" style="stop-color:#ED7A09"/>
								<stop  offset="0.3008" style="stop-color:#ED6F0C"/>
								<stop  offset="0.3429" style="stop-color:#EC680E"/>
								<stop  offset="0.4598" style="stop-color:#EC660F"/>
								<stop  offset="0.4797" style="stop-color:#E05716"/>
								<stop  offset="0.5072" style="stop-color:#D54C1C"/>
								<stop  offset="0.5459" style="stop-color:#D0451F"/>
								<stop  offset="0.6535" style="stop-color:#CE4320"/>
								<stop  offset="0.7439" style="stop-color:#CD4120"/>
								<stop  offset="0.7765" style="stop-color:#C83A20"/>
								<stop  offset="0.7997" style="stop-color:#C12F1F"/>
								<stop  offset="0.8173" style="stop-color:#B71F1F"/>
								<stop  offset="0.9063" style="stop-color:#B51F20"/>
								<stop  offset="0.9384" style="stop-color:#AE2121"/>
								<stop  offset="0.9613" style="stop-color:#A32325"/>
								<stop  offset="0.9798" style="stop-color:#922729"/>
								<stop  offset="0.9954" style="stop-color:#7C2B2F"/>
								<stop  offset="1" style="stop-color:#742D31"/>
							</linearGradient>
							
								<polygon style="clip-path:url(#SVGID_00000180346813917461357040000014511799791493275049_);fill:url(#SVGID_00000166641244857545940270000011003188325574551941_);" points="
								304.16,340.74 416.01,561.42 249.95,645.58 138.1,424.9 							"/>
						</g>
						<g style="clip-path:url(#SVGID_00000059989449656647076020000005751546999828976549_);">
							<defs>
								<path id="SVGID_00000106122920044524052800000005346970952951670934_" d="M315.5,280.06c0,0.02,0.01,0.03,0.01,0.04
									C315.5,280.1,315.49,280.08,315.5,280.06"/>
							</defs>
							<clipPath id="SVGID_00000011020350538108340080000018040873188552498848_">
								<use xlink:href="#SVGID_00000106122920044524052800000005346970952951670934_"  style="overflow:visible;"/>
							</clipPath>
							
								<linearGradient id="SVGID_00000067925041243620157890000007254496116032696481_" gradientUnits="userSpaceOnUse" x1="1.9322" y1="-1.323" x2="2.4046" y2="-1.323" gradientTransform="matrix(290.7758 573.7194 573.7194 -290.7758 373.8443 -1487.1782)">
								<stop  offset="0" style="stop-color:#CBB447"/>
								<stop  offset="4.883834e-03" style="stop-color:#CEB041"/>
								<stop  offset="0.0269" style="stop-color:#DAA02B"/>
								<stop  offset="0.053" style="stop-color:#E3931A"/>
								<stop  offset="0.0852" style="stop-color:#E98A0F"/>
								<stop  offset="0.1303" style="stop-color:#ED8508"/>
								<stop  offset="0.2558" style="stop-color:#EE8406"/>
								<stop  offset="0.2709" style="stop-color:#ED7A09"/>
								<stop  offset="0.3008" style="stop-color:#ED6F0C"/>
								<stop  offset="0.3429" style="stop-color:#EC680E"/>
								<stop  offset="0.4598" style="stop-color:#EC660F"/>
								<stop  offset="0.4797" style="stop-color:#E05716"/>
								<stop  offset="0.5072" style="stop-color:#D54C1C"/>
								<stop  offset="0.5459" style="stop-color:#D0451F"/>
								<stop  offset="0.6535" style="stop-color:#CE4320"/>
								<stop  offset="0.7439" style="stop-color:#CD4120"/>
								<stop  offset="0.7765" style="stop-color:#C83A20"/>
								<stop  offset="0.7997" style="stop-color:#C12F1F"/>
								<stop  offset="0.8173" style="stop-color:#B71F1F"/>
								<stop  offset="0.9063" style="stop-color:#B51F20"/>
								<stop  offset="0.9384" style="stop-color:#AE2121"/>
								<stop  offset="0.9613" style="stop-color:#A32325"/>
								<stop  offset="0.9798" style="stop-color:#922729"/>
								<stop  offset="0.9954" style="stop-color:#7C2B2F"/>
								<stop  offset="1" style="stop-color:#742D31"/>
							</linearGradient>
							
								<polygon style="clip-path:url(#SVGID_00000011020350538108340080000018040873188552498848_);fill:url(#SVGID_00000067925041243620157890000007254496116032696481_);" points="
								315.5,280.05 315.52,280.09 315.5,280.1 315.48,280.07 							"/>
						</g>
						<g style="clip-path:url(#SVGID_00000059989449656647076020000005751546999828976549_);">
							<defs>
								<path id="SVGID_00000142134355221431338510000003563444623453138085_" d="M231.43,3.83C232.58,4.08,232.5,4.31,231.43,3.83"
									/>
							</defs>
							<clipPath id="SVGID_00000041995844924909472770000008803292326804577684_">
								<use xlink:href="#SVGID_00000142134355221431338510000003563444623453138085_"  style="overflow:visible;"/>
							</clipPath>
							
								<linearGradient id="SVGID_00000124124924576698688090000014084471120731033734_" gradientUnits="userSpaceOnUse" x1="0.8057" y1="-0.588" x2="1.2782" y2="-0.588" gradientTransform="matrix(697.3043 1375.826 1375.826 -697.3043 468.6381 -1535.2222)">
								<stop  offset="0" style="stop-color:#CBB447"/>
								<stop  offset="4.883834e-03" style="stop-color:#CEB041"/>
								<stop  offset="0.0269" style="stop-color:#DAA02B"/>
								<stop  offset="0.053" style="stop-color:#E3931A"/>
								<stop  offset="0.0852" style="stop-color:#E98A0F"/>
								<stop  offset="0.1303" style="stop-color:#ED8508"/>
								<stop  offset="0.2558" style="stop-color:#EE8406"/>
								<stop  offset="0.2709" style="stop-color:#ED7A09"/>
								<stop  offset="0.3008" style="stop-color:#ED6F0C"/>
								<stop  offset="0.3429" style="stop-color:#EC680E"/>
								<stop  offset="0.4598" style="stop-color:#EC660F"/>
								<stop  offset="0.4797" style="stop-color:#E05716"/>
								<stop  offset="0.5072" style="stop-color:#D54C1C"/>
								<stop  offset="0.5459" style="stop-color:#D0451F"/>
								<stop  offset="0.6535" style="stop-color:#CE4320"/>
								<stop  offset="0.7439" style="stop-color:#CD4120"/>
								<stop  offset="0.7765" style="stop-color:#C83A20"/>
								<stop  offset="0.7997" style="stop-color:#C12F1F"/>
								<stop  offset="0.8173" style="stop-color:#B71F1F"/>
								<stop  offset="0.9063" style="stop-color:#B51F20"/>
								<stop  offset="0.9384" style="stop-color:#AE2121"/>
								<stop  offset="0.9613" style="stop-color:#A32325"/>
								<stop  offset="0.9798" style="stop-color:#922729"/>
								<stop  offset="0.9954" style="stop-color:#7C2B2F"/>
								<stop  offset="1" style="stop-color:#742D31"/>
							</linearGradient>
							
								<polygon style="clip-path:url(#SVGID_00000041995844924909472770000008803292326804577684_);fill:url(#SVGID_00000124124924576698688090000014084471120731033734_);" points="
								232.35,3.36 232.78,4.21 231.66,4.77 231.23,3.92 							"/>
						</g>
					</g>
				</g>
			</g>
		</g>
	</g>
</g>
<g id="Слой_2" class="st17">
	<text transform="matrix(1 0 0 1 213.2611 312.5342)" class="st18"><tspan x="0" y="0" class="st19 st20 st21">Camion</tspan><tspan x="0" y="144.71" class="st19 st20 st21">Express</tspan></text>
</g>
</svg>
