<svg width="821" height="363" viewBox="0 0 821 363" fill="none" xmlns="http://www.w3.org/2000/svg">
<path fill-rule="evenodd" clip-rule="evenodd" d="M548.672 3.48953C549.488 3.34836 550.035 2.5722 549.894 1.75589C549.753 0.939575 548.977 0.392242 548.16 0.533386C542.868 1.44858 537.573 2.34723 532.277 3.2305C531.46 3.36676 530.908 4.13968 531.044 4.95682C531.18 5.77396 531.953 6.3259 532.77 6.18964C538.072 5.30542 543.373 4.40576 548.672 3.48953ZM516.855 8.79785C517.672 8.66614 518.229 7.8963 518.097 7.07843C517.965 6.26053 517.195 5.70428 516.378 5.83603C511.075 6.69009 505.77 7.52982 500.464 8.35635C499.645 8.48386 499.085 9.25079 499.213 10.0693C499.34 10.8879 500.107 11.4481 500.926 11.3206C506.237 10.4933 511.546 9.65277 516.855 8.79785ZM484.985 13.7643C485.804 13.6407 486.368 12.8764 486.244 12.0573C486.121 11.2381 485.356 10.6743 484.537 10.7979C479.226 11.5993 473.913 12.3887 468.599 13.167C467.779 13.2871 467.212 14.0489 467.332 14.8686C467.452 15.6882 468.214 16.2554 469.034 16.1353C474.352 15.3564 479.669 14.5664 484.985 13.7643ZM453.074 18.4403C453.894 18.3235 454.464 17.5639 454.347 16.7438C454.23 15.9236 453.471 15.3535 452.651 15.4703C447.333 16.2278 442.014 16.9755 436.693 17.7143C435.872 17.8283 435.3 18.5858 435.414 19.4064C435.528 20.2269 436.285 20.7997 437.106 20.6858C442.43 19.9465 447.752 19.1984 453.074 18.4403ZM421.131 22.8783C421.952 22.7669 422.527 22.0111 422.416 21.1902C422.304 20.3693 421.548 19.7942 420.728 19.9055C415.405 20.6278 410.081 21.3425 404.755 22.0506C403.934 22.1598 403.357 22.914 403.466 23.7352C403.575 24.5564 404.329 25.1336 405.151 25.0244C410.479 24.316 415.805 23.601 421.131 22.8783ZM389.165 27.1308C389.987 27.0234 390.566 26.2705 390.459 25.4491C390.351 24.6276 389.598 24.0487 388.777 24.156C383.451 24.8519 378.123 25.5423 372.794 26.2285C371.972 26.3343 371.392 27.0861 371.497 27.9077C371.603 28.7294 372.355 29.3097 373.177 29.2039C378.508 28.5175 383.837 27.8269 389.165 27.1308ZM357.185 31.2505C358.007 31.1459 358.588 30.3949 358.484 29.5731C358.379 28.7513 357.628 28.1699 356.806 28.2745C354.142 28.6136 351.477 28.952 348.811 29.2897C345.953 29.6519 343.092 30.0056 340.23 30.3532C339.408 30.4531 338.822 31.2007 338.922 32.0231C339.022 32.8455 339.77 33.4312 340.592 33.3313C343.458 32.9832 346.324 32.6288 349.189 32.2659C351.854 31.9281 354.52 31.5897 357.185 31.2505ZM323.394 35.3615C324.216 35.2663 324.806 34.522 324.711 33.6991C324.616 32.8761 323.872 32.2862 323.049 32.3814C320.693 32.654 318.336 32.9254 315.978 33.197L315.971 33.1978C312.598 33.5862 309.224 33.9747 305.853 34.3667C305.03 34.4623 304.44 35.207 304.536 36.0298C304.632 36.8527 305.376 37.4423 306.199 37.3466C309.551 36.9569 312.902 36.5709 316.254 36.1849L316.319 36.1775L316.421 36.1657C318.744 35.8982 321.068 35.6305 323.394 35.3615ZM289.022 39.3934C289.844 39.2922 290.428 38.5436 290.327 37.7214C290.226 36.8992 289.477 36.3147 288.655 36.4159C282.923 37.1216 277.193 37.8558 271.469 38.6362C270.648 38.748 270.074 39.5042 270.185 40.325C270.297 41.1459 271.054 41.7206 271.874 41.6087C277.583 40.8304 283.299 40.098 289.022 39.3934ZM254.774 44.0984C255.593 43.9708 256.153 43.2037 256.025 42.3852C255.898 41.5667 255.131 41.0066 254.312 41.1343C251.456 41.5797 248.603 42.0411 245.751 42.5208C242.867 43.0059 239.989 43.5054 237.116 44.0187C236.3 44.1645 235.757 44.9437 235.903 45.7592C236.049 46.5747 236.828 47.1177 237.644 46.972C240.507 46.4604 243.375 45.9626 246.249 45.4792C249.088 45.0016 251.93 44.5421 254.774 44.0984ZM220.479 50.2132C221.292 50.0516 221.819 49.262 221.658 48.4495C221.496 47.6369 220.707 47.1092 219.894 47.2708C214.16 48.4108 208.443 49.6037 202.738 50.8462C201.929 51.0225 201.415 51.8216 201.592 52.631C201.768 53.4405 202.567 53.9537 203.377 53.7774C209.064 52.5387 214.763 51.3495 220.479 50.2132ZM186.337 57.6414C187.144 57.4514 187.643 56.6438 187.454 55.8374C187.264 55.0311 186.456 54.5313 185.65 54.7213C179.968 56.0594 174.295 57.4437 168.628 58.871C167.824 59.0733 167.337 59.8885 167.539 60.6919C167.742 61.4952 168.557 61.9825 169.36 61.7802C175.014 60.3565 180.671 58.9758 186.337 57.6414ZM152.444 66.1679C153.244 65.9544 153.72 65.1325 153.507 64.332C153.293 63.5316 152.471 63.0557 151.671 63.2692C148.852 64.0208 146.034 64.7823 143.215 65.5531C140.683 66.2457 138.144 66.9505 135.599 67.6695C134.802 67.8947 134.339 68.7236 134.564 69.5208C134.789 70.318 135.618 70.7817 136.415 70.5564C138.95 69.84 141.482 69.1375 144.007 68.4469C146.819 67.6776 149.632 66.9178 152.444 66.1679ZM121.302 74.9989C122.094 74.756 122.539 73.917 122.297 73.125C122.054 72.333 121.215 71.8879 120.423 72.1308C115.391 73.674 110.362 75.2872 105.357 76.9852C104.572 77.2513 104.152 78.103 104.418 78.8875C104.684 79.672 105.536 80.0923 106.32 79.8261C111.294 78.1388 116.295 76.5346 121.302 74.9989ZM91.5178 85.1447C92.2919 84.8496 92.6802 83.9829 92.3851 83.2088C92.0901 82.4347 91.2233 82.0464 90.4492 82.3415C85.5036 84.2266 80.6017 86.2119 75.7647 88.3123C75.0048 88.6423 74.6563 89.5258 74.9862 90.2857C75.3162 91.0456 76.1997 91.3941 76.9596 91.0641C81.7511 88.9835 86.6106 87.0152 91.5178 85.1447ZM62.7283 97.6985C63.469 97.3274 63.7687 96.4261 63.3976 95.6855C63.0266 94.9448 62.1253 94.6451 61.3846 95.0162C59.0145 96.2036 56.6661 97.4243 54.3423 98.6805C51.9928 99.9504 49.6233 101.239 47.2613 102.561C46.5384 102.965 46.2803 103.879 46.6848 104.602C47.0894 105.325 48.0034 105.583 48.7263 105.179C51.0686 103.868 53.4225 102.588 55.7688 101.32C58.0642 100.079 60.3849 98.8724 62.7283 97.6985ZM35.0862 113.484C35.7713 113.018 35.9492 112.086 35.4835 111.4C35.0177 110.715 34.0848 110.537 33.3997 111.003C28.8735 114.08 24.5544 117.441 20.6477 121.226C20.0527 121.803 20.0378 122.752 20.6142 123.347C21.1907 123.942 22.1404 123.957 22.7353 123.381C26.4877 119.745 30.6633 116.491 35.0862 113.484ZM12.9118 135.59C13.3387 134.88 13.1092 133.959 12.3992 133.532C11.6892 133.105 10.7676 133.334 10.3407 134.044C8.94409 136.367 7.69435 138.822 6.61451 141.425C5.76496 143.473 4.98129 145.58 4.27764 147.731C4.02011 148.518 4.44963 149.365 5.23701 149.623C6.02439 149.881 6.87146 149.451 7.129 148.664C7.80804 146.588 8.56474 144.553 9.38549 142.575C10.407 140.113 11.5893 137.79 12.9118 135.59ZM4.1298 161.264C4.25058 160.444 3.68409 159.682 2.86452 159.561C2.04494 159.44 1.28263 160.007 1.16186 160.826C0.502975 165.297 0.261609 169.836 0.551616 174.326C0.605017 175.153 1.31848 175.78 2.14519 175.726C2.97189 175.673 3.59878 174.959 3.54538 174.133C3.27055 169.878 3.4979 165.552 4.1298 161.264ZM6.0082 186.673C5.73689 185.89 4.88242 185.476 4.09967 185.747C3.31693 186.018 2.90233 186.873 3.17364 187.655C3.91463 189.793 4.81767 191.888 5.89682 193.925C7.18028 196.347 8.59345 198.796 10.1195 201.248C10.5572 201.951 11.4823 202.167 12.1856 201.729C12.889 201.291 13.1043 200.366 12.6666 199.663C11.1747 197.266 9.79651 194.877 8.54763 192.52C7.54303 190.624 6.70068 188.671 6.0082 186.673ZM22.2129 213.151C21.697 212.503 20.7534 212.396 20.1051 212.912C19.4569 213.428 19.3496 214.371 19.8654 215.019C23.3532 219.402 27.1239 223.652 31.0771 227.619C31.6619 228.205 32.6117 228.207 33.1984 227.622C33.7852 227.037 33.7868 226.088 33.202 225.501C29.3307 221.616 25.6339 217.451 22.2129 213.151ZM665.223 222.306C670.889 222.303 676.554 222.38 682.219 222.546C683.047 222.57 683.738 221.919 683.762 221.091C683.786 220.263 683.135 219.572 682.307 219.547C676.61 219.38 670.916 219.303 665.222 219.306C664.394 219.306 663.722 219.978 663.723 220.806C663.723 221.635 664.395 222.306 665.223 222.306ZM648.222 222.536C649.05 222.514 649.704 221.826 649.682 220.998C649.661 220.169 648.972 219.516 648.144 219.537C642.457 219.685 636.77 219.9 631.081 220.17C630.254 220.209 629.615 220.912 629.654 221.74C629.694 222.567 630.396 223.206 631.224 223.167C636.893 222.897 642.559 222.683 648.222 222.536ZM699.381 220.332C698.554 220.279 697.841 220.907 697.789 221.734C697.737 222.561 698.365 223.273 699.192 223.326C704.832 223.682 710.475 224.139 716.12 224.708C716.944 224.791 717.679 224.19 717.763 223.366C717.846 222.542 717.245 221.806 716.421 221.723C710.736 221.15 705.057 220.69 699.381 220.332ZM614.234 224.126C615.061 224.072 615.688 223.359 615.634 222.532C615.581 221.706 614.867 221.079 614.041 221.132C608.372 221.499 602.7 221.91 597.023 222.351C596.197 222.416 595.58 223.137 595.644 223.963C595.708 224.789 596.43 225.407 597.256 225.342C602.922 224.901 608.581 224.492 614.234 224.126ZM580.285 226.745C581.11 226.673 581.721 225.946 581.65 225.121C581.578 224.295 580.851 223.684 580.026 223.756C577.196 224.001 574.365 224.252 571.533 224.506C569.438 224.694 567.347 224.908 565.26 225.144C564.437 225.237 563.845 225.979 563.938 226.803C564.031 227.626 564.773 228.218 565.597 228.125C567.663 227.892 569.731 227.68 571.801 227.494C574.631 227.24 577.459 226.99 580.285 226.745ZM733.398 223.781C732.578 223.664 731.818 224.234 731.702 225.055C731.585 225.875 732.155 226.634 732.975 226.751C735.772 227.148 738.569 227.576 741.368 228.036C743.369 228.364 745.344 228.734 747.298 229.141C748.109 229.31 748.904 228.789 749.073 227.978C749.242 227.167 748.721 226.373 747.91 226.204C745.916 225.788 743.898 225.411 741.854 225.075C739.034 224.612 736.215 224.181 733.398 223.781ZM553.208 229.743C554.028 229.624 554.596 228.863 554.477 228.043C554.358 227.223 553.597 226.655 552.777 226.774C548.631 227.376 544.492 228.023 540.362 228.675C539.544 228.804 538.985 229.572 539.114 230.391C539.244 231.209 540.012 231.768 540.83 231.638C544.959 230.986 549.082 230.342 553.208 229.743ZM759.848 229.189C759.052 228.958 758.22 229.416 757.989 230.211C757.758 231.007 758.216 231.839 759.012 232.07C762.888 233.195 766.712 234.45 770.52 235.809C771.3 236.088 772.158 235.681 772.437 234.901C772.715 234.12 772.308 233.262 771.528 232.984C767.672 231.608 763.791 230.333 759.848 229.189ZM528.429 233.575C529.248 233.452 529.812 232.687 529.688 231.868C529.564 231.049 528.799 230.485 527.98 230.609C525.917 230.921 523.854 231.225 521.791 231.515C519.476 231.84 517.158 232.152 514.839 232.454C514.017 232.561 513.438 233.313 513.545 234.135C513.652 234.956 514.405 235.536 515.226 235.429C517.554 235.126 519.882 234.812 522.209 234.485C524.285 234.194 526.358 233.889 528.429 233.575ZM501.257 237.16C502.079 237.061 502.666 236.315 502.567 235.492C502.469 234.67 501.722 234.083 500.899 234.181C500.305 234.253 499.711 234.324 499.117 234.395L497.703 234.564C494.115 234.994 490.523 235.423 486.934 235.868C486.111 235.97 485.528 236.719 485.629 237.541C485.731 238.363 486.48 238.947 487.302 238.845C490.888 238.401 494.475 237.972 498.065 237.542L498.33 237.511C499.305 237.394 500.281 237.277 501.257 237.16ZM45.5677 236.414C44.9094 235.911 43.968 236.037 43.465 236.696C42.9621 237.354 43.0879 238.295 43.7462 238.798C46.0424 240.553 48.365 242.181 50.698 243.657C53.3377 245.327 55.9992 246.876 58.6816 248.313C59.4118 248.705 60.3209 248.43 60.7122 247.7C61.1035 246.97 60.8288 246.06 60.0986 245.669C57.4792 244.265 54.8801 242.752 52.302 241.121C50.0503 239.697 47.8002 238.12 45.5677 236.414ZM782.975 237.351C782.207 237.042 781.333 237.414 781.023 238.182C780.714 238.951 781.086 239.825 781.855 240.134C783.723 240.886 785.596 241.656 787.479 242.44C790.62 243.749 793.523 245.131 796.206 246.644C796.928 247.051 797.843 246.797 798.25 246.075C798.657 245.353 798.402 244.439 797.68 244.032C794.872 242.447 791.858 241.015 788.632 239.671C786.741 238.883 784.857 238.108 782.975 237.351ZM473.387 240.675C474.207 240.559 474.778 239.8 474.662 238.98C474.546 238.16 473.787 237.589 472.966 237.705C470.641 238.034 468.315 238.378 465.991 238.74C462.977 239.21 459.96 239.669 456.941 240.12C456.122 240.243 455.557 241.006 455.679 241.825C455.802 242.645 456.565 243.21 457.384 243.087C460.409 242.636 463.432 242.175 466.453 241.704C468.762 241.345 471.073 241.003 473.387 240.675ZM439.227 245.699C440.048 245.585 440.621 244.828 440.507 244.007C440.393 243.187 439.635 242.614 438.815 242.728C432.769 243.567 426.717 244.38 420.661 245.177C419.84 245.285 419.262 246.038 419.37 246.859C419.478 247.681 420.231 248.259 421.052 248.151C427.114 247.354 433.173 246.54 439.227 245.699ZM402.868 250.498C403.69 250.393 404.272 249.642 404.167 248.821C404.063 247.999 403.312 247.417 402.49 247.522C397.041 248.215 391.592 248.901 386.143 249.587L384.308 249.818C383.486 249.922 382.903 250.672 383.007 251.494C383.11 252.316 383.86 252.898 384.682 252.795L386.314 252.589C391.831 251.895 397.35 251.2 402.868 250.498ZM366.502 255.096C367.323 254.991 367.904 254.24 367.799 253.418C367.694 252.596 366.943 252.015 366.121 252.12C363.09 252.507 360.059 252.897 357.029 253.29C354.271 253.648 351.512 253.994 348.752 254.328C347.929 254.428 347.343 255.175 347.443 255.998C347.543 256.82 348.29 257.406 349.112 257.307C351.881 256.971 354.648 256.624 357.415 256.265C360.443 255.872 363.471 255.483 366.502 255.096ZM76.5617 253.033C75.7838 252.749 74.9223 253.149 74.6375 253.926C74.3528 254.704 74.7526 255.566 75.5306 255.851C81.3499 257.981 87.249 259.691 93.2182 261.062C94.0256 261.248 94.8305 260.744 95.016 259.936C95.2016 259.129 94.6974 258.324 93.89 258.139C88.0311 256.792 82.2529 255.117 76.5617 253.033ZM332.484 259.181C333.308 259.095 333.906 258.357 333.82 257.533C333.734 256.709 332.996 256.111 332.172 256.197C326.639 256.775 321.103 257.309 315.563 257.803C314.738 257.877 314.129 258.605 314.202 259.43C314.276 260.255 315.004 260.865 315.829 260.791C321.383 260.296 326.935 259.761 332.484 259.181ZM813.073 257.116C812.571 256.457 811.63 256.329 810.971 256.831C810.312 257.333 810.185 258.274 810.686 258.934C812.525 261.348 814.177 264.046 815.649 267.097C816.814 269.509 817.294 271.676 817.274 273.63C817.265 274.458 817.93 275.137 818.758 275.146C819.587 275.154 820.265 274.49 820.274 273.661C820.3 271.175 819.683 268.552 818.351 265.792C816.797 262.573 815.042 259.701 813.073 257.116ZM299.154 262.157C299.981 262.095 300.6 261.375 300.538 260.549C300.476 259.723 299.757 259.103 298.931 259.165C293.383 259.58 287.832 259.958 282.279 260.301C281.452 260.352 280.824 261.064 280.875 261.89C280.926 262.717 281.637 263.346 282.464 263.295C288.03 262.951 293.593 262.573 299.154 262.157ZM265.763 264.226C266.59 264.184 267.228 263.48 267.186 262.653C267.145 261.825 266.441 261.188 265.614 261.229C260.056 261.506 254.497 261.752 248.937 261.969C248.109 262.001 247.464 262.698 247.496 263.526C247.529 264.354 248.226 264.999 249.054 264.967C254.625 264.749 260.194 264.503 265.763 264.226ZM111.725 261.269C110.903 261.165 110.152 261.746 110.047 262.568C109.943 263.39 110.525 264.141 111.346 264.245C117.388 265.013 123.489 265.528 129.642 265.87C130.469 265.916 131.177 265.283 131.223 264.455C131.268 263.628 130.635 262.92 129.808 262.874C123.712 262.536 117.682 262.026 111.725 261.269ZM232.339 265.537C233.167 265.513 233.819 264.822 233.795 263.994C233.77 263.166 233.079 262.514 232.251 262.538C226.689 262.702 221.125 262.84 215.56 262.957C214.731 262.974 214.074 263.659 214.091 264.488C214.109 265.316 214.794 265.973 215.622 265.956C221.195 265.839 226.768 265.701 232.339 265.537ZM198.904 266.242C199.733 266.231 200.395 265.55 200.384 264.722C200.373 263.893 199.692 263.231 198.864 263.242C193.298 263.317 187.731 263.374 182.164 263.414C181.336 263.42 180.669 264.097 180.675 264.925C180.681 265.754 181.358 266.42 182.186 266.414C187.759 266.374 193.332 266.317 198.904 266.242ZM147.996 263.449C147.168 263.439 146.488 264.103 146.478 264.931C146.468 265.759 147.131 266.439 147.96 266.449C151 266.486 154.051 266.5 157.111 266.5C159.897 266.5 162.683 266.497 165.469 266.491C166.297 266.489 166.968 265.816 166.966 264.988C166.964 264.16 166.291 263.489 165.463 263.491C162.679 263.497 159.895 263.5 157.111 263.5C154.06 263.5 151.021 263.486 147.996 263.449ZM812.384 287.265C813.037 286.757 813.155 285.814 812.646 285.16C812.138 284.506 811.195 284.389 810.541 284.897C807.055 287.61 802.55 289.886 797.796 291.803C797.027 292.112 796.656 292.986 796.965 293.755C797.275 294.523 798.149 294.895 798.917 294.585C803.791 292.62 808.585 290.221 812.384 287.265ZM784.597 299.391C785.393 299.161 785.851 298.329 785.62 297.533C785.39 296.737 784.558 296.279 783.762 296.51C782.487 296.879 781.247 297.229 780.088 297.557L780.063 297.564L780.051 297.567C778.774 297.928 777.595 298.261 776.576 298.561C773.974 299.328 771.369 300.085 768.761 300.834C767.964 301.062 767.504 301.893 767.733 302.689C767.961 303.486 768.792 303.946 769.588 303.717C772.203 302.967 774.815 302.207 777.424 301.439C778.454 301.135 779.595 300.813 780.845 300.46L780.854 300.458C782.009 300.132 783.257 299.779 784.597 299.391ZM753.872 308.113C754.671 307.895 755.143 307.071 754.925 306.272C754.707 305.472 753.883 305.001 753.083 305.219C747.849 306.645 742.604 308.037 737.349 309.397C736.547 309.604 736.065 310.423 736.272 311.225C736.48 312.027 737.298 312.509 738.1 312.301C743.367 310.939 748.625 309.543 753.872 308.113ZM722.277 316.29C723.082 316.092 723.574 315.28 723.376 314.475C723.179 313.671 722.367 313.179 721.562 313.376C716.292 314.671 711.013 315.933 705.728 317.165C704.921 317.354 704.419 318.16 704.607 318.967C704.795 319.774 705.602 320.275 706.409 320.087C711.706 318.852 716.996 317.587 722.277 316.29ZM690.498 323.702C691.307 323.523 691.817 322.722 691.638 321.913C691.459 321.104 690.659 320.593 689.85 320.772C684.55 321.946 679.244 323.089 673.932 324.206C673.122 324.376 672.603 325.171 672.773 325.982C672.943 326.793 673.739 327.312 674.549 327.141C679.871 326.023 685.187 324.877 690.498 323.702ZM658.567 330.415C659.379 330.252 659.906 329.462 659.744 328.65C659.582 327.838 658.792 327.311 657.98 327.473C652.655 328.535 647.326 329.571 641.994 330.582C641.18 330.736 640.646 331.521 640.8 332.335C640.954 333.149 641.739 333.684 642.553 333.529C647.894 332.517 653.232 331.479 658.567 330.415ZM626.512 336.494C627.327 336.347 627.869 335.567 627.722 334.751C627.575 333.936 626.795 333.394 625.98 333.541C623.308 334.022 620.635 334.498 617.963 334.967C615.504 335.399 613.04 335.834 610.573 336.272C609.758 336.417 609.214 337.195 609.359 338.011C609.504 338.827 610.282 339.37 611.098 339.225C613.563 338.788 616.024 338.353 618.482 337.922C621.159 337.452 623.835 336.976 626.512 336.494ZM596.343 341.887C597.157 341.737 597.697 340.956 597.547 340.141C597.397 339.326 596.616 338.787 595.801 338.936C590.885 339.839 585.964 340.76 581.044 341.705C580.23 341.861 579.698 342.648 579.854 343.461C580.01 344.275 580.797 344.807 581.61 344.651C586.521 343.708 591.434 342.788 596.343 341.887ZM566.908 347.555C567.72 347.39 568.244 346.598 568.079 345.786C567.914 344.975 567.122 344.45 566.31 344.615C561.399 345.614 556.497 346.643 551.609 347.706C550.8 347.882 550.286 348.681 550.463 349.49C550.639 350.3 551.438 350.813 552.247 350.637C557.12 349.577 562.009 348.552 566.908 347.555ZM537.637 353.936C538.444 353.747 538.944 352.939 538.755 352.133C538.566 351.326 537.758 350.826 536.952 351.015C534.51 351.588 532.073 352.171 529.644 352.765C527.211 353.36 524.782 353.967 522.356 354.586C521.553 354.79 521.068 355.607 521.273 356.41C521.478 357.212 522.294 357.697 523.097 357.493C525.514 356.877 527.934 356.271 530.356 355.679C532.776 355.088 535.204 354.507 537.637 353.936Z" fill="#7A79792e"/>
</svg>
