<svg width="899" height="351" viewBox="0 0 899 351" fill="none" xmlns="http://www.w3.org/2000/svg">
<path fill-rule="evenodd" clip-rule="evenodd" d="M468.941 3.18885C473.694 3.16684 478.446 3.15761 483.197 3.17023C484.025 3.17243 484.698 2.50264 484.701 1.67421C484.703 0.84579 484.033 0.172436 483.205 0.170236C478.445 0.157595 473.685 0.16685 468.927 0.188887C468.098 0.192723 467.43 0.867399 467.434 1.69582C467.437 2.52424 468.112 3.19269 468.941 3.18885ZM497.488 0.28304C496.659 0.271625 495.979 0.93388 495.967 1.76223C495.956 2.59058 496.618 3.27134 497.447 3.28275C502.197 3.34822 506.944 3.44466 511.688 3.58115C512.516 3.60497 513.207 2.95299 513.23 2.12491C513.254 1.29682 512.602 0.606213 511.774 0.582386C507.014 0.445412 502.251 0.348683 497.488 0.28304ZM454.679 3.28415C455.507 3.27744 456.174 2.60045 456.167 1.77205C456.16 0.943652 455.483 0.277538 454.655 0.284244C452.718 0.299924 450.782 0.316208 448.847 0.332488L448.846 0.3325C446.026 0.35622 443.207 0.37993 440.389 0.401745C439.56 0.408156 438.894 1.08491 438.9 1.91331C438.907 2.74171 439.584 3.40807 440.412 3.40166C443.231 3.37984 446.051 3.35612 448.871 3.33239L448.874 3.33236L448.875 3.33236C450.81 3.31608 452.745 3.29981 454.679 3.28415ZM426.139 3.48677C426.967 3.48383 427.636 2.80988 427.634 1.98146C427.631 1.15304 426.957 0.483849 426.128 0.486786C423.751 0.495214 421.375 0.499999 419 0.499999C416.35 0.499999 413.699 0.503356 411.048 0.510377C410.219 0.512571 409.549 1.18592 409.552 2.01434C409.554 2.84277 410.227 3.51256 411.056 3.51037C413.704 3.50335 416.353 3.5 419 3.5C421.379 3.5 423.759 3.49521 426.139 3.48677ZM395.168 3.5987C395.997 3.59156 396.662 2.91422 396.655 2.08583C396.648 1.25743 395.971 0.591672 395.142 0.598816C389.842 0.644521 384.54 0.707277 379.236 0.789522C378.408 0.802367 377.747 1.48427 377.76 2.3126C377.773 3.14093 378.455 3.80201 379.283 3.78916C384.579 3.70703 389.875 3.64435 395.168 3.5987ZM363.401 4.09613C364.229 4.07683 364.885 3.3898 364.866 2.5616C364.846 1.73339 364.159 1.07765 363.331 1.09695C358.03 1.22046 352.729 1.36587 347.427 1.53559C346.599 1.5621 345.95 2.25481 345.976 3.08282C346.003 3.91082 346.695 4.56056 347.523 4.53405C352.816 4.36462 358.108 4.21946 363.401 4.09613ZM526.059 1.12374C525.232 1.08429 524.529 1.72311 524.489 2.5506C524.45 3.37809 525.089 4.08088 525.916 4.12033C528.286 4.23334 530.656 4.35866 533.023 4.49743C535.316 4.63179 537.609 4.74857 539.902 4.85284C540.73 4.89047 541.431 4.2501 541.469 3.42253C541.506 2.59495 540.866 1.89357 540.038 1.85594C537.756 1.75216 535.476 1.63604 533.199 1.50257C530.82 1.36313 528.44 1.23724 526.059 1.12374ZM331.652 5.1174C332.48 5.08293 333.123 4.38399 333.088 3.55628C333.054 2.72857 332.355 2.08553 331.527 2.12C326.228 2.34072 320.929 2.58818 315.632 2.86481C314.805 2.90801 314.169 3.61369 314.212 4.44099C314.255 5.26829 314.961 5.90393 315.788 5.86072C321.075 5.58467 326.363 5.3377 331.652 5.1174ZM553.746 2.37043C552.918 2.34348 552.225 2.99284 552.198 3.82083C552.171 4.64882 552.821 5.34189 553.648 5.36885C554.702 5.40315 555.756 5.43695 556.809 5.47074C560.332 5.58381 563.852 5.69674 567.37 5.8281C568.198 5.859 568.894 5.21295 568.925 4.3851C568.956 3.55725 568.31 2.86109 567.482 2.83019C563.955 2.69851 560.425 2.58524 556.9 2.47212C555.848 2.43837 554.797 2.40464 553.746 2.37043ZM581.237 3.47806C580.41 3.42857 579.7 4.05883 579.65 4.88578C579.601 5.71272 580.231 6.42321 581.058 6.4727C583.336 6.60902 585.611 6.76309 587.884 6.93992C591.002 7.18262 594.127 7.46062 597.257 7.76905C598.081 7.8503 598.816 7.24783 598.897 6.4234C598.978 5.59896 598.376 4.86476 597.551 4.78351C594.403 4.47322 591.257 4.19338 588.116 3.94896C585.824 3.77058 583.531 3.61531 581.237 3.47806ZM299.936 6.77861C300.762 6.72591 301.39 6.01298 301.337 5.18623C301.284 4.35948 300.571 3.73199 299.745 3.78469C294.45 4.12216 289.158 4.49125 283.868 4.89439C283.042 4.95734 282.424 5.67801 282.487 6.50404C282.549 7.33007 283.27 7.94867 284.096 7.88571C289.373 7.48355 294.653 7.11532 299.936 6.77861ZM268.274 9.1967C269.099 9.12272 269.708 8.39385 269.634 7.56873C269.56 6.74362 268.831 6.1347 268.006 6.20869C262.721 6.68258 257.439 7.193 252.162 7.74238C251.338 7.82816 250.74 8.56566 250.825 9.38963C250.911 10.2136 251.649 10.812 252.473 10.7263C257.735 10.1784 263.002 9.66936 268.274 9.1967ZM616.355 6.95707C615.533 6.84976 614.78 7.42869 614.673 8.25014C614.566 9.07158 615.145 9.82449 615.966 9.9318C622.19 10.7448 628.416 11.6393 634.631 12.5771C635.451 12.7007 636.215 12.1369 636.339 11.3177C636.462 10.4986 635.898 9.7343 635.079 9.61069C628.85 8.67079 622.604 7.77338 616.355 6.95707ZM236.697 12.489C237.52 12.3907 238.107 11.6441 238.008 10.8216C237.91 9.99898 237.163 9.41188 236.341 9.51021C231.071 10.1402 225.807 10.8116 220.548 11.5269C219.727 11.6385 219.152 12.3945 219.264 13.2154C219.376 14.0362 220.132 14.6112 220.953 14.4995C226.195 13.7865 231.443 13.1171 236.697 12.489ZM653.747 12.5276C652.929 12.397 652.16 12.9542 652.03 13.7723C651.899 14.5904 652.456 15.3594 653.274 15.4901C654.861 15.7435 656.44 15.9963 658.018 16.2488L658.051 16.2541L658.074 16.2578C659.581 16.4991 661.087 16.7401 662.597 16.9812C665.196 17.3964 667.795 17.8378 670.393 18.3052C671.208 18.4518 671.988 17.9098 672.135 17.0945C672.281 16.2791 671.739 15.4993 670.924 15.3526C668.307 14.8818 665.689 14.4371 663.07 14.0188C661.563 13.778 660.047 13.5355 658.53 13.2925L658.486 13.2856C656.907 13.0328 655.325 12.7796 653.747 12.5276ZM205.245 16.7721C206.064 16.6464 206.626 15.8807 206.5 15.0619C206.375 14.243 205.609 13.6812 204.79 13.8069C199.544 14.6123 194.305 15.464 189.073 16.3645C188.257 16.505 187.709 17.2808 187.849 18.0972C187.99 18.9136 188.766 19.4615 189.582 19.321C194.796 18.4237 200.017 17.5749 205.245 16.7721ZM686.548 18.4775C685.739 18.2994 684.939 18.8109 684.761 19.6199C684.583 20.429 685.094 21.2292 685.903 21.4073C691.044 22.539 696.173 23.7712 701.284 25.1019C702.086 25.3107 702.905 24.83 703.114 24.0283C703.322 23.2266 702.842 22.4075 702.04 22.1987C696.893 20.8584 691.726 19.6174 686.548 18.4775ZM173.97 22.16C174.784 22.004 175.317 21.218 175.161 20.4044C175.005 19.5908 174.219 19.0577 173.405 19.2137C170.799 19.7136 168.194 20.2262 165.592 20.7519C163.106 21.2542 160.616 21.7828 158.125 22.3387C157.316 22.5191 156.807 23.3208 156.988 24.1293C157.168 24.9379 157.97 25.4471 158.778 25.2666C161.249 24.7153 163.719 24.1908 166.186 23.6925C168.778 23.1688 171.373 22.658 173.97 22.16ZM144.065 28.8768C144.865 28.6621 145.34 27.8394 145.125 27.0392C144.911 26.2391 144.088 25.7646 143.288 25.9794C138.382 27.296 133.488 28.7256 128.624 30.275C127.835 30.5264 127.399 31.3701 127.65 32.1595C127.902 32.9488 128.746 33.3849 129.535 33.1335C134.353 31.5987 139.202 30.1821 144.065 28.8768ZM717.379 26.5031C716.586 26.2643 715.749 26.7138 715.51 27.5071C715.272 28.3003 715.721 29.137 716.514 29.3758C721.561 30.8948 726.583 32.5097 731.574 34.2187C732.358 34.4871 733.211 34.0693 733.479 33.2855C733.747 32.5017 733.329 31.6488 732.546 31.3805C727.519 29.6593 722.461 28.0329 717.379 26.5031ZM115.231 38.0834C116.007 37.7925 116.4 36.928 116.109 36.1523C115.819 35.3766 114.954 34.9835 114.178 35.2743C109.403 37.0647 104.674 38.9811 100.01 41.0303C99.2513 41.3635 98.9065 42.2484 99.2397 43.0069C99.5729 43.7654 100.458 44.1101 101.216 43.7769C105.828 41.751 110.505 39.8553 115.231 38.0834ZM747.519 36.8231C746.746 36.5256 745.878 36.9111 745.58 37.6842C745.283 38.4573 745.668 39.3253 746.441 39.6229C751.365 41.5179 756.251 43.5052 761.094 45.5827C761.855 45.9093 762.737 45.5569 763.064 44.7955C763.391 44.0342 763.038 43.1522 762.277 42.8257C757.399 40.7332 752.477 38.7317 747.519 36.8231ZM87.5616 50.2693C88.2984 49.8906 88.5887 48.9863 88.21 48.2495C87.8314 47.5127 86.9271 47.2224 86.1903 47.601C81.6425 49.9383 77.1769 52.4172 72.8115 55.0446C72.1017 55.4718 71.8726 56.3935 72.2998 57.1033C72.727 57.8131 73.6487 58.0421 74.3585 57.6149C78.6638 55.0237 83.0706 52.5773 87.5616 50.2693ZM776.796 49.3848C776.048 49.0294 775.153 49.3478 774.798 50.0961C774.442 50.8444 774.761 51.7392 775.509 52.0946C780.279 54.3604 784.998 56.7153 789.662 59.1574C790.396 59.5418 791.302 59.2584 791.686 58.5245C792.071 57.7906 791.787 56.8842 791.054 56.4998C786.355 54.0394 781.601 51.6671 776.796 49.3848ZM61.7146 65.865C62.391 65.3866 62.5515 64.4505 62.0731 63.7742C61.5947 63.0978 60.6586 62.9374 59.9822 63.4157C55.8055 66.3701 51.7485 69.4824 47.8295 72.7598C47.194 73.2912 47.1096 74.2372 47.6411 74.8727C48.1725 75.5082 49.1185 75.5926 49.754 75.0611C53.6084 71.8377 57.6011 68.7746 61.7146 65.865ZM805.021 64.1711C804.303 63.7578 803.386 64.0049 802.972 64.7229C802.559 65.4409 802.806 66.3579 803.524 66.7712C805.811 68.0874 808.082 69.4253 810.337 70.7846C812.747 72.238 815.188 73.652 817.629 75.0551C818.347 75.4681 819.264 75.2206 819.677 74.5025C820.09 73.7843 819.842 72.8673 819.124 72.4544C816.687 71.0532 814.268 69.652 811.886 68.2154C809.614 66.8456 807.325 65.4974 805.021 64.1711ZM833.671 81.0638C832.972 80.6196 832.045 80.8264 831.601 81.5257C831.156 82.225 831.363 83.152 832.063 83.5961C834.414 85.0893 836.716 86.6355 838.948 88.2666C840.906 89.6974 842.829 91.2305 844.723 92.834C845.356 93.3692 846.302 93.2905 846.837 92.6581C847.372 92.0258 847.294 91.0793 846.661 90.5441C844.723 88.9039 842.744 87.3251 840.718 85.8445C838.422 84.1667 836.064 82.5837 833.671 81.0638ZM38.6188 85.2233C39.2054 84.6383 39.2066 83.6885 38.6216 83.102C38.0366 82.5154 37.0868 82.5142 36.5003 83.0992C32.8875 86.7026 29.4303 90.4769 26.1471 94.4293C25.6177 95.0665 25.7051 96.0122 26.3424 96.5416C26.9796 97.0709 27.9253 96.9835 28.4547 96.3462C31.6764 92.4681 35.0702 88.7627 38.6188 85.2233ZM857.734 100.721C857.139 100.145 856.189 100.161 855.613 100.757C855.037 101.352 855.053 102.302 855.649 102.878C856.439 103.642 857.232 104.412 858.022 105.18L858.04 105.198C859.038 106.166 860.031 107.132 861.014 108.08C861.437 108.488 861.858 108.893 862.277 109.296C863.539 110.512 864.782 111.71 866.006 112.9C866.599 113.478 867.549 113.465 868.127 112.871C868.704 112.277 868.691 111.328 868.098 110.75C866.868 109.553 865.617 108.348 864.352 107.13L864.266 107.047C863.877 106.673 863.488 106.297 863.097 105.92C862.105 104.964 861.116 104.003 860.119 103.034C859.33 102.268 858.537 101.498 857.734 100.721ZM19.4075 108.382C19.8721 107.696 19.6928 106.763 19.0069 106.299C18.3211 105.834 17.3884 106.013 16.9238 106.699C15.4935 108.81 14.1093 110.966 12.7734 113.166C11.4601 115.329 10.1933 117.559 9.00326 119.845C8.62073 120.58 8.90633 121.486 9.64115 121.868C10.376 122.251 11.2818 121.965 11.6643 121.23C12.8209 119.008 14.0548 116.836 15.3377 114.723C16.6476 112.565 18.0049 110.452 19.4075 108.382ZM877.847 120.789C877.296 120.17 876.348 120.114 875.729 120.665C875.11 121.216 875.055 122.164 875.605 122.783C878.68 126.237 881.462 129.785 883.862 133.616C884.302 134.318 885.228 134.531 885.93 134.091C886.632 133.651 886.844 132.725 886.405 132.023C883.893 128.014 881 124.332 877.847 120.789ZM5.92216 134.933C6.16807 134.142 5.72611 133.302 4.93502 133.056C4.14393 132.81 3.30328 133.252 3.05737 134.043C2.28902 136.515 1.65651 139.025 1.19125 141.563C0.751577 143.961 0.492142 146.399 0.348444 148.847C0.2999 149.674 0.930969 150.384 1.75797 150.432C2.58498 150.481 3.29475 149.85 3.34329 149.023C3.48155 146.667 3.72935 144.355 4.14207 142.104C4.5837 139.695 5.18605 137.301 5.92216 134.933ZM892.541 144.828C892.272 144.045 891.419 143.627 890.636 143.896C889.852 144.165 889.435 145.018 889.704 145.802C890.414 147.871 891.028 150.039 891.536 152.325C891.909 154.006 892.341 155.643 892.776 157.244C892.993 158.043 893.818 158.515 894.617 158.298C895.417 158.081 895.889 157.257 895.671 156.457C895.239 154.866 894.822 153.284 894.464 151.675C893.932 149.281 893.288 147.004 892.541 144.828ZM3.36443 163.193C3.34036 162.365 2.64956 161.714 1.82148 161.738C0.993406 161.762 0.341627 162.453 0.365692 163.281C0.435806 165.693 0.49999 168.065 0.49999 170.389C0.49999 172.438 0.483408 174.463 0.466938 176.475L0.46612 176.575C0.459339 177.404 1.12539 178.081 1.95379 178.087C2.78219 178.094 3.45924 177.428 3.46602 176.6L3.46688 176.494C3.48332 174.486 3.49999 172.45 3.49999 170.389C3.49999 168.016 3.43447 165.604 3.36443 163.193ZM898.031 166.34C897.9 165.522 897.13 164.965 896.312 165.096C895.494 165.227 894.937 165.997 895.069 166.815C895.319 168.38 895.478 169.959 895.5 171.576C895.518 172.893 895.527 174.211 895.531 175.532C895.533 176.36 896.206 177.03 897.034 177.028C897.863 177.026 898.533 176.352 898.531 175.524C898.527 174.195 898.518 172.866 898.5 171.535C898.475 169.747 898.3 168.021 898.031 166.34ZM898.51 183.479C898.514 182.65 897.845 181.976 897.017 181.972C896.188 181.969 895.514 182.637 895.51 183.466C895.505 184.791 895.5 186.117 895.5 187.444C895.5 190.929 895.382 194.341 895.123 197.698C895.059 198.524 895.677 199.245 896.503 199.309C897.329 199.373 898.05 198.755 898.114 197.929C898.38 194.486 898.5 190.997 898.5 187.444C898.5 186.124 898.505 184.802 898.51 183.479ZM3.52285 188.937C3.49747 188.109 2.80565 187.458 1.97761 187.483C1.14957 187.509 0.49888 188.201 0.524254 189.029C0.653126 193.234 0.949438 197.402 1.58706 201.554C1.7128 202.373 2.47853 202.935 3.29736 202.809C4.11619 202.684 4.67805 201.918 4.55231 201.099C3.93888 197.104 3.64935 193.065 3.52285 188.937ZM7.46901 212.833C7.19037 212.053 6.33205 211.646 5.55189 211.925C4.77172 212.204 4.36516 213.062 4.64379 213.842C5.34111 215.795 6.15149 217.748 7.09256 219.706C8.07568 221.75 9.06042 223.795 10.0565 225.829C10.4209 226.573 11.3193 226.881 12.0634 226.517C12.8074 226.152 13.1152 225.254 12.7509 224.51C11.7599 222.486 10.7793 220.45 9.79631 218.406C8.90176 216.545 8.13172 214.689 7.46901 212.833ZM894.441 218.633C894.671 217.838 894.214 217.005 893.418 216.775C892.622 216.544 891.79 217.001 891.559 217.797C890.627 221.011 889.505 224.214 888.17 227.424C887.094 230.013 885.973 232.557 884.807 235.057C884.457 235.808 884.782 236.7 885.533 237.05C886.284 237.401 887.176 237.076 887.526 236.325C888.71 233.786 889.848 231.204 890.941 228.576C892.318 225.262 893.477 221.954 894.441 218.633ZM18.9428 236.516C18.542 235.791 17.6294 235.528 16.9044 235.929C16.1794 236.33 15.9165 237.242 16.3173 237.967C18.5325 241.975 20.8934 245.895 23.4944 249.669C23.9645 250.351 24.8985 250.523 25.5807 250.052C26.2628 249.582 26.4346 248.648 25.9645 247.966C23.4324 244.292 21.1229 240.46 18.9428 236.516ZM879.709 251.342C880.123 250.625 879.878 249.708 879.161 249.293C878.443 248.879 877.526 249.124 877.111 249.841C874.311 254.685 871.319 259.36 868.135 263.884C867.659 264.561 867.821 265.497 868.499 265.974C869.176 266.451 870.112 266.288 870.589 265.611C873.823 261.014 876.864 256.264 879.709 251.342ZM34.2804 258.419C33.7172 257.811 32.7682 257.775 32.1606 258.338C31.553 258.902 31.5169 259.851 32.08 260.458C33.6328 262.134 35.2657 263.76 36.9898 265.331C38.6379 266.833 40.2755 268.343 41.9122 269.855C42.5206 270.418 43.4696 270.38 44.0319 269.772C44.5941 269.163 44.5566 268.214 43.9482 267.652C42.3108 266.139 40.6667 264.623 39.0102 263.113C37.3513 261.602 35.7783 260.035 34.2804 258.419ZM53.8111 276.674C53.1932 276.122 52.2449 276.176 51.6932 276.794C51.1414 277.412 51.1951 278.36 51.8131 278.912C55.1636 281.903 58.5725 284.832 62.1006 287.623C62.7503 288.137 63.6936 288.026 64.2076 287.377C64.7216 286.727 64.6115 285.784 63.9618 285.27C60.4957 282.528 57.1345 279.641 53.8111 276.674ZM860.251 279.018C860.785 278.384 860.704 277.438 860.07 276.904C859.436 276.371 858.49 276.452 857.956 277.086C854.395 281.316 850.644 285.414 846.703 289.399C846.12 289.988 846.125 290.937 846.714 291.52C847.303 292.103 848.253 292.097 848.836 291.508C852.831 287.47 856.637 283.312 860.251 279.018ZM74.7184 292.981C74.0201 292.535 73.0927 292.74 72.6471 293.438C72.2015 294.137 72.4064 295.064 73.1048 295.51C75.0028 296.721 76.9463 297.881 78.9429 298.98C81.0759 300.155 83.2083 301.318 85.341 302.469C86.07 302.863 86.98 302.591 87.3735 301.862C87.767 301.133 87.4951 300.223 86.7661 299.829C84.6406 298.682 82.5157 297.524 80.3904 296.353C78.4539 295.286 76.5659 294.159 74.7184 292.981ZM836.512 303.086C837.136 302.54 837.199 301.592 836.653 300.969C836.107 300.346 835.159 300.283 834.536 300.828C832.455 302.65 830.329 304.45 828.16 306.229C825.861 308.114 823.52 309.971 821.14 311.797C820.483 312.301 820.359 313.243 820.863 313.9C821.367 314.557 822.309 314.681 822.966 314.177C825.371 312.332 827.738 310.455 830.062 308.549C832.256 306.75 834.406 304.93 836.512 303.086ZM99.603 306.627C98.868 306.245 97.9623 306.531 97.5802 307.266C97.1982 308.001 97.4843 308.907 98.2193 309.289C102.532 311.531 106.854 313.737 111.193 315.919C111.933 316.291 112.835 315.993 113.207 315.253C113.579 314.513 113.281 313.611 112.54 313.239C108.212 311.063 103.903 308.862 99.603 306.627ZM125.561 319.694C124.817 319.33 123.919 319.638 123.555 320.382C123.191 321.126 123.499 322.024 124.243 322.388C126.419 323.453 128.602 324.514 130.791 325.573C133.839 327.046 137.143 328.377 140.51 329.675C141.283 329.973 142.152 329.588 142.45 328.815C142.748 328.042 142.362 327.174 141.59 326.876C138.238 325.584 135.029 324.289 132.097 322.872C129.912 321.815 127.733 320.756 125.561 319.694ZM808.25 324.738C808.938 324.277 809.121 323.345 808.66 322.657C808.199 321.969 807.267 321.785 806.579 322.247C801.632 325.564 796.56 328.739 791.385 331.751C790.669 332.168 790.426 333.086 790.843 333.802C791.26 334.518 792.178 334.761 792.894 334.344C798.125 331.299 803.251 328.09 808.25 324.738ZM776.949 342.943C777.691 342.574 777.993 341.674 777.624 340.932C777.255 340.19 776.355 339.888 775.613 340.257C770.251 342.925 764.81 345.408 759.312 347.686C758.547 348.003 758.184 348.88 758.501 349.645C758.818 350.411 759.695 350.774 760.461 350.457C766.024 348.153 771.528 345.641 776.949 342.943Z" fill="#7A79792e"/>
</svg>
