<svg width="359" height="150" viewBox="0 0 359 150" fill="none" xmlns="http://www.w3.org/2000/svg">
<path fill-rule="evenodd" clip-rule="evenodd" d="M220.963 3.1568C221.776 2.99567 222.304 2.2063 222.143 1.39368C221.982 0.581116 221.192 0.0529785 220.38 0.214111C214.502 1.37952 208.6 2.43512 202.679 3.43542C201.862 3.57343 201.312 4.34753 201.45 5.16437C201.588 5.9812 202.362 6.53149 203.179 6.39349C209.118 5.39008 215.049 4.32941 220.963 3.1568ZM185.362 9.28473C186.181 9.15485 186.739 8.38629 186.609 7.56812C186.479 6.74994 185.71 6.19196 184.892 6.32184L184.115 6.44525C181.406 6.87518 178.695 7.30554 175.984 7.74121C172.97 8.22559 169.952 8.71759 166.931 9.21869C166.114 9.35425 165.561 10.1267 165.697 10.944C165.832 11.7612 166.605 12.3138 167.422 12.1783C170.438 11.678 173.451 11.1869 176.46 10.7032C179.172 10.2675 181.883 9.83704 184.596 9.40649L185.362 9.28473ZM149.378 15.2882C150.193 15.1418 150.735 14.3621 150.589 13.5467C150.442 12.7313 149.663 12.189 148.847 12.3354C142.827 13.4167 136.809 14.5457 130.808 15.7339C129.995 15.8949 129.467 16.6841 129.628 17.4968C129.789 18.3094 130.578 18.8377 131.39 18.6768C137.372 17.4924 143.372 16.3668 149.378 15.2882ZM113.482 22.4249C114.291 22.2457 114.801 21.4448 114.622 20.636C114.443 19.8272 113.642 19.3167 112.833 19.4958C109.84 20.1588 106.855 20.8396 103.879 21.5399C101.492 22.1014 99.0817 22.634 96.6531 23.1522C95.8429 23.325 95.3263 24.1219 95.4991 24.9321C95.672 25.7423 96.4689 26.259 97.2791 26.0861C99.7213 25.5651 102.153 25.0278 104.566 24.4601C107.528 23.763 110.501 23.0851 113.482 22.4249ZM82.7128 29.1024C83.5237 28.9327 84.0434 28.1378 83.8737 27.3269C83.704 26.5161 82.9091 25.9963 82.0983 26.166C77.2366 27.1834 72.3607 28.2552 67.5381 29.4908C66.7355 29.6964 66.2517 30.5137 66.4573 31.3162C66.6629 32.1187 67.4801 32.6025 68.2826 32.397C73.0418 31.1776 77.8676 30.1163 82.7128 29.1024ZM54.1931 36.6626C54.9724 36.3817 55.3764 35.5221 55.0954 34.7428C54.8144 33.9634 53.9549 33.5594 53.1756 33.8405C50.8121 34.6926 48.4757 35.6163 46.1748 36.6265C44.726 37.2626 43.2012 37.8958 41.6191 38.5528L41.6131 38.5553L41.5837 38.5675C40.975 38.8203 40.3578 39.0767 39.7331 39.3381C38.9689 39.6579 38.6087 40.5367 38.9285 41.3008C39.2483 42.0651 40.1271 42.4253 40.8913 42.1055C41.5073 41.8477 42.1231 41.592 42.7351 41.3378C44.3305 40.6753 45.9003 40.0234 47.3807 39.3735C49.6138 38.3931 51.8868 37.4941 54.1931 36.6626ZM28.5375 48.1748C29.2375 47.7319 29.446 46.8053 29.0031 46.1052C28.5602 45.4052 27.6336 45.1967 26.9335 45.6396C24.8334 46.9683 22.8655 48.4576 21.1615 50.1616C19.8637 51.4594 18.6395 52.7761 17.464 54.1055C16.9153 54.7261 16.9735 55.6741 17.5942 56.2228C18.2148 56.7715 19.1627 56.7133 19.7115 56.0927C20.8534 54.8012 22.0354 53.5303 23.2829 52.2829C24.7919 50.7738 26.5724 49.418 28.5375 48.1748ZM13.0024 64.235C13.5182 63.5867 13.4108 62.6431 12.7625 62.1273C12.1142 61.6115 11.1705 61.7189 10.6548 62.3672C9.56041 63.7427 8.46563 65.1177 7.33904 66.4946C5.48003 68.7667 4.03704 71.8907 2.97154 75.3367C2.72683 76.1282 3.17005 76.9681 3.96151 77.2128C4.75297 77.4576 5.59295 77.0143 5.83767 76.2229C6.84303 72.9714 8.14122 70.2517 9.66091 68.3943C10.8024 66.9992 11.9093 65.6089 13.0024 64.235ZM3.60107 94.189C3.56908 93.3611 2.87209 92.716 2.04428 92.748C1.21647 92.78 0.571323 93.4769 0.603302 94.3047C0.741058 97.8706 1.23331 101.221 2.13251 103.919C2.87465 106.145 4.0169 108.272 5.40337 110.269C5.87577 110.95 6.81042 111.119 7.49095 110.646C8.17147 110.174 8.34019 109.239 7.86778 108.559C6.60601 106.741 5.61145 104.869 4.97855 102.97C4.19872 100.631 3.73221 97.5836 3.60107 94.189ZM16.947 117.853C16.2971 117.339 15.3538 117.45 14.8401 118.1C14.3264 118.75 14.4368 119.693 15.0867 120.207C16.9787 121.702 18.8882 123.044 20.6868 124.205C22.7249 125.52 24.7863 126.784 26.8715 127.994C27.5881 128.41 28.506 128.166 28.9217 127.449C29.3374 126.733 29.0935 125.815 28.3769 125.399C26.3344 124.214 24.3133 122.974 22.3132 121.684C20.5856 120.569 18.7553 119.283 16.947 117.853ZM41.0142 131.867C40.2569 131.531 39.3708 131.873 39.035 132.63C38.6993 133.388 39.0411 134.274 39.7984 134.609C44.2387 136.578 48.7823 138.279 53.4338 139.673C54.2274 139.911 55.0635 139.46 55.3013 138.667C55.5391 137.873 55.0886 137.037 54.295 136.799C49.7721 135.444 45.3467 133.788 41.0142 131.867ZM68.092 139.915C67.273 139.79 66.5079 140.353 66.3831 141.172C66.2582 141.991 66.8209 142.756 67.6399 142.881C70.0273 143.245 72.4413 143.525 74.8822 143.718C77.4929 143.923 80.1049 144.126 82.7181 144.326C83.5441 144.389 84.2648 143.77 84.3279 142.944C84.391 142.118 83.7725 141.397 82.9465 141.334C80.3359 141.135 77.7263 140.932 75.1177 140.727C72.7502 140.54 70.4085 140.268 68.092 139.915ZM346.953 144.966C350.317 144.686 353.663 144.5 357 144.5C357.828 144.5 358.5 143.828 358.5 143C358.5 142.172 357.828 141.5 357 141.5C353.554 141.5 350.12 141.692 346.703 141.977C345.878 142.046 345.264 142.771 345.333 143.596C345.402 144.422 346.127 145.035 346.953 144.966ZM98.6074 142.485C97.781 142.427 97.0641 143.049 97.006 143.876C96.948 144.702 97.5708 145.419 98.3972 145.477C103.623 145.844 108.853 146.193 114.087 146.52C114.913 146.571 115.625 145.943 115.677 145.116C115.729 144.289 115.1 143.577 114.273 143.526C109.049 143.2 103.827 142.851 98.6074 142.485ZM326.685 147.027C327.511 146.958 328.124 146.233 328.056 145.408C327.987 144.582 327.263 143.968 326.437 144.037C323.077 144.316 319.731 144.5 316.389 144.5C314.047 144.5 311.704 144.493 309.358 144.481C308.53 144.476 307.855 145.144 307.851 145.973C307.846 146.801 308.514 147.476 309.343 147.481C311.692 147.493 314.041 147.5 316.389 147.5C319.839 147.5 323.273 147.31 326.685 147.027ZM253.071 147.278C257.75 147.2 262.435 147.167 267.123 147.164C267.951 147.163 268.622 146.491 268.622 145.662C268.621 144.834 267.949 144.163 267.121 144.164C262.42 144.167 257.719 144.2 253.021 144.279C252.192 144.292 251.532 144.975 251.546 145.804C251.56 146.632 252.243 147.292 253.071 147.278ZM281.211 144.225C280.382 144.218 279.705 144.884 279.698 145.713C279.692 146.541 280.358 147.218 281.186 147.225C284.82 147.255 288.454 147.293 292.087 147.331L292.178 147.332L295.259 147.364C296.087 147.372 296.766 146.707 296.774 145.879C296.783 145.051 296.118 144.372 295.29 144.364C294.254 144.353 293.219 144.342 292.183 144.331L292.062 144.33C288.447 144.293 284.829 144.255 281.211 144.225ZM129.945 144.429C129.118 144.386 128.412 145.021 128.368 145.848C128.324 146.676 128.96 147.382 129.787 147.425C135.022 147.701 140.26 147.949 145.499 148.165C146.327 148.199 147.025 147.556 147.059 146.728C147.094 145.9 146.45 145.202 145.622 145.168C140.395 144.952 135.169 144.705 129.945 144.429ZM239.035 147.668C239.863 147.635 240.507 146.937 240.474 146.109C240.441 145.282 239.743 144.638 238.915 144.671C236.563 144.765 234.212 144.875 231.863 145.002C229.254 145.144 226.644 145.271 224.033 145.384C223.205 145.42 222.563 146.12 222.599 146.948C222.635 147.776 223.335 148.417 224.163 148.382C226.784 148.268 229.405 148.14 232.026 147.998C234.36 147.871 236.696 147.762 239.035 147.668ZM161.305 145.712C160.477 145.689 159.787 146.342 159.764 147.17C159.741 147.998 160.393 148.688 161.221 148.711C166.464 148.858 171.708 148.967 176.953 149.035C177.781 149.046 178.461 148.383 178.472 147.554C178.482 146.726 177.82 146.046 176.991 146.035C171.763 145.968 166.534 145.859 161.305 145.712ZM208.428 148.899C209.257 148.88 209.913 148.194 209.894 147.365C209.875 146.537 209.188 145.881 208.36 145.9C203.135 146.019 197.907 146.086 192.678 146.107C191.849 146.11 191.18 146.785 191.184 147.613C191.187 148.442 191.861 149.11 192.69 149.107C197.937 149.086 203.183 149.018 208.428 148.899Z" fill="#7A79792e"/>
</svg>
